<?xml version="1.0" encoding="utf-8"?>
<!-- Generator: Adobe Illustrator 16.0.0, SVG Export Plug-In . SVG Version: 6.00 Build 0)  -->
<!DOCTYPE svg PUBLIC "-//W3C//DTD SVG 1.1//EN" "http://www.w3.org/Graphics/SVG/1.1/DTD/svg11.dtd">
<svg version="1.1" id="Layer_1" xmlns="http://www.w3.org/2000/svg" xmlns:xlink="http://www.w3.org/1999/xlink" x="0px" y="0px"
	 width="241.351px" height="241.029px"
	  xml:space="preserve">
	<path d="M858.163,312.603c-0.904,0-1.362-0.512-1.362-1.521v-34.556c0-1.08,0.378-1.498,1.396-1.545
		c3.935-0.176,7.984-0.721,12.384-1.666c3.396-0.729,6.646-1.607,9.658-2.608c6.129-2.037,12.027-4.847,17.535-8.349
		c6.382-4.059,12.157-8.871,17.167-14.305c3.005-3.262,5.854-6.986,8.709-11.387c2.837-4.373,5.234-9.1,7.331-14.445
		c1.899-4.846,3.229-9.399,4.065-13.923l0.232-1.239c0.363-1.931,0.74-3.927,0.928-5.896c0.185-1.967-0.457-3.868-1.808-5.357
		c-1.814-2.004-4.005-2.899-6.496-2.633l-0.422,0.045l0.01-0.63c0-0.481-0.01-0.962-0.019-1.442l-0.008-0.416l0.414,0.031
		c0.61,0.051,1.237,0.03,1.829-0.068c2.663-0.442,4.604-1.893,5.771-4.308c0.748-1.551,0.905-3.265,0.493-5.392
		c-0.188-0.969-0.363-1.938-0.54-2.909c-0.368-2.021-0.749-4.112-1.222-6.141c-1.466-6.288-3.855-12.636-7.104-18.865
		c-2.516-4.821-5.775-9.587-10.262-14.999c-4.306-5.197-9.696-10.03-16.479-14.775c-4.723-3.303-10.042-6.132-16.267-8.648
		c-4.706-1.902-9.668-3.331-15.169-4.369c-7.058-1.332-13.98-1.76-20.608-1.274c-3.479,0.256-7.184,0.764-11.323,1.551
		c-6.96,1.326-14.008,3.767-20.949,7.256c-4.081,2.053-8.099,4.548-11.938,7.418c-5.808,4.339-11,9.329-15.436,14.832
		c-3.06,3.795-5.894,8.108-8.424,12.819c-2.516,4.683-4.524,9.479-5.969,14.252c-1.511,4.989-2.495,9.454-3.014,13.649
		c-0.091,0.744-0.188,1.488-0.296,2.23c-0.146,0.98-0.591,1.431-1.381,1.291c-0.755-0.134-1.068-0.662-0.931-1.568
		c0.105-0.701,0.209-1.403,0.311-2.105c0.246-1.691,0.5-3.442,0.817-5.154c0.739-3.976,1.914-8.206,3.591-12.935
		c1.471-4.143,3.443-8.346,6.398-13.627c2.228-3.981,5.041-7.916,9.121-12.757c3.124-3.703,6.726-7.202,11.01-10.696
		c5.522-4.504,11.938-8.409,19.066-11.607c4.787-2.15,9.666-3.818,14.501-4.956c4.282-1.007,8.549-1.604,12.158-2.052
		c3.898-0.486,6.806-3.742,6.764-7.573c-0.027-2.622-1.109-4.671-3.307-6.262c-1.646-1.191-3.53-1.595-5.857-1.246l-1.988,0.292
		c-2.034,0.297-4.138,0.604-6.192,0.965c-4.253,0.744-8.79,1.919-13.868,3.59c-9.2,3.026-17.908,7.549-26.62,13.824
		c-6.824,4.916-12.559,10.174-17.526,16.074c-5.792,6.876-10.616,14.311-14.34,22.098c-2.898,6.062-5.003,11.783-6.435,17.492
		c-1.295,5.173-2.251,10.437-2.84,15.646c-0.659,5.827-0.513,11.667-0.311,16.104c0.201,4.42,0.739,8.846,1.6,13.152
		c2.006,10.057,5.316,19.471,9.841,27.985c2.56,4.819,5.605,9.571,9.054,14.124c5.529,7.298,11.994,13.749,19.217,19.177
		c6.549,4.924,13.725,9.089,21.327,12.38c4.817,2.085,9.983,3.777,15.794,5.174c0.642,0.154,1.278,0.324,1.916,0.494
		c0.664,0.178,1.006,0.689,0.891,1.336c-0.119,0.68-0.672,1.074-1.336,0.932c-0.953-0.215-1.9-0.454-2.849-0.693l-0.722-0.184
		c-4.962-1.25-9.678-2.826-14.017-4.685c-5.984-2.562-11.156-5.265-15.811-8.263c-6.785-4.373-13.064-9.568-19.196-15.881
		c-4.545-4.678-8.293-9.905-11.051-13.938c-4.494-6.571-8.123-13.784-11.094-22.05c-1.768-4.917-3.157-9.904-4.131-14.823
		c-0.542-2.743-0.905-5.563-1.257-8.288c-0.106-0.828-0.213-1.656-0.325-2.484c-0.03-0.23-0.059-0.463-0.086-0.694
		c-0.127-1.069-0.247-2.08-0.702-3.015c-1.283-2.639-3.328-4.082-6.249-4.416c-2.144-0.247-4.019,0.396-5.834,1.96
		c-0.983,0.847-1.7,2.024-2.19,3.602c-0.513,1.646-0.273,3.265-0.021,4.979l0.112,0.781c0.529,3.877,1.001,7.127,1.583,10.394
		c0.418,2.342,0.966,4.78,1.673,7.457c2.959,11.177,7.692,22.062,14.069,32.351c3.715,5.993,8.021,11.645,13.166,17.272
		c5.572,6.097,11.773,11.594,18.431,16.338c7.641,5.444,15.772,9.901,24.173,13.245c4.889,1.945,9.839,3.581,14.711,4.857
		c1.814,0.475,3.685,0.883,5.492,1.276c0.747,0.163,1.493,0.326,2.236,0.493c0.507,0.113,0.882,0.347,1.086,0.673
		c0.151,0.242,0.197,0.521,0.132,0.804c-0.176,0.758-0.801,1.104-1.683,0.887c-1.174-0.289-2.352-0.564-3.528-0.842
		c-2.921-0.688-5.939-1.398-8.865-2.266c-9.123-2.698-18.188-6.678-26.941-11.83c-4.225-2.486-8.114-5.32-11.364-7.768
		c-7.42-5.584-14.176-12.144-20.654-20.049c-4.79-5.844-9.076-12.373-12.741-19.405c-2.104-4.033-3.917-8.206-5.743-12.482
		c-1.896-4.438-3.221-9.03-4.266-12.938c-1.152-4.303-2.072-8.973-2.896-14.693c-0.898-6.236-1.278-12.734-1.13-19.318
		c0.079-3.451,0.404-6.843,0.868-10.871c0.355-3.104,0.824-6.755,1.586-10.304c0.865-4.023,1.922-8.1,3.144-12.117
		c2.3-7.558,5.512-14.99,9.819-22.724c3.185-5.715,6.987-11.319,11.626-17.133c3.965-4.966,8.62-9.778,13.836-14.303
		c2.85-2.471,5.795-5.025,8.938-7.267c3.663-2.608,7.46-4.924,11.019-7.037c5.496-3.268,11.72-6.141,19.025-8.784
		c5.797-2.099,11.619-3.721,17.308-4.823c2.741-0.53,5.554-0.91,8.274-1.276c1.075-0.146,2.151-0.291,3.227-0.445
		c0.635-0.091,1.272-0.152,1.911-0.213c0.314-0.03,0.629-0.06,0.942-0.094c0.861-0.094,1.499,0.386,1.51,1.095
		c0.012,0.723-0.447,1.204-1.229,1.29c-0.587,0.065-1.174,0.125-1.762,0.185c-1.078,0.11-2.156,0.221-3.229,0.364l-1.016,0.135
		c-2.269,0.302-4.615,0.613-6.9,1.019c-4.855,0.86-9.976,2.18-15.652,4.033c-4.66,1.521-9.196,3.354-13.482,5.442
		c-6.81,3.321-12.248,6.498-17.116,9.996c-4.196,3.017-8.251,6.271-12.053,9.676c-3.318,2.974-6.579,6.383-9.967,10.422
		c-6.361,7.589-11.647,15.571-15.714,23.727c-3.204,6.428-5.751,12.926-7.573,19.315c-0.832,2.914-1.778,6.362-2.507,9.84
		c-0.517,2.468-0.89,5.015-1.25,7.479c-0.107,0.74-0.217,1.48-0.329,2.221c-0.23,1.517-0.464,3.047-0.542,4.551
		c-0.165,3.153,1.031,5.597,3.555,7.264c1.128,0.744,2.49,1.14,3.942,1.138c1.699,0,3.361-0.541,4.68-1.523
		c1.577-1.176,2.539-2.741,2.942-4.785c0.158-0.801,0.223-1.645,0.287-2.461c0.047-0.613,0.095-1.229,0.18-1.838l0.148-1.075
		c0.303-2.19,0.614-4.455,1.042-6.663c1.28-6.62,3.125-12.928,5.482-18.747c2.166-5.347,4.854-10.66,7.99-15.795
		c4.199-6.878,9.293-13.303,15.142-19.097c4.437-4.396,9.384-8.453,15.121-12.4c4.826-3.32,10.166-6.23,16.322-8.896
		c5.051-2.188,9.241-3.708,13.189-4.783c3.627-0.985,7.297-1.792,10.909-2.398c5.935-0.994,11.411-1.478,16.745-1.478
		c1.338,0,2.679,0.031,3.986,0.094c2.647,0.127,5.325,0.413,7.915,0.69l2.054,0.217c4.28,0.439,8.863,1.372,14.425,2.935
		c7.704,2.167,15.143,5.257,22.105,9.186c6.802,3.837,13.062,8.314,18.604,13.308c4.17,3.754,7.675,7.378,10.715,11.078
		c3.465,4.216,6.671,8.857,9.529,13.797c3.613,6.242,6.328,12.173,8.302,18.131c1.451,4.386,2.483,8.071,3.252,11.6
		c0.64,2.932,1.084,5.949,1.514,8.868c0.181,1.228,0.361,2.455,0.558,3.681c0.051,0.317,0.053,0.638,0.005,0.927
		c-0.102,0.604-0.521,0.979-1.098,0.979l-0.105-0.004c-0.647-0.047-1.063-0.448-1.138-1.103c-0.065-0.581-0.123-1.163-0.181-1.745
		c-0.128-1.31-0.26-2.662-0.496-3.968c-0.737-4.098-1.41-7.41-2.114-10.426c-1.025-4.395-2.44-8.76-4.205-12.975
		c-2.442-5.834-4.966-10.804-7.712-15.194c-2.805-4.488-6.192-9.003-10.358-13.804c-5.352-6.167-11.785-11.767-19.671-17.119
		c-4.123-2.799-8.835-5.381-14.402-7.896c-4.813-2.174-9.694-3.917-14.504-5.183c-4.079-1.073-8.225-1.891-11.381-2.482
		c-2.146-0.401-4.396-0.647-6.691-0.732l-0.218-0.004c-2.983,0-5.996,2.306-6.859,5.249c-0.737,2.518-0.365,4.822,1.108,6.853
		c1.224,1.687,3.03,2.723,5.37,3.077c0.787,0.12,1.576,0.235,2.364,0.352c2.624,0.384,5.337,0.782,7.978,1.33
		c2.755,0.571,5.596,1.341,8.688,2.354c8.106,2.655,15.93,6.69,23.248,11.991c5.656,4.099,10.953,9.104,15.744,14.877
		c5.406,6.512,9.813,13.924,13.095,22.03c2.028,5.015,3.604,10.233,4.683,15.51c1.299,6.354,1.816,12.974,1.584,20.236
		c-0.139,4.339-0.725,8.872-1.843,14.269c-1.808,8.719-5.14,17.304-9.904,25.517c-3.078,5.306-6.896,10.354-11.674,15.435
		c-6.822,7.256-14.944,13.258-24.143,17.84c-4.379,2.183-9.034,3.979-14.233,5.49c-3.395,0.987-7.118,1.797-11.389,2.471
		c-3.512,0.555-5.951,2.972-6.525,6.465c-0.494,3.003,0.788,5.824,3.431,7.547c1.696,1.105,3.677,1.445,5.854,1.011l1.677-0.333
		c3.245-0.644,6.602-1.309,9.852-2.143c5.213-1.338,10.592-3.295,16.442-5.986c4.621-2.125,9.289-4.83,14.271-8.27
		c6.679-4.61,12.872-10.135,18.406-16.418c5.862-6.653,10.897-14.192,14.964-22.405c2.547-5.146,4.672-10.731,6.314-16.606
		c0.778-2.781,1.447-5.772,2.17-9.703c0.378-2.058,0.646-4.175,0.905-6.223c0.117-0.925,0.233-1.849,0.362-2.771
		c0.104-0.768,0.585-1.178,1.334-1.084c0.719,0.088,1.115,0.617,1.036,1.383c-0.113,1.146-0.242,2.373-0.438,3.597l-0.313,1.999
		c-0.367,2.362-0.748,4.805-1.219,7.191c-1.166,5.916-3.228,11.598-5.068,16.459c-2.047,5.41-4.907,10.975-8.747,17.013
		c-5.187,8.151-11.501,15.548-18.77,21.981c-8.282,7.33-17.703,13.248-28.001,17.59c-6.109,2.576-11.786,4.414-17.354,5.613
		c-1.604,0.346-3.244,0.629-4.83,0.904c-1.132,0.195-2.265,0.393-3.392,0.609c-0.355,0.07-0.717,0.133-1.077,0.195
		c-1.233,0.217-2.512,0.439-3.636,0.914c-2.075,0.875-3.476,2.61-4.05,5.021c-0.323,1.356-0.331,2.547-0.022,3.637
		c0.605,2.136,1.796,3.696,3.636,4.771c1.556,0.91,3.243,1.176,5.239,0.834c0.938-0.164,1.896-0.282,2.822-0.396
		c0.977-0.121,1.983-0.246,2.96-0.422c2.087-0.374,4.196-0.852,6.235-1.311l0.392-0.09c5.152-1.162,10.16-2.677,14.886-4.498
		c6-2.313,11.771-5.067,17.154-8.185c6.992-4.046,13.327-8.567,18.83-13.44c3.38-2.996,6.525-6.261,9.156-9.06
		c6.683-7.106,12.468-15.209,17.195-24.081c3.262-6.124,5.789-11.993,7.727-17.943c0.97-2.981,2.069-6.363,2.885-9.73
		c0.752-3.11,1.308-6.33,1.845-9.443l0.173-0.999c1.078-6.21,1.302-12.424,1.379-17.684c0.047-3.247-0.22-6.563-0.479-9.771
		l-0.024-0.31c-0.229-2.837-0.57-5.71-1.018-8.539c-0.429-2.72-0.979-5.567-1.687-8.705c-1.195-5.304-2.85-10.65-4.913-15.89
		c-1.347-3.419-3.023-7.074-5.277-11.505c-3.271-6.424-7.402-12.802-12.284-18.956c-4.722-5.956-9.993-11.438-15.673-16.294
		c-5.563-4.758-11.643-9.054-18.069-12.771c-5.321-3.075-11.235-5.832-18.081-8.428c-5.114-1.938-10.322-3.288-15.188-4.457
		c-5.084-1.221-10.243-1.817-14.169-2.201c-0.882-0.086-1.763-0.179-2.644-0.282c-0.744-0.087-1.199-0.59-1.16-1.283
		c0.039-0.723,0.576-1.171,1.345-1.11c5.651,0.464,10.616,1.163,15.177,2.137c7.078,1.511,14.007,3.587,20.593,6.171
		c5.832,2.288,11.682,5.225,17.884,8.976c6.683,4.042,13.016,8.77,18.82,14.051c5.354,4.871,10.438,10.516,15.544,17.257
		c3.939,5.204,7.571,11.179,11.104,18.267c3.396,6.823,6.1,13.898,8.033,21.029c0.808,2.981,1.726,6.454,2.396,9.924
		c0.586,3.03,1.05,6.273,1.415,9.917c0.343,3.385,0.501,6.836,0.622,10.063c0.185,4.875-0.004,9.714-0.558,14.381l-0.163,1.391
		c-0.329,2.803-0.669,5.699-1.16,8.528c-0.787,4.537-1.732,8.597-2.893,12.406c-2.513,8.258-5.451,15.467-8.988,22.038
		c-4.832,8.977-9.971,16.516-15.712,23.047c-6.098,6.941-13.086,13.277-20.769,18.835c-6.582,4.761-13.654,8.856-21.021,12.175
		c-5.621,2.532-11.664,4.673-17.962,6.361c-5.146,1.38-10.341,2.391-15.439,3.005c-2.767,0.335-5.589,0.579-8.316,0.815
		c-0.93,0.08-1.856,0.16-2.784,0.244C858.33,312.599,858.244,312.603,858.163,312.603z M928.735,192.378
		c2.335,0,4.485,1.012,6.221,2.924c1.492,1.647,2.201,3.754,1.996,5.932c-0.189,2.007-0.569,4.02-0.938,5.967l-0.23,1.236
		c-0.847,4.57-2.188,9.17-4.105,14.061c-2.114,5.395-4.536,10.164-7.4,14.58c-2.878,4.438-5.752,8.193-8.787,11.486
		c-5.054,5.48-10.878,10.336-17.315,14.43c-5.559,3.535-11.514,6.37-17.701,8.426c-3.038,1.01-6.313,1.896-9.735,2.631
		c-4.44,0.955-8.531,1.506-12.509,1.684c-0.575,0.024-0.679,0.087-0.679,0.795v34.556c0,0.751,0.264,0.808,0.802,0.761
		c0.931-0.084,1.858-0.164,2.788-0.246c2.724-0.234,5.538-0.479,8.292-0.813c5.063-0.609,10.224-1.614,15.336-2.984
		c6.259-1.679,12.264-3.806,17.848-6.32c7.318-3.297,14.347-7.368,20.889-12.1c7.638-5.523,14.583-11.822,20.646-18.722
		c5.701-6.489,10.81-13.981,15.613-22.908c3.514-6.526,6.436-13.69,8.933-21.901c1.148-3.779,2.089-7.81,2.871-12.315
		c0.486-2.808,0.825-5.695,1.152-8.487l0.164-1.391c0.549-4.629,0.734-9.43,0.552-14.266c-0.119-3.213-0.278-6.649-0.617-10.016
		c-0.364-3.62-0.824-6.842-1.405-9.849c-0.665-3.445-1.579-6.901-2.384-9.871c-1.92-7.083-4.605-14.111-7.98-20.891
		c-3.51-7.045-7.118-12.981-11.028-18.147c-5.076-6.704-10.131-12.315-15.45-17.155c-5.771-5.249-12.063-9.947-18.705-13.963
		c-6.165-3.729-11.979-6.647-17.77-8.921c-6.548-2.568-13.437-4.633-20.475-6.134c-4.529-0.968-9.463-1.662-15.082-2.123
		c-0.453-0.018-0.525,0.229-0.535,0.404c-0.006,0.108-0.023,0.436,0.5,0.497c0.875,0.102,1.752,0.194,2.628,0.28
		c3.95,0.386,9.144,0.986,14.272,2.219c4.89,1.175,10.125,2.53,15.277,4.484c6.885,2.609,12.834,5.384,18.19,8.48
		c6.468,3.738,12.586,8.062,18.185,12.849c5.714,4.887,11.021,10.404,15.771,16.397c4.912,6.194,9.072,12.614,12.364,19.083
		c2.266,4.452,3.952,8.129,5.307,11.569c2.079,5.275,3.743,10.659,4.948,16.001c0.709,3.153,1.264,6.016,1.693,8.752
		c0.45,2.849,0.796,5.74,1.024,8.596l0.024,0.312c0.26,3.224,0.527,6.557,0.479,9.841c-0.077,5.288-0.304,11.539-1.391,17.801
		l-0.172,0.998c-0.539,3.125-1.098,6.357-1.854,9.491c-0.821,3.397-1.926,6.792-2.9,9.788c-1.95,5.992-4.494,11.9-7.776,18.064
		c-4.759,8.93-10.583,17.086-17.312,24.24c-2.643,2.812-5.804,6.092-9.205,9.105c-5.541,4.906-11.916,9.459-18.952,13.529
		c-5.417,3.135-11.226,5.906-17.262,8.234c-4.759,1.835-9.802,3.359-14.988,4.531l-0.393,0.088
		c-2.047,0.462-4.164,0.939-6.268,1.316c-0.997,0.18-2.017,0.307-3,0.429c-0.918,0.112-1.867,0.231-2.789,0.391
		c-2.173,0.378-4.033,0.074-5.745-0.924c-1.987-1.16-3.325-2.914-3.977-5.213c-0.346-1.218-0.342-2.53,0.013-4.017
		c0.633-2.65,2.185-4.564,4.489-5.537c1.201-0.506,2.521-0.737,3.798-0.961c0.354-0.063,0.712-0.125,1.063-0.192
		c1.132-0.22,2.27-0.417,3.405-0.613c1.578-0.272,3.211-0.557,4.8-0.897c5.523-1.19,11.157-3.014,17.224-5.571
		c10.223-4.312,19.573-10.185,27.794-17.461c7.217-6.388,13.484-13.729,18.634-21.822c3.812-5.993,6.65-11.514,8.68-16.875
		c1.83-4.833,3.879-10.479,5.033-16.338c0.469-2.374,0.848-4.81,1.214-7.163l0.313-2.002c0.191-1.204,0.318-2.416,0.433-3.555
		c0.053-0.51-0.241-0.545-0.383-0.563c-0.037-0.005-0.072-0.007-0.105-0.007c-0.124,0-0.332,0-0.395,0.45
		c-0.126,0.92-0.243,1.842-0.36,2.763c-0.261,2.059-0.53,4.188-0.911,6.264c-0.728,3.955-1.4,6.968-2.186,9.771
		c-1.656,5.92-3.798,11.552-6.365,16.737c-4.096,8.271-9.167,15.865-15.073,22.57c-5.575,6.327-11.813,11.893-18.544,16.539
		c-5.018,3.463-9.723,6.188-14.384,8.332c-5.893,2.711-11.313,4.684-16.569,6.031c-3.27,0.84-6.636,1.507-9.891,2.15l-1.677,0.335
		c-2.371,0.474-4.547,0.095-6.409-1.118c-2.898-1.891-4.305-4.992-3.761-8.297c0.63-3.828,3.303-6.477,7.148-7.084
		c4.238-0.67,7.934-1.471,11.296-2.45c5.155-1.5,9.771-3.279,14.109-5.442c9.117-4.541,17.168-10.49,23.929-17.681
		c4.738-5.039,8.523-10.043,11.572-15.298c4.725-8.143,8.028-16.651,9.818-25.292c1.108-5.353,1.688-9.845,1.827-14.14
		c0.229-7.203-0.282-13.767-1.568-20.063c-1.068-5.232-2.631-10.406-4.644-15.379c-3.254-8.034-7.618-15.38-12.977-21.833
		c-4.751-5.725-10.002-10.687-15.607-14.748c-7.256-5.256-15.009-9.255-23.043-11.886c-3.063-1.004-5.878-1.767-8.604-2.332
		c-2.619-0.544-5.321-0.939-7.934-1.323c-0.79-0.115-1.58-0.231-2.369-0.351c-2.546-0.387-4.52-1.523-5.864-3.379
		c-1.595-2.196-2.017-4.791-1.22-7.504c0.967-3.3,4.225-5.788,7.578-5.788l0.244,0.004c2.332,0.086,4.621,0.337,6.804,0.746
		c3.168,0.594,7.331,1.414,11.434,2.494c4.849,1.275,9.77,3.033,14.621,5.224c5.607,2.531,10.354,5.134,14.516,7.957
		c7.939,5.39,14.423,11.032,19.815,17.248c4.192,4.831,7.604,9.377,10.43,13.897c2.768,4.426,5.309,9.432,7.768,15.304
		c1.779,4.253,3.208,8.658,4.244,13.094c0.707,3.027,1.382,6.353,2.121,10.463c0.241,1.334,0.375,2.703,0.506,4.025
		c0.057,0.58,0.112,1.157,0.179,1.734c0.033,0.295,0.159,0.418,0.447,0.438c0.162-0.006,0.355-0.037,0.406-0.348
		c0.035-0.21,0.033-0.447-0.005-0.688c-0.195-1.229-0.377-2.459-0.559-3.688c-0.428-2.906-0.87-5.911-1.504-8.817
		c-0.764-3.502-1.789-7.164-3.232-11.523c-1.955-5.909-4.649-11.794-8.236-17.992c-2.84-4.903-6.021-9.511-9.462-13.695
		c-3.016-3.671-6.494-7.269-10.637-10.998c-5.503-4.956-11.718-9.401-18.472-13.212c-6.911-3.898-14.293-6.965-21.94-9.115
		c-5.518-1.552-10.061-2.477-14.297-2.911l-2.058-0.217c-2.579-0.276-5.245-0.562-7.87-0.687c-6.478-0.313-13.205,0.14-20.573,1.374
		c-3.588,0.602-7.232,1.403-10.836,2.383c-3.913,1.064-8.072,2.573-13.088,4.746c-6.112,2.647-11.41,5.535-16.195,8.826
		c-5.702,3.923-10.615,7.951-15.021,12.316c-5.805,5.751-10.86,12.129-15.027,18.954c-3.115,5.1-5.785,10.377-7.936,15.686
		c-2.341,5.774-4.171,12.035-5.442,18.608c-0.424,2.188-0.734,4.442-1.035,6.623l-0.148,1.076c-0.082,0.594-0.128,1.192-0.176,1.793
		c-0.063,0.838-0.132,1.703-0.298,2.547c-0.435,2.205-1.521,3.969-3.229,5.242c-1.447,1.079-3.27,1.674-5.128,1.674
		c-1.601,0-3.106-0.438-4.356-1.264c-2.761-1.822-4.069-4.49-3.89-7.928c0.081-1.541,0.315-3.091,0.544-4.588
		c0.118-0.775,0.226-1.515,0.334-2.254c0.362-2.474,0.737-5.032,1.258-7.523c0.733-3.5,1.687-6.964,2.521-9.891
		c1.834-6.435,4.398-12.977,7.624-19.444c4.091-8.208,9.412-16.241,15.811-23.875c3.41-4.066,6.694-7.5,10.041-10.498
		c3.82-3.422,7.896-6.694,12.114-9.727c4.903-3.523,10.378-6.721,17.227-10.061c4.316-2.104,8.886-3.949,13.578-5.481
		c5.711-1.864,10.864-3.192,15.754-4.059c2.302-0.408,4.656-0.721,6.935-1.023l1.014-0.136c1.081-0.144,2.167-0.255,3.253-0.366
		c0.585-0.06,1.171-0.119,1.756-0.185c0.5-0.054,0.564-0.288,0.562-0.532c-0.006-0.316-0.378-0.395-0.681-0.36
		c-0.315,0.034-0.634,0.064-0.95,0.095c-0.628,0.06-1.254,0.119-1.877,0.208c-1.075,0.155-2.153,0.301-3.232,0.446
		c-2.709,0.365-5.511,0.743-8.231,1.27c-5.648,1.095-11.435,2.707-17.193,4.792c-7.263,2.628-13.443,5.481-18.898,8.724
		c-3.544,2.105-7.325,4.41-10.966,7.004c-3.115,2.22-6.047,4.763-8.882,7.222c-5.183,4.495-9.806,9.274-13.742,14.205
		c-4.613,5.78-8.394,11.351-11.557,17.029c-4.282,7.686-7.475,15.07-9.758,22.577c-1.215,3.997-2.268,8.053-3.128,12.057
		c-0.755,3.516-1.22,7.145-1.573,10.229c-0.461,4.01-0.784,7.381-0.863,10.805c-0.148,6.541,0.229,12.999,1.122,19.193
		c0.82,5.69,1.734,10.332,2.878,14.607c1.038,3.881,2.352,8.439,4.229,12.836c1.82,4.264,3.627,8.421,5.72,12.432
		c3.641,6.986,7.898,13.474,12.655,19.277c6.44,7.857,13.155,14.375,20.526,19.924c3.232,2.434,7.103,5.254,11.294,7.721
		c8.7,5.121,17.708,9.076,26.773,11.758c2.904,0.859,5.914,1.568,8.823,2.253c1.181,0.278,2.359,0.556,3.536,0.844
		c0.453,0.11,0.688,0.036,0.772-0.328c0.021-0.088,0.009-0.161-0.036-0.233c-0.093-0.148-0.317-0.272-0.614-0.34
		c-0.743-0.168-1.487-0.33-2.231-0.492c-1.815-0.396-3.693-0.807-5.522-1.284c-4.901-1.284-9.882-2.929-14.799-4.886
		c-8.455-3.367-16.642-7.853-24.331-13.332c-6.699-4.774-12.939-10.308-18.547-16.442c-5.178-5.664-9.512-11.351-13.25-17.384
		c-6.417-10.354-11.18-21.305-14.158-32.555c-0.713-2.694-1.265-5.153-1.687-7.518c-0.583-3.277-1.058-6.537-1.587-10.423
		l-0.111-0.773c-0.254-1.722-0.518-3.502,0.047-5.311c0.533-1.716,1.324-3.007,2.417-3.947c1.977-1.702,4.038-2.409,6.408-2.138
		c3.151,0.361,5.454,1.986,6.839,4.834c0.509,1.048,0.643,2.17,0.771,3.255c0.027,0.228,0.055,0.455,0.085,0.683
		c0.111,0.828,0.22,1.658,0.325,2.489c0.351,2.714,0.711,5.521,1.249,8.237c0.966,4.884,2.347,9.835,4.101,14.716
		c2.949,8.205,6.551,15.362,11.008,21.88c2.741,4.008,6.465,9.202,10.968,13.838c6.093,6.271,12.329,11.432,19.066,15.773
		c4.617,2.976,9.753,5.658,15.697,8.203c4.304,1.843,8.981,3.406,13.905,4.647l0.723,0.183c0.94,0.237,1.883,0.477,2.827,0.688
		c0.295,0.065,0.402-0.147,0.435-0.33c0.03-0.173,0.02-0.383-0.346-0.479c-0.632-0.168-1.264-0.336-1.898-0.49
		c-5.852-1.406-11.058-3.111-15.916-5.215c-7.656-3.314-14.884-7.51-21.48-12.469c-7.275-5.469-13.791-11.971-19.361-19.322
		c-3.474-4.586-6.54-9.371-9.118-14.227c-4.558-8.578-7.894-18.063-9.915-28.189c-0.866-4.346-1.409-8.809-1.613-13.266
		c-0.202-4.466-0.351-10.345,0.314-16.224c0.593-5.241,1.555-10.538,2.859-15.743c1.441-5.759,3.563-11.527,6.483-17.635
		c3.751-7.844,8.609-15.332,14.441-22.256c5.009-5.948,10.787-11.248,17.664-16.201c8.773-6.32,17.549-10.876,26.822-13.928
		c5.113-1.683,9.685-2.865,13.975-3.615c2.065-0.363,4.174-0.671,6.213-0.969l1.986-0.292c2.533-0.378,4.601,0.071,6.407,1.381
		c2.369,1.716,3.586,4.024,3.617,6.861c0.047,4.212-3.144,7.791-7.421,8.325c-3.59,0.447-7.832,1.039-12.079,2.038
		c-4.788,1.127-9.622,2.778-14.366,4.909c-7.168,3.217-13.35,6.98-18.898,11.506c-4.248,3.464-7.816,6.931-10.909,10.598
		c-4.05,4.804-6.839,8.701-9.042,12.64c-2.934,5.243-4.891,9.41-6.346,13.511c-1.664,4.691-2.828,8.886-3.561,12.821
		c-0.314,1.698-0.567,3.44-0.813,5.125c-0.103,0.704-0.204,1.407-0.312,2.11c-0.094,0.612,0.062,0.672,0.319,0.718
		c0.041,0.007,0.08,0.012,0.117,0.012c0.095,0,0.292,0,0.391-0.673c0.108-0.736,0.203-1.477,0.294-2.214
		c0.522-4.238,1.518-8.744,3.038-13.774c1.46-4.822,3.487-9.663,6.027-14.391c2.552-4.752,5.412-9.104,8.5-12.935
		c4.475-5.552,9.713-10.586,15.569-14.963c3.876-2.896,7.931-5.414,12.053-7.486c7.002-3.521,14.115-5.984,21.145-7.322
		c4.17-0.793,7.901-1.305,11.409-1.563c6.688-0.488,13.682-0.058,20.803,1.286c5.55,1.047,10.56,2.489,15.313,4.41
		c6.275,2.538,11.646,5.394,16.414,8.729c6.838,4.785,12.275,9.662,16.627,14.912c4.52,5.453,7.808,10.262,10.348,15.13
		c3.278,6.287,5.691,12.693,7.171,19.043c0.478,2.046,0.859,4.146,1.229,6.176c0.177,0.968,0.353,1.937,0.539,2.901
		c0.443,2.293,0.269,4.155-0.555,5.859c-1.277,2.646-3.404,4.234-6.322,4.721c-0.519,0.086-1.062,0.119-1.603,0.103
		c0.005,0.286,0.009,0.571,0.011,0.858C928.406,192.383,928.571,192.378,928.735,192.378z"/>

</svg>
