<?xml version="1.0" encoding="utf-8"?>
<!-- Generator: Adobe Illustrator 16.0.0, SVG Export Plug-In . SVG Version: 6.00 Build 0)  -->
<!DOCTYPE svg PUBLIC "-//W3C//DTD SVG 1.1//EN" "http://www.w3.org/Graphics/SVG/1.1/DTD/svg11.dtd">
<svg version="1.1" id="Layer_1" xmlns="http://www.w3.org/2000/svg" xmlns:xlink="http://www.w3.org/1999/xlink" x="0px" y="0px"
	 width="267.606px" height="267.596px"
	 xml:space="preserve">
	<path stroke="#231F20" stroke-miterlimit="10" d="M169.586,315.599c-0.309,0-0.613-0.004-0.917-0.021l-0.176-0.011l-0.129-0.16
		c-0.099-0.135-0.203-0.465-0.146-0.696c0.379-1.589-0.204-2.733-1.689-3.313c-0.022-0.008-0.076-0.017-0.118-0.021
		c-0.115-0.016-0.259-0.035-0.397-0.121c-0.213-0.133-0.395-0.34-0.483-0.555c-0.075-0.18-0.061-0.355-0.049-0.499
		c0.003-0.039,0.007-0.079,0.007-0.117v-1.265l0.344-0.029c1.223-0.102,4.012,0.012,6.115,0.1c1.071,0.045,1.983,0.084,2.458,0.084
		l0.168-0.004c4.668-0.158,8.577-0.396,12.486-1.027c1.015-0.164,2.033-0.315,3.051-0.467c2.413-0.359,4.908-0.731,7.314-1.275
		c4.342-0.98,8.623-2.204,11.867-3.159c5.592-1.647,11.081-3.758,16.314-6.271c6.193-2.975,10.792-5.547,14.91-8.347
		c3.941-2.677,7.648-5.521,10.753-7.946c5.848-4.569,11.393-10.041,17.449-17.216c5.074-6.014,9.688-12.711,13.713-19.905
		c2.425-4.338,4.645-9.021,6.786-14.316c1.861-4.604,3.462-9.423,4.759-14.322c1.096-4.143,2.014-8.591,2.888-13.999
		c0.787-4.872,1.226-9.819,1.305-14.702c0.063-3.867,0.102-7.99-0.171-12.14c-0.264-4.024-0.823-8.104-1.364-12.049l-0.057-0.416
		c-0.779-5.683-2.125-11.537-3.999-17.401c-1.139-3.567-2.526-7.287-4.499-12.06c-3.051-7.381-7.067-14.729-11.938-21.844
		c-3.906-5.707-8.495-11.352-13.637-16.777c-5.557-5.861-11.842-11.189-19.213-16.29c-6.999-4.843-14.727-9.025-23.625-12.787
		c-4.769-2.017-9.888-3.731-15.648-5.244c-3.7-0.972-7.07-1.745-10.303-2.362c-3.392-0.647-9.134-1.424-11.816-1.598
		c-0.545-0.034-1.18-0.08-1.814-0.175c-1.427-0.218-3.009-0.314-5.132-0.314c-0.839,0-1.677,0.015-2.503,0.029
		c-1.072,0.019-2.126,0.036-3.142,0.022c-0.53,0-8.242,0.373-9.294,0.502l-1.761,0.214c-2.672,0.321-5.435,0.654-8.128,1.099
		c-2.916,0.48-5.806,1.116-8.757,1.78c-5.521,1.242-10.834,2.857-15.792,4.8c-5.261,2.061-10.368,4.433-15.179,7.049
		c-4.476,2.434-8.813,5.129-12.892,8.013c-3.862,2.732-7.706,5.843-11.75,9.509c-5.829,5.285-11.217,11.147-16.016,17.425
		c-4.69,6.133-8.994,13.15-12.792,20.86c-3.128,6.346-5.311,11.702-6.869,16.858c-1.439,4.77-2.734,9.921-3.848,15.313
		c-0.689,3.333-1.09,6.793-1.478,10.139l-0.235,2.007c-0.8,6.692-0.627,13.515-0.353,19.306c0.23,4.871,0.672,8.779,1.389,12.298
		c0.25,1.224,0.483,2.45,0.717,3.678c0.445,2.336,0.905,4.752,1.472,7.097c1.092,4.518,2.545,9.189,4.443,14.285
		c2.327,6.249,5.382,12.592,9.341,19.387c4.211,7.228,9.19,14.084,14.799,20.379c4.526,5.078,9.618,9.892,15.565,14.715
		c6.172,5.006,13.251,9.533,21.64,13.842c6.472,3.322,13.377,6.117,20.523,8.305c5.609,1.717,9.969,2.772,14.137,3.428
		c2.646,0.416,4.941-0.5,6.758-2.694c1.637-1.978,2.146-4.245,1.51-6.74c-0.505-1.983-1.663-3.517-3.538-4.685
		c-1.121-0.699-2.353-0.937-3.658-1.187c-0.354-0.067-0.708-0.137-1.061-0.214c-5.815-1.279-11.014-2.786-15.895-4.605
		c-8.888-3.313-16.634-7.272-23.684-12.109c-5.045-3.461-9.844-7.303-14.265-11.416c-6.417-5.969-12.074-12.764-17.296-20.771
		c-3.592-5.511-6.682-11.437-9.447-18.112c-2.383-5.759-4.213-11.5-5.44-17.064c-0.812-3.679-1.445-7.42-1.975-10.638
		c-0.218-1.331-0.338-2.693-0.454-4.012c-0.053-0.608-0.107-1.219-0.17-1.824c-0.112-1.087,0.633-1.301,0.959-1.342
		c0.798-0.105,1.27,0.336,1.332,1.15c0.024,0.307,0.044,0.614,0.064,0.922c0.053,0.803,0.108,1.633,0.232,2.436
		c0.117,0.753,0.224,1.509,0.331,2.267c0.266,1.886,0.541,3.834,0.978,5.704c0.244,1.041,0.48,2.086,0.717,3.131
		c0.826,3.641,1.679,7.406,2.842,10.996c3.021,9.327,7.49,18.419,13.283,27.021c5.97,8.867,13.241,16.813,21.61,23.621
		c5.753,4.68,11.896,8.764,18.26,12.139c5.249,2.783,10.852,5.128,16.652,6.97c1.802,0.571,3.66,1.08,5.457,1.572
		c1.404,0.385,2.808,0.771,4.202,1.187c1.586,0.476,2.968,0.549,4.223,0.228c2.528-0.65,4.241-2.011,5.236-4.157
		c0.941-2.035,1-4.049,0.177-6.156c-0.97-2.481-2.905-4.029-5.915-4.73c-1.862-0.434-6.307-1.725-6.352-1.737
		c-4.804-1.399-9.45-3.183-13.809-5.299c-4.153-2.017-8.358-4.502-12.856-7.599c-8.349-5.75-15.551-12.655-21.406-20.523
		c-6-8.063-10.342-16.035-13.273-24.369c-1.809-5.143-3.132-9.957-4.044-14.718c-1.443-7.528-1.954-15.029-1.518-22.295
		c0.245-4.089,0.633-7.725,1.188-11.116c0.529-3.236,1.299-6.628,2.352-10.371c3.085-10.97,8.214-21.269,15.245-30.609
		c4.722-6.274,10.3-11.976,17.054-17.429c5.521-4.459,11.872-8.329,19.417-11.831c4.9-2.273,10.028-4.066,15.243-5.329
		c3.232-0.783,6.478-1.413,9.524-1.991c1.353-0.257,2.742-0.414,4.085-0.567l1.349-0.156l0.117,0.246
		c0.192,0.412,0.443,0.799,0.745,1.149l0.179,0.208l-0.144,0.233c-0.186,0.302-0.521,0.506-0.943,0.576
		c-0.417,0.068-0.836,0.114-1.255,0.161c-0.371,0.04-0.741,0.081-1.11,0.138c-0.768,0.119-1.537,0.23-2.306,0.342
		c-1.908,0.277-3.88,0.563-5.79,0.961c-5.7,1.187-11.483,3.027-17.188,5.472c-6.438,2.756-12.524,6.259-18.088,10.41
		c-6.542,4.882-12.366,10.473-17.31,16.618c-4.441,5.521-8.276,11.675-11.396,18.292c-2.513,5.327-4.526,10.955-5.982,16.728
		c-1.044,4.143-1.661,8.456-2.206,12.262c-0.477,3.336,0.713,5.979,3.537,7.854c1.595,1.059,3.476,1.396,5.456,0.975
		c2.89-0.613,4.827-2.365,5.755-5.207c0.321-0.982,0.458-2.063,0.592-3.108c0.042-0.325,0.083-0.649,0.129-0.972
		c0.717-4.96,1.893-9.865,3.495-14.581c2.525-7.427,6.249-14.395,11.383-21.3c4.049-5.446,9.122-10.459,15.078-14.898
		c5.482-4.085,11.354-7.388,17.453-9.817c3.994-1.59,8.094-2.85,12.188-3.744c6.437-1.407,13.269-1.949,20.375-1.621
		c4.323,0.2,8.677,0.812,13.31,1.866c7.869,1.79,15.511,4.92,22.714,9.302c6.117,3.72,11.612,8.23,16.332,13.405
		c4.307,4.72,8.066,10.038,11.174,15.808c2.971,5.517,5.068,10.823,6.411,16.224c0.629,2.531,1.102,5.139,1.559,7.661
		c0.199,1.095,0.397,2.189,0.608,3.28c0.083,0.434-0.039,0.729-0.156,0.898c-0.171,0.249-0.448,0.414-0.801,0.477
		c-0.735,0.132-1.257-0.301-1.341-1.018c-0.677-5.704-2.025-11.333-4.008-16.731c-2.059-5.604-4.738-10.915-7.963-15.783
		c-3.616-5.458-8.098-10.48-13.702-15.356c-3.886-3.382-8.242-6.391-12.944-8.944c-4.27-2.315-9.023-4.247-14.127-5.738
		c-3.774-1.104-7.55-1.93-11.223-2.454c-3.021-0.43-5.858,0.871-7.502,3.451c-1.566,2.458-1.688,5.006-0.362,7.573
		c1.201,2.327,3.133,3.693,5.743,4.061c7.094,0.993,13.871,3.17,20.145,6.471c4.112,2.165,8.023,4.952,11.958,8.521
		c5.149,4.672,9.379,10.207,12.572,16.45c2.754,5.387,4.528,10.412,5.423,15.364c0.672,3.721,1.285,7.712,1.214,11.688
		c-0.046,2.651-0.306,5.255-0.526,7.227c-0.423,3.778-1.773,9.592-3.01,12.957c-2.082,5.668-4.943,10.921-8.503,15.612
		c-2.644,3.483-5.278,6.349-8.051,8.758c-3.083,2.676-6.576,5.101-10.384,7.206c-3.72,2.057-7.643,3.74-11.66,5.006
		c-0.925,0.292-1.879,0.52-2.802,0.738l-0.511,0.121c-0.799,0.191-1.403-0.146-1.572-0.864c-0.078-0.334-0.14-1.138,0.973-1.411
		c8.321-2.046,15.961-5.816,22.706-11.209c4.629-3.7,8.7-8.286,12.101-13.629c3.145-4.941,5.326-9.82,6.666-14.912
		c0.567-2.154,1.061-4.104,1.362-6.121c0.229-1.521-0.076-2.958-0.879-4.156c-0.477-0.711-1.004-1.449-1.628-2.021
		c-1.885-1.727-4.136-2.342-6.643-1.82c-2.793,0.583-4.705,2.311-5.682,5.135c-0.356,1.03-0.607,2.127-0.849,3.188
		c-0.173,0.761-0.353,1.548-0.572,2.313c-1.452,5.084-3.982,9.867-7.52,14.217c-3.815,4.688-8.487,8.384-13.886,10.982
		c-1.41,0.68-2.879,1.287-4.299,1.874l-0.136,0.058c-0.74,0.306-1.428,0.026-1.673-0.68c-0.237-0.686,0.07-1.271,0.801-1.529
		c3.01-1.064,6.015-2.584,8.93-4.518c4.733-3.137,8.649-7.258,11.639-12.249c2.042-3.409,3.541-6.966,4.457-10.569
		c1.053-4.147,1.37-8.547,0.968-13.446c-0.385-4.708-1.742-9.301-4.148-14.042c-2.512-4.954-6.075-9.275-10.591-12.844
		c-3.623-2.861-7.674-5.028-12.042-6.441c-0.924-0.299-1.882-0.557-2.81-0.807l-0.7-0.189c-0.985-0.267-1.023-0.947-0.959-1.329
		c0.124-0.743,0.749-1.135,1.521-0.937c4.563,1.182,8.125,2.562,11.211,4.342c5.319,3.067,9.852,7.172,13.472,12.199
		c3.167,4.396,5.354,9.417,6.686,15.351c0.361,1.604,0.734,3.265,1.911,4.596c1.429,1.613,3.017,2.497,4.853,2.7
		c3.022,0.336,5.47-0.755,7.261-3.233c1.303-1.804,1.687-3.805,1.141-5.946l-0.442-1.759c-0.616-2.464-1.252-5.013-2.075-7.443
		c-1.374-4.056-3.475-7.74-5.35-10.809c-2.38-3.896-5.568-7.646-10.032-11.804c-3.17-2.953-6.811-5.537-10.82-7.68
		c-4.174-2.229-8.101-3.802-12.003-4.809c-3.547-0.914-7.083-1.519-10.51-1.796c-4.085-0.33-8.17-0.219-12.135,0.327
		c-9.564,1.322-18.44,4.973-26.381,10.851c-5.911,4.374-10.823,9.824-14.602,16.2c-3.246,5.478-5.423,10.904-6.655,16.591
		c-0.158,0.727-0.303,1.455-0.448,2.183c-0.121,0.604-0.241,1.208-0.368,1.81c-0.138,0.652-0.662,1.019-1.337,0.907
		c-0.683-0.117-1.032-0.628-0.934-1.367c0.385-2.895,1.025-5.723,1.9-8.406c2.212-6.785,5.129-12.573,8.916-17.694
		c2.996-4.052,6.548-7.7,10.859-11.155c4.447-3.563,9.47-6.466,14.93-8.63c4.725-1.873,9.081-3.039,13.316-3.563
		c2.79-0.347,4.705-1.449,6.027-3.468c0.545-0.833,0.931-1.808,1.114-2.819c0.447-2.457-0.209-4.674-1.95-6.587
		c-1.403-1.54-3.096-2.354-4.893-2.354l-0.153,0.002c-1.791,0.044-3.581,0.336-5.26,0.631c-4.658,0.815-9.221,2.11-13.563,3.85
		c-4.175,1.675-8.099,3.636-11.662,5.828c-8.038,4.948-14.877,11.123-20.328,18.354c-5.12,6.793-9.012,14.24-11.57,22.135
		c-1.226,3.784-2.091,7.256-2.645,10.616c-0.993,6.014-1.28,11.938-0.855,17.604c0.557,7.416,2.196,14.692,4.873,21.629
		c2.536,6.571,6.18,12.955,10.833,18.97c3.241,4.189,7.063,8.046,11.685,11.788c5.505,4.458,11.32,8.005,17.283,10.543
		c1.833,0.78,3.68,1.478,5.489,2.072c2.143,0.707,4.267,0.346,6.322-1.06c1.695-1.16,2.762-2.767,3.17-4.772
		c0.315-1.541,0.117-3.117-0.59-4.685c-0.897-1.988-2.501-3.328-5.201-4.347c-7.86-2.96-14.746-7.243-20.466-12.731
		c-3.591-3.444-6.484-6.933-8.845-10.662c-2.448-3.868-4.453-7.926-5.958-12.055c-1.394-3.824-2.305-7.42-2.785-10.99
		c-0.094-0.697,0.244-1.189,0.904-1.315c0.742-0.142,1.266,0.235,1.379,0.942c1.008,6.309,3.032,12.353,6.016,17.966
		c4.348,8.18,10.373,14.929,17.908,20.061c2.674,1.821,5.114,3.415,7.883,4.479c1.442,0.551,2.994,0.552,4.6-0.002
		c1.755-0.604,3.045-1.551,3.944-2.896c1.313-1.967,1.67-4.109,1.061-6.367c-0.589-2.18-1.953-3.797-4.172-4.943
		c-5.246-2.717-9.741-6.35-13.361-10.801c-2.915-3.584-5.236-7.734-6.896-12.336c-2.044-5.66-2.718-11.768-2.06-18.669
		c0.248-2.607,0.803-5.203,1.648-7.714c1.681-4.983,3.823-9.1,6.549-12.584c4.134-5.282,9.278-9.432,15.291-12.332
		c2.665-1.285,5.436-2.095,8.521-2.947c0.699-0.194,1.29,0.132,1.477,0.788c0.085,0.3,0.043,0.616-0.117,0.894
		c-0.173,0.3-0.467,0.521-0.807,0.606c-4.888,1.231-9.005,2.957-12.586,5.275c-4.414,2.861-8.173,6.555-11.172,10.978
		c-3.167,4.675-5.25,9.818-6.191,15.289c-0.67,3.897-0.756,7.733-0.256,11.401c1.049,7.682,3.979,14.477,8.709,20.197
		c2.977,3.603,6.593,6.621,10.749,8.972c1.55,0.877,3.232,1.604,4.858,2.306c0.522,0.227,1.044,0.451,1.563,0.683
		c0.636,0.282,0.92,0.7,0.92,1.358c-0.004,8.979-0.004,17.959-0.004,26.938v8.929c0,1.268-0.868,1.404-1.241,1.404
		c-0.177,0-0.376-0.025-0.591-0.078c-0.662-0.159-1.326-0.314-1.99-0.472c-2.127-0.5-4.327-1.019-6.458-1.653
		c-7.381-2.206-14.449-5.57-21.009-10.005c-5.003-3.381-9.747-7.613-14.501-12.94c-3.776-4.23-7.124-9.088-9.949-14.434
		c-2.965-5.611-4.888-10.466-6.051-15.277c-0.724-2.992-1.35-6.057-1.956-9.021l-0.331-1.615c-0.12-0.585-0.188-1.183-0.253-1.759
		c-0.056-0.494-0.111-0.988-0.2-1.477c-0.422-2.332-2.964-4.858-5.438-5.406c-1.689-0.375-3.229-0.274-4.715,0.31
		c-1.243,0.486-2.299,1.292-3.139,2.394c-0.738,0.967-1.502,2.142-1.579,3.528c-0.062,1.121-0.013,2.317,0.148,3.658
		c1.068,8.897,3.576,17.808,7.452,26.479c2.872,6.424,6.623,12.656,11.148,18.525c4.5,5.837,9.762,11.156,15.638,15.809
		c6.182,4.896,12.938,8.955,20.081,12.066c5.769,2.514,11.244,4.325,16.737,5.537c2.034,0.448,4.126,0.816,6.149,1.172l0.914,0.161
		c0.767,0.135,1.139,0.589,1.138,1.392c-0.004,3.744-0.003,7.488-0.003,11.233v6.915c0,5.792-0.001,11.584,0.008,17.376
		c0.001,0.291-0.017,0.594-0.235,0.813c-0.215,0.215-0.527,0.24-0.743,0.24c-0.608,0-1.233,0.35-1.689,0.937
		c-0.477,0.612-0.677,1.372-0.522,1.985c0.058,0.229,0.102,0.519-0.07,0.737c-0.085,0.108-0.337,0.294-0.813,0.146l-1.57-0.192
		l0.191-0.733c0.058-0.215,0.116-0.43,0.163-0.646c0.223-1.027-0.212-2.201-1.012-2.73c-0.814-0.539-2.275-0.541-3.042-0.002
		c-0.818,0.576-1.157,1.395-1.066,2.576c0.02,0.257-0.18,0.488-0.221,0.531l-0.111,0.121l-0.239,0.051
		c-0.465-0.053-0.881-0.125-1.277-0.193l-0.711-0.123l0.128-0.41c0.05-0.157,0.104-0.313,0.159-0.471
		c0.115-0.33,0.224-0.641,0.277-0.953c0.215-1.259-0.721-2.568-2.004-2.805c-0.951-0.177-1.814,0.07-2.39,0.652
		c-0.478,0.484-0.736,1.186-0.726,1.975c0.003,0.241-0.018,0.544-0.212,0.74c-0.128,0.129-0.418,0.264-0.917,0.055
		c-0.032-0.014-0.096-0.021-0.158-0.029l-0.126-0.02c-0.511-0.08-0.792-0.123-0.938-0.393c-0.145-0.266-0.031-0.521,0.158-0.944
		l0.061-0.138c0.317-0.719,0.298-1.528-0.052-2.224c-0.35-0.692-0.986-1.175-1.792-1.354c-1.661-0.373-3.067,0.816-3.104,2.574
		c-0.001,0.1-0.009,0.198-0.017,0.312l-0.041,0.665l-0.833-0.255c-0.394-0.119-0.775-0.235-1.148-0.37
		c-0.131-0.045-0.23-0.154-0.289-0.325c-0.035-0.103-0.102-0.36,0.029-0.562c0.561-0.854,0.664-1.824,0.282-2.664
		c-0.368-0.809-1.132-1.35-2.098-1.481c-1.313-0.171-2.783,0.744-2.816,2.4c-0.014,0.712-0.391,0.817-0.615,0.817
		c-0.127,0-0.263-0.033-0.456-0.111c-0.258-0.104-0.523-0.191-0.795-0.283l-0.879-0.305l0.292-0.406
		c1.048-1.461,1.075-2.395,0.104-3.694c-0.493-0.663-1.694-1.021-2.599-0.766c-1.149,0.325-1.812,1.132-1.917,2.331
		c-0.03,0.339-0.313,0.604-0.643,0.604l-0.206-0.035c-0.365-0.127-0.746-0.3-1.166-0.529c-0.16-0.088-0.27-0.24-0.3-0.42
		c-0.032-0.187,0.023-0.373,0.15-0.516c0.638-0.716,0.839-1.636,0.55-2.521c-0.295-0.905-1.04-1.569-1.991-1.775
		c-1.379-0.293-2.941,0.856-3.055,2.209c-0.029,0.296-0.312,0.429-0.499,0.517l-0.201,0.051c-0.133,0-0.234-0.063-0.301-0.104
		l-1.591-0.765l0.483-0.667c0.154-0.209,0.309-0.417,0.447-0.637c0.399-0.633,0.42-1.492,0.054-2.299
		c-0.36-0.793-1.007-1.336-1.73-1.449c-1.644-0.252-2.73,0.455-3.18,2.133c-0.062,0.224-0.346,0.495-0.591,0.495l-0.176-0.041
		c-0.443-0.222-0.871-0.46-1.271-0.71l-0.157-0.1l-0.034-0.229c-0.01-0.105,0.003-0.419,0.187-0.598
		c0.644-0.629,0.971-1.383,0.922-2.129c-0.048-0.732-0.458-1.424-1.156-1.943c-0.457-0.344-0.982-0.523-1.519-0.523
		c-1.164,0-2.195,0.836-2.506,2.029c-0.097,0.377-0.286,0.568-0.561,0.568c-0.179,0-0.327-0.092-0.459-0.189l0.105-0.372
		l-0.207,0.313l-1.305-0.864l0.487-0.603c0.149-0.184,0.298-0.365,0.44-0.553c0.631-0.833,0.658-2.34,0.055-3.041
		c-0.936-1.087-2-1.38-3.199-0.88c-0.663,0.276-1.103,0.767-1.471,1.638c-0.125,0.297-0.518,0.407-0.736,0.407
		c-0.216-0.002-0.369-0.123-0.479-0.212c-0.574-0.384-0.877-0.582-0.909-0.932c-0.031-0.352,0.244-0.609,0.624-0.969
		c0.855-0.804,0.93-2.358,0.159-3.328c-0.663-0.836-1.521-1.178-2.521-0.996c-0.946,0.171-1.593,0.697-1.92,1.565
		c-0.045,0.119-0.109,0.23-0.179,0.349l-0.276,0.498l-0.441-0.297c-0.077-0.05-0.147-0.097-0.213-0.147
		c-0.338-0.269-0.672-0.537-1.006-0.808l-0.325-0.263l0.564-0.557c0.193-0.187,0.388-0.37,0.558-0.575
		c0.497-0.602,0.711-1.335,0.603-2.068c-0.106-0.719-0.519-1.363-1.134-1.771c-0.953-0.635-1.932-0.645-2.905-0.043
		c-0.312,0.193-0.559,0.599-0.796,0.99l-0.111,0.181c-0.139,0.226-0.292,0.472-0.604,0.472c-0.221,0-0.389-0.138-0.497-0.242
		l-0.105-0.091c-0.052-0.043-0.103-0.086-0.15-0.133l-1.068-1.074l0.604-0.442c0.174-0.123,0.349-0.242,0.501-0.389
		c0.719-0.686,1.002-1.408,0.866-2.21c-0.216-1.268-0.915-2.028-2.077-2.261c-1.277-0.259-2.204,0.204-2.834,1.414
		c-0.063,0.12-0.229,0.439-0.577,0.439c-0.239,0-0.412-0.16-0.522-0.279c-0.201-0.221-0.41-0.434-0.62-0.646l-0.546-0.561
		l0.588-0.502c0.194-0.163,0.389-0.325,0.572-0.501c0.885-0.843,1.116-1.903,0.652-2.989c-0.408-0.953-1.497-1.632-2.578-1.557
		c-0.605,0.041-1.43,0.273-1.927,1.146c-0.15,0.266-0.37,0.569-0.729,0.569c-0.322,0-0.546-0.252-0.706-0.472
		c-0.139-0.19-0.294-0.371-0.449-0.553l-0.489-0.583l0.604-0.405c0.197-0.131,0.394-0.261,0.585-0.398
		c0.848-0.609,1.182-1.471,0.995-2.559c-0.157-0.907-0.715-1.557-1.704-1.981c-0.982-0.423-2.49,0.123-3.081,1.087
		c-0.124,0.2-0.371,0.242-0.557,0.242c-0.206,0-0.361-0.059-0.461-0.17c-0.25-0.275-0.476-0.575-0.651-0.809l-0.348-0.455
		l0.251-0.232c0.203-0.188,0.411-0.364,0.616-0.537c0.42-0.355,0.817-0.691,1.102-1.084c0.712-0.984,0.279-2.003-0.042-2.521
		c-0.532-0.86-1.186-1.269-2.057-1.281c-0.001,0-0.002,0-0.003,0c-1.094,0-1.772,0.342-2.276,1.105
		c-0.149,0.227-0.48,0.276-0.595,0.276h-0.185l-0.157-0.158c-0.269-0.339-0.524-0.694-0.732-0.983l-0.355-0.492l0.287-0.221
		c0.208-0.162,0.422-0.311,0.632-0.453c0.411-0.283,0.799-0.552,1.064-0.883c1.001-1.255,0.496-2.738-0.521-3.557
		c-1.079-0.872-2.673-0.68-3.599,0.419c-0.097,0.116-0.279,0.332-0.545,0.332c-0.334,0-0.489-0.32-0.54-0.426l0.271-0.282
		l-0.318,0.198l-0.914-1.466l0.757-0.28c0.259-0.095,0.519-0.188,0.772-0.298c0.619-0.262,1.274-1.451,1.23-2.232
		c-0.094-1.665-1.247-2.742-2.833-2.584c-0.446,0.044-0.927,0.365-1.392,0.676l-0.402,0.266c-0.134,0.091-0.272,0.184-0.455,0.184
		c-0.362,0-0.513-0.348-0.57-0.479c-0.118-0.271-0.262-0.528-0.412-0.799l-0.462-0.858l0.497-0.097
		c1.655-0.322,2.431-1.176,2.444-2.684c0.01-1.091-0.524-1.882-1.588-2.352c-1.106-0.489-2.123-0.223-3.09,0.804l-0.369,0.392
		l-0.405-0.81c-0.187-0.368-0.368-0.728-0.52-1.099l-0.068-0.166l0.099-0.203c0.076-0.139,0.33-0.415,0.601-0.467
		c0.727-0.131,1.338-0.533,1.724-1.136c0.387-0.603,0.507-1.342,0.33-2.028c-0.309-1.193-1.31-1.996-2.491-1.996
		c-0.645,0-1.258,0.236-1.775,0.683c-0.299,0.261-0.792,0.327-1.016-0.2c-0.022-0.051-0.048-0.105-0.076-0.16
		c-0.321-0.635-0.48-0.949-0.341-1.281c0.136-0.324,0.468-0.43,1.07-0.621c1.08-0.342,1.708-1.076,1.838-2.131
		c0.135-1.094-0.299-1.984-1.255-2.577c-0.813-0.503-1.94-0.464-2.788,0.089c-0.112,0.072-0.22,0.148-0.354,0.24l-0.551,0.384
		l-0.283-0.779c-0.144-0.393-0.285-0.776-0.399-1.167l-0.051-0.173l0.132-0.224c0.082-0.115,0.301-0.34,0.55-0.357
		c1.458-0.105,2.506-1.1,2.547-2.414c0.025-0.781-0.24-1.5-0.746-2.021c-0.697-0.719-1.767-0.951-2.792-0.584
		c-0.049,0.019-0.101,0.033-0.153,0.048c-0.051,0.015-0.128,0.036-0.15,0.051c-0.271,0.269-0.497,0.392-0.726,0.392
		c-0.498,0-0.625-0.513-0.71-0.851l-0.028-0.111c-0.031-0.114-0.065-0.231-0.11-0.346c-0.09-0.229-0.188-0.563-0.001-0.838
		c0.186-0.272,0.521-0.306,0.757-0.306l0.118,0.377v-0.375c1.003,0,1.831-0.574,2.213-1.537c0.384-0.963,0.142-2.195-0.563-2.866
		c-0.955-0.904-2.115-1.011-3.238-0.298c-0.072,0.046-0.148,0.086-0.229,0.129l-0.508,0.273l-0.661-2.539l0.867-0.123
		c0.315-0.041,0.63-0.084,0.939-0.148c0.919-0.196,1.665-1.047,1.813-2.068c0.117-0.812-0.087-1.568-0.575-2.134
		c-0.648-0.75-1.74-1.06-2.783-0.776c-0.209,0.058-0.417,0.121-0.625,0.186l-0.628,0.189l-0.093-0.386
		c-0.025-0.101-0.046-0.202-0.067-0.307c-0.04-0.192-0.078-0.386-0.147-0.566c-0.098-0.254-0.204-0.625-0.002-0.919
		c0.21-0.306,0.606-0.306,0.737-0.306c0.061,0,0.126,0.002,0.197,0.008c0.089,0.008,0.177,0.011,0.262,0.011c0,0,0,0,0.001,0
		c1.597,0,2.374-1.216,2.437-2.422c0.039-0.752-0.204-1.445-0.684-1.951c-0.602-0.634-1.519-0.893-2.477-0.701
		c-0.193,0.039-0.381,0.104-0.588,0.177l-0.758,0.247l-0.104-0.641c-0.074-0.451-0.15-0.912-0.206-1.373l-0.021-0.17l0.117-0.134
		c0.12-0.135,0.413-0.233,0.595-0.233l0.095,0.008c1.101,0.191,2.329-0.373,2.734-1.201c0.599-1.225,0.428-2.432-0.457-3.229
		c-0.876-0.789-1.825-0.949-2.86-0.488l-0.181,0.039c-0.152,0-0.309-0.072-0.507-0.235c-0.174-0.14-0.16-0.351-0.153-0.44
		l-0.086-1.681l0.411-0.024l0.363,0.019c0.26,0.014,0.52,0.026,0.78,0.03c1.079,0,1.854-0.516,2.263-1.487
		c0.396-0.937,0.289-1.88-0.302-2.658c-0.706-0.93-1.781-1.254-2.913-0.886c-0.422,0.137-0.646,0.014-0.751-0.098
		c-0.159-0.17-0.168-0.396-0.156-0.595c0.007-0.112-0.002-0.233-0.01-0.353c-0.02-0.312-0.042-0.662,0.139-0.95
		c0.165-0.263,0.5-0.263,0.625-0.263c0.129,0,0.28,0.015,0.428,0.027c0.106,0.01,0.21,0.021,0.3,0.021c0.001,0,0.002,0,0.003,0
		c1.484,0,2.466-0.832,2.711-2.227c0.212-1.203-0.604-2.471-1.819-2.822c-0.428-0.125-1.138-0.055-1.54,0.013
		c-0.357,0.058-0.526,0.007-0.669-0.14c-0.17-0.174-0.164-0.414-0.161-0.542c0.004-0.167,0.018-0.334,0.033-0.5
		c0.055-0.595,0.102-1.104,0.741-1.104c0.121,0,0.285,0.021,0.508,0.054l0.117,0.018c1.523,0.211,2.832-0.775,3.006-2.253
		c0.18-1.519-0.841-2.763-2.427-2.957l-0.133-0.376l0.023,0.374l-1.451,0.096l0.046-0.686c0.027-0.419,0.055-0.838,0.114-1.253
		c0.053-0.373,0.51-0.373,0.682-0.373c0.141,0,0.255,0.018,0.349,0.055c1.052,0.414,2.403,0.009,2.993-0.88
		c0.634-0.956,0.664-1.969,0.089-3.012c-0.4-0.724-1.633-1.254-2.701-1.105c-0.003,0-0.006,0-0.009,0
		c-0.298,0-0.5-0.194-0.557-0.255c-0.121-0.128-0.178-0.262-0.17-0.399c0.02-0.35,0.07-0.698,0.121-1.047l0.102-0.734l0.797,0.176
		c0.261,0.057,0.521,0.113,0.782,0.174c1.309,0.3,2.517-0.414,2.935-1.729c0.42-1.318-0.209-2.739-1.403-3.166
		c-0.261-0.094-0.564-0.119-0.886-0.146c-0.205-0.018-0.411-0.035-0.611-0.068c-0.205-0.032-0.34-0.174-0.439-0.276
		c-0.211-0.208-0.166-0.417-0.149-0.495l0.312-1.71l0.408,0.134c0.124,0.04,0.246,0.084,0.369,0.128
		c0.231,0.083,0.462,0.167,0.7,0.22c0.223,0.05,0.449,0.075,0.673,0.075c1.183,0,2.486-0.747,2.549-2.387
		c0.068-1.776-0.851-2.727-2.73-2.824c-0.397-0.019-0.616-0.51-0.656-0.608c-0.084-0.212-0.017-0.416,0.032-0.565
		c0.203-0.707,0.32-1.122,0.814-1.122c0.204,0,0.409,0.087,0.749,0.231c0.927,0.394,1.963,0.269,2.67-0.295
		c0.813-0.649,1.122-1.484,0.942-2.554c-0.216-1.293-1.435-2.093-2.439-2.093l-0.104,0.002c-0.004,0-0.008,0-0.012,0
		c-0.342,0-0.535-0.088-0.648-0.261c-0.116-0.178-0.118-0.399-0.004-0.66c0.016-0.036,0.025-0.068,0.035-0.101l0.487-1.489
		l0.669,0.306c0.204,0.094,0.407,0.188,0.612,0.277c1.106,0.481,2.44,0.114,3.198-0.866c0.587-0.757,0.612-2.217,0.051-3.005
		c-0.487-0.688-1.181-1.063-2.061-1.122c-0.232-0.015-0.431-0.129-0.544-0.313c-0.113-0.184-0.125-0.414-0.032-0.63
		c0.106-0.25,0.193-0.511,0.281-0.771l0.261-0.748l0.68,0.327c0.208,0.104,0.417,0.207,0.632,0.294
		c1.546,0.62,3.08-0.011,3.634-1.502c0.301-0.809,0.253-1.598-0.133-2.222c-0.423-0.682-1.229-1.132-2.212-1.235
		c-0.043-0.004-0.091-0.013-0.151-0.023l-0.579-0.093l0.298-0.676c0.19-0.43,0.375-0.851,0.577-1.263l0.103-0.211l0.254-0.005
		c0.133,0,0.412,0.068,0.569,0.19c1.122,0.854,2.223,0.908,3.31,0.149c0.772-0.54,1.133-1.361,1.042-2.374
		c-0.087-0.971-0.604-1.671-1.537-2.079l-0.111-0.052c-0.068-0.032-0.181-0.085-0.222-0.086c-0.067,0.006-0.131,0.008-0.188,0.008
		c-0.122,0-0.493,0-0.667-0.293c-0.175-0.293-0.005-0.61,0.12-0.842l0.757-1.477l0.961,0.669c0.487,0.336,1.051,0.514,1.632,0.514
		c0.984,0,1.843-0.502,2.297-1.344c0.378-0.699,0.381-1.536,0.007-2.295c-0.387-0.785-1.094-1.349-1.847-1.47
		c-0.146-0.025-0.261-0.118-0.345-0.275c-0.052-0.097-0.161-0.345-0.063-0.566c0.074-0.168,0.166-0.329,0.258-0.49
		c0.087-0.151,0.174-0.303,0.241-0.463c0.138-0.337,0.338-0.508,0.592-0.508c0.284,0,0.479,0.231,0.597,0.37
		c0.452,0.536,1.111,0.831,1.855,0.831c0.837,0,1.619-0.38,2.093-1.015c0.524-0.703,0.676-1.571,0.417-2.383
		c-0.251-0.784-0.843-1.378-1.626-1.629c-0.124-0.041-0.243-0.091-0.375-0.147l-0.616-0.252l0.39-0.594
		c0.244-0.372,0.484-0.738,0.74-1.092l0.112-0.155l0.223-0.008c0.123,0,0.444,0.066,0.598,0.264
		c0.467,0.604,1.273,0.979,2.105,0.979c0.658,0,1.252-0.229,1.674-0.645c0.738-0.725,1.035-1.52,0.881-2.363
		c-0.185-1.013-0.739-1.682-1.646-1.988c-0.134-0.046-0.491-0.167-0.583-0.497c-0.083-0.295,0.093-0.551,0.233-0.718
		c0.188-0.225,0.354-0.468,0.488-0.663l0.365-0.514l0.301,0.201c0.215,0.144,0.421,0.295,0.624,0.443
		c0.421,0.308,0.818,0.599,1.243,0.781c0.832,0.359,1.696,0.148,2.469-0.581c0.571-0.54,1.161-1.442,0.731-2.68
		c-0.31-0.891-0.823-1.418-1.567-1.61c-0.162-0.043-0.46-0.121-0.536-0.412c-0.06-0.229,0.071-0.416,0.171-0.524l-0.122-0.208
		l0.234-0.26l1.115-0.855l0.504,0.47c0.182,0.174,0.363,0.349,0.56,0.502c1.37,1.063,3.055,0.858,3.947-0.479
		c0.435-0.652,0.555-1.414,0.338-2.143c-0.218-0.734-0.765-1.338-1.5-1.653c-0.246-0.102-0.279-0.369-0.299-0.529l-0.052-0.325
		l0.514-0.48l0.974-0.98l0.262,0.336c0.088,0.113,0.174,0.23,0.26,0.348c0.175,0.24,0.34,0.467,0.531,0.66
		c0.374,0.374,1.035,0.606,1.725,0.606c0.702,0,1.333-0.241,1.73-0.661c0.596-0.629,0.907-1.373,0.875-2.096
		c-0.029-0.664-0.342-1.279-0.905-1.779c-0.154-0.136-0.335-0.243-0.521-0.356c-0.1-0.061-0.202-0.123-0.303-0.189l-0.366-0.241
		l0.392-0.434c0.082-0.092,0.158-0.178,0.24-0.26c0.518-0.518,0.777-0.777,1.13-0.777c0.415,0,0.635,0.331,1.072,0.991
		c0.315,0.474,1.001,0.769,1.789,0.769c0.579,0,1.131-0.154,1.557-0.436c0.726-0.48,1.152-1.292,1.141-2.171
		c-0.012-0.915-0.492-1.735-1.316-2.249c-0.113-0.069-0.189-0.187-0.227-0.348c-0.013-0.057-0.072-0.348,0.065-0.566
		c0.118-0.185,0.279-0.31,0.421-0.421l0.102-0.082c0.163-0.135,0.33-0.265,0.45-0.357l0.361-0.282l0.235,0.248
		c0.169,0.179,0.33,0.358,0.488,0.536c0.335,0.374,0.652,0.729,1.005,1.023c0.4,0.334,0.897,0.404,1.244,0.404
		c0.618,0,1.285-0.226,1.661-0.562c1.048-0.937,1.315-2.263,0.664-3.299c-0.173-0.275-0.447-0.558-0.839-0.862
		c-0.1-0.077-0.368-0.285-0.356-0.597c0.012-0.305,0.276-0.477,0.388-0.551c0.054-0.035,0.102-0.076,0.15-0.117l0.085-0.071
		c0.44-0.353,0.649-0.521,0.92-0.521c0.369,0,0.543,0.294,0.807,0.737l0.083,0.14c0.47,0.784,1.293,1.252,2.201,1.252
		c0.689,0,1.357-0.278,1.881-0.783c0.519-0.5,0.781-1.183,0.74-1.923c-0.045-0.806-0.438-1.549-1.079-2.04
		c-0.156-0.118-0.244-0.301-0.242-0.501c0.002-0.198,0.099-0.386,0.257-0.501c0.294-0.214,0.605-0.401,0.901-0.579l0.612-0.374
		l0.194,0.329c0.092,0.155,0.179,0.314,0.265,0.474c0.181,0.334,0.352,0.648,0.568,0.917c0.439,0.544,1.12,0.855,1.867,0.855
		c0.721,0,1.405-0.293,1.876-0.805c1.514-1.641,0.513-3.12-0.219-3.855c-0.128-0.128-0.193-0.306-0.178-0.487
		c0.015-0.176,0.106-0.335,0.251-0.437c0.288-0.2,0.588-0.381,0.889-0.561l0.627-0.38l0.356,0.718
		c0.119,0.243,0.239,0.485,0.365,0.725c0.515,0.969,1.403,1.369,2.584,1.238c0.83-0.089,1.578-0.579,1.951-1.28
		c0.58-1.084,0.427-2.119-0.454-3.075c-0.122-0.133-0.374-0.407-0.299-0.73c0.074-0.319,0.407-0.451,0.568-0.514
		c0.231-0.092,0.453-0.212,0.675-0.331l0.694-0.359l0.146,0.395c0.04,0.107,0.076,0.218,0.111,0.327
		c0.07,0.216,0.137,0.42,0.233,0.593c0.703,1.267,1.414,1.666,2.72,1.556c1.02-0.085,1.924-0.854,2.199-1.869
		c0.261-0.963,0.078-1.744-0.559-2.387c-0.095-0.096-0.382-0.387-0.301-0.741c0.081-0.353,0.46-0.487,0.584-0.531
		c0.1-0.035,0.199-0.084,0.298-0.132c0.233-0.111,0.497-0.238,0.785-0.238c0.456,0.033,0.581,0.45,0.726,0.933l0.056,0.183
		c0.334,1.025,1.352,1.742,2.476,1.742c0.496-0.001,0.984-0.134,1.452-0.397c0.93-0.521,1.454-2.223,0.967-3.139
		c-0.055-0.102-0.12-0.2-0.184-0.3c-0.112-0.172-0.222-0.345-0.302-0.531c-0.094-0.219-0.021-0.438,0.034-0.6l0.031-0.097
		c0.062-0.22,0.256-0.283,0.329-0.308l1.542-0.604l0.197,0.724c0.069,0.244,0.138,0.489,0.192,0.738
		c0.23,1.052,1.534,1.932,2.764,1.808c1.032-0.106,2.067-1.086,2.261-2.138c0.127-0.694-0.022-1.32-0.5-2.094
		c-0.141-0.228-0.034-0.474,0.038-0.636c0.016-0.036,0.032-0.07,0.042-0.103l0.065-0.2l0.248-0.068
		c0.085-0.027,0.182-0.065,0.278-0.104c0.269-0.106,0.547-0.216,0.852-0.216l0.104,0.005c0.359,0.031,0.449,0.409,0.555,0.847
		c0.028,0.118,0.057,0.238,0.087,0.333c0.597,1.821,2.154,2.516,3.816,1.685c0.603-0.303,1.092-0.922,1.276-1.616
		c0.127-0.479,0.171-1.213-0.346-1.992c-0.106-0.159-0.326-0.492-0.167-0.813c0.157-0.317,0.554-0.343,0.704-0.353
		c0.018-0.001,0.06-0.014,0.093-0.023l0.11-0.03c0.08-0.019,0.159-0.052,0.234-0.082c0.153-0.062,0.313-0.125,0.488-0.125
		c0.655,0,0.722,0.797,0.744,1.059c0.128,1.52,1.173,2.378,2.767,2.313c0.97-0.054,1.703-0.528,2.118-1.371
		c0.415-0.846,0.393-1.663-0.068-2.432c-0.087-0.145-0.271-0.449-0.128-0.746c0.141-0.292,0.484-0.337,0.613-0.354l0.151-0.05
		c0.41-0.104,0.681-0.174,0.898-0.174c0.707,0,0.718,0.615,0.732,1.394c0.016,0.797,0.917,1.852,1.786,2.089
		c0.231,0.063,0.471,0.095,0.712,0.095c1.25,0,2.326-0.817,2.559-1.944c0.106-0.517-0.042-1.144-0.217-1.793
		c-0.069-0.259-0.123-0.53,0.038-0.763c0.15-0.216,0.399-0.267,0.6-0.286l0.171,0.353l-0.045-0.372l1.487-0.182l0.019,0.75
		c0.005,0.231,0.01,0.463,0.02,0.693c0.059,1.367,1.47,2.509,2.978,2.318c0.781-0.099,1.514-0.638,1.912-1.407
		c0.391-0.755,0.395-1.602,0.01-2.322c-0.067-0.125-0.066-0.272,0.002-0.437c0.04-0.095,0.155-0.322,0.376-0.389
		c0.277-0.085,0.571-0.113,0.807-0.137c0.228-0.022,0.385-0.037,0.502-0.037c0.095,0,0.347,0,0.518,0.191
		c0.189,0.211,0.159,0.476,0.11,0.915l-0.015,0.133c-0.103,0.938,0.504,2.18,1.664,2.553c1.048,0.338,2.109,0.104,2.796-0.602
		c0.495-0.507,0.756-1.203,0.737-1.961c-0.006-0.253-0.081-0.515-0.166-0.819c-0.043-0.154-0.088-0.313-0.126-0.479l-0.106-0.46
		l1.222-0.004c0.263,0,0.523,0.004,0.783,0.021c0.146,0.01,0.272,0.09,0.378,0.239c0.051,0.072,0.213,0.326,0.145,0.574
		c-0.253,0.941-0.047,1.767,0.612,2.449c0.829,0.859,1.865,1.027,3.164,0.527c0.825-0.316,1.56-1.862,1.309-2.756
		c-0.126-0.451-0.202-0.723-0.02-0.964c0.184-0.242,0.462-0.242,0.967-0.243c0.379,0,0.708,0.148,0.928,0.418
		c0.219,0.269,0.302,0.634,0.228,1.003c-0.214,1.057,0.6,2.256,1.443,2.583c0.422,0.164,0.839,0.246,1.238,0.246
		c1.354,0,2.346-0.938,2.587-2.453v-0.118c-0.03-0.266-0.064-0.573-0.1-0.881l-0.068-0.602h2.698l-0.206,0.515
		c-0.352,0.879-0.396,1.594-0.142,2.315c0.365,1.032,1.323,1.699,2.44,1.699c0.73,0,1.406-0.294,1.902-0.829
		c0.594-0.642,0.797-1.377,0.679-2.459c-0.029-0.266,0.178-0.504,0.201-0.53l0.112-0.124l0.232-0.044
		c0.413,0.012,0.813,0.043,1.241,0.077l0.945,0.071l-0.242,0.497c-0.485,0.996-0.538,1.804-0.17,2.617
		c0.408,0.902,1.603,1.581,2.711,1.473c1.041-0.091,2.047-0.977,2.243-1.975l0.04-0.188c0.023-0.104,0.047-0.207,0.058-0.313
		c0.022-0.213,0.036-0.428,0.049-0.643l0.05-0.714l0.693,0.096c0.263,0.035,0.526,0.071,0.787,0.113
		c0.127,0.02,0.254,0.051,0.393,0.086l0.689,0.162l-0.255,0.439c-0.477,0.821-0.585,1.579-0.339,2.386
		c0.276,0.903,1.219,1.637,2.243,1.742c0.842,0.095,1.66-0.241,2.224-0.867c0.481-0.534,0.706-1.213,0.633-1.909
		c-0.02-0.185-0.025-0.452,0.149-0.646c0.11-0.123,0.354-0.258,0.786-0.117l1.564,0.382l-0.263,0.722
		c-0.077,0.208-0.153,0.415-0.224,0.625c-0.234,0.688-0.161,1.418,0.206,2.054c0.396,0.685,1.078,1.167,1.872,1.324
		c0.902,0.18,1.784-0.143,2.396-0.813c0.473-0.518,0.71-1.178,0.653-1.811c-0.01-0.111,0.001-0.213,0.012-0.304l0.04-0.544
		l0.655,0.144c0.225,0.049,0.44,0.096,0.656,0.146c0.174,0.042,0.345,0.087,0.515,0.132l0.736,0.19l-0.332,0.63
		c-0.075,0.136-0.15,0.271-0.208,0.413c-0.608,1.497-0.265,2.758,0.94,3.46c1.317,0.771,2.712,0.507,3.585-0.72
		c0.219-0.309,0.325-0.735,0.437-1.188c0.058-0.232,0.117-0.469,0.191-0.697l0.115-0.354l2.316,0.732l-0.194,0.392
		c-0.082,0.166-0.167,0.325-0.25,0.481c-0.4,0.746-0.715,1.335-0.452,2.246c0.292,1.009,1.131,1.72,2.19,1.854
		c1.573,0.201,2.765-0.751,3.061-2.45c0.061-0.343,0.476-0.489,0.652-0.536l0.13-0.017c0.154,0,0.284,0.067,0.38,0.117
		c0.592,0.268,0.888,0.399,0.987,0.716c0.099,0.314-0.071,0.596-0.353,1.062c-0.662,1.098-0.287,2.545,0.463,3.156
		c1.315,1.074,2.755,1.009,3.723-0.082c0.192-0.218,0.316-0.529,0.448-0.858c0.089-0.223,0.179-0.445,0.29-0.651
		c0.119-0.221,0.443-0.468,0.719-0.468l0.168,0.03c0.333,0.132,0.65,0.3,0.987,0.478l0.866,0.448l-0.423,0.363
		c-0.701,0.604-1.016,1.329-0.961,2.219c0.051,0.841,0.48,1.523,1.277,2.028c0.824,0.521,1.682,0.564,2.523,0.126
		c0.802-0.421,1.264-1.054,1.413-1.935c0.079-0.475,0.332-0.574,0.529-0.574c0.164,0,0.311,0.08,0.419,0.15
		c0.269,0.171,0.548,0.325,0.827,0.479l0.748,0.421l-1.024,1.426c-0.256,0.36-0.34,0.973-0.221,1.599
		c0.141,0.735,0.522,1.352,1.046,1.691c1.387,0.896,3.196,0.438,3.875-0.901l0.051-0.085l0.521-1.291l0.571,0.359
		c0.383,0.24,0.765,0.48,1.134,0.74l0.16,0.111l0.005,0.215c0,0.111-0.077,0.485-0.313,0.646c-0.498,0.339-0.813,0.904-0.889,1.591
		c-0.085,0.777,0.152,1.568,0.619,2.064c1.086,1.153,2.885,1.19,3.893,0.079c0.155-0.17,0.272-0.396,0.397-0.636
		c0.091-0.174,0.182-0.348,0.289-0.509c0.13-0.197,0.421-0.318,0.617-0.318h0.104l0.138,0.064c0.316,0.188,0.621,0.401,0.925,0.613
		l0.625,0.433l-0.579,0.62c-0.202,0.211-0.404,0.423-0.586,0.65c-0.396,0.496-0.547,1.15-0.425,1.843
		c0.135,0.764,0.596,1.453,1.235,1.843c1.262,0.771,2.892,0.351,3.583-0.776c0.097-0.159,0.17-0.35,0.253-0.571
		c0.045-0.119,0.093-0.245,0.148-0.376l0.194-0.459l2.242,1.806l-0.452,0.279c-1.257,0.775-1.705,1.802-1.368,3.137
		c0.258,1.021,1.242,1.81,2.34,1.874c0.074,0.004,0.188,0,0.217,0.006c1.22,0,2.066-0.642,2.515-1.906l0.18-0.507l0.682,0.566
		c0.352,0.291,0.687,0.568,1.01,0.86l0.144,0.13l-0.018,0.232c-0.013,0.11-0.098,0.427-0.328,0.555
		c-0.917,0.496-1.33,1.261-1.304,2.408c0.027,1.166,0.885,2.146,2.135,2.438c1.077,0.252,2.268-0.323,2.762-1.328l0.386-0.829
		l0.481,0.389c0.086,0.066,0.166,0.129,0.238,0.2c0.21,0.199,0.421,0.406,0.632,0.613l0.519,0.508l-1.087,1.042
		c-0.878,0.857-1.136,2.049-0.656,3.035c0.513,1.054,1.805,1.725,2.914,1.501c0.864-0.179,1.458-0.62,1.766-1.311
		c0.145-0.327,0.636-0.331,0.641-0.331h0.151l0.181,0.122c0.304,0.296,0.61,0.639,0.938,1.048l0.117,0.147l-0.048,0.232
		c-0.028,0.106-0.152,0.404-0.391,0.502c-0.929,0.386-1.73,1.611-1.586,2.427c0.202,1.135,0.805,2.5,2.533,2.561l0.141,0.003
		c1.079,0,1.841-0.477,2.4-1.501l0.274-0.503l0.573,0.737c0.274,0.352,0.54,0.691,0.787,1.043l0.103,0.146l-0.049,0.206
		c-0.043,0.15-0.208,0.415-0.426,0.506c-1.852,0.761-1.78,2.25-1.573,3.07c0.383,1.509,1.707,2.265,3.257,1.876
		c0.591-0.146,1.022-0.456,1.321-0.946c0.061-0.102,0.249-0.41,0.581-0.41c0.318,0,0.504,0.282,0.574,0.389l1.017,1.437
		l-0.666,0.382c-0.226,0.133-0.452,0.266-0.686,0.381c-0.808,0.397-1.047,1.175-1.117,1.603c-0.143,0.868,0.119,1.809,0.651,2.34
		c1.04,1.036,2.521,1.122,3.65,0.215l0.876-0.882l0.332,0.485c0.282,0.412,0.565,0.825,0.831,1.247l0.1,0.159l-0.068,0.179
		c-0.065,0.169-0.361,0.412-0.566,0.466c-1.07,0.283-1.882,1.273-1.931,2.354c-0.046,1.026,0.739,2.227,1.68,2.568
		c1.146,0.417,2.099,0.199,2.937-0.678c0.125-0.131,0.283-0.267,0.493-0.267c0.292,0,0.434,0.242,0.518,0.388
		c0.077,0.132,0.161,0.26,0.245,0.388c0.13,0.199,0.26,0.398,0.367,0.609c0.099,0.191,0.029,0.412-0.046,0.563
		c-0.099,0.198-0.23,0.313-0.391,0.34c-0.94,0.165-1.458,0.736-1.727,1.187c-0.406,0.68-0.522,1.559-0.296,2.24
		c0.34,1.026,1.418,1.8,2.507,1.8c0.29,0,0.566-0.056,0.821-0.164c0.317-0.136,0.622-0.326,0.943-0.527
		c0.157-0.098,0.317-0.197,0.481-0.293l0.346-0.201l0.317,0.634c0.165,0.325,0.34,0.672,0.493,1.029l0.071,0.166l-0.106,0.24
		c-0.069,0.129-0.249,0.357-0.482,0.402c-0.836,0.163-1.54,0.656-1.928,1.352c-0.363,0.652-0.414,1.408-0.142,2.128
		c0.428,1.132,1.305,1.807,2.345,1.807c0.688,0,1.377-0.286,1.994-0.828l0.583-0.517l0.337,0.89
		c0.154,0.404,0.303,0.792,0.433,1.188l0.058,0.174l-0.118,0.196c-0.083,0.124-0.302,0.328-0.534,0.347
		c-1.592,0.132-2.391,1.387-2.356,2.559c0.054,1.887,1.596,3.055,3.485,2.544c0.105-0.028,0.215-0.074,0.317-0.133
		c0.179-0.102,0.354-0.208,0.53-0.314l0.625-0.376l0.268,0.676c0.166,0.417,0.332,0.834,0.483,1.256l0.064,0.18l-0.109,0.166
		c-0.075,0.111-0.344,0.319-0.589,0.319c-0.081-0.004-0.131-0.006-0.181-0.006c-0.803,0-1.546,0.447-1.988,1.195
		c-0.49,0.83-0.514,1.854-0.063,2.671c0.468,0.847,1.341,1.373,2.277,1.373c0.484,0,0.965-0.141,1.39-0.406
		c0.225-0.142,0.412-0.258,0.63-0.258c0.338,0,0.55,0.246,0.627,0.731c0.037,0.229,0.116,0.462,0.2,0.707l0.163,0.5l-0.472,0.522
		l-0.194-0.024c-0.882-0.111-1.664,0.221-2.201,0.896c-0.502,0.63-0.696,1.471-0.518,2.247c0.273,1.195,1.354,2.063,2.568,2.063
		c0.471,0,0.933-0.137,1.336-0.395c0.118-0.075,0.276-0.161,0.456-0.161c0.167,0,0.464,0.073,0.571,0.563
		c0.011,0.051,0.033,0.098,0.053,0.146c0.053,0.127,0.118,0.285,0.107,0.472c0.004,0.007,0.04,0.084,0.063,0.136
		c0.089,0.194,0.225,0.488,0.047,0.766c-0.177,0.276-0.539,0.309-0.796,0.309l-0.252-0.006c-1.201,0-2.099,0.776-2.403,2.076
		c-0.223,0.953,0.04,1.813,0.759,2.487c0.767,0.718,1.67,0.911,2.644,0.567c0.367-0.13,0.558-0.198,0.742-0.198
		c0.496,0,0.605,0.423,0.744,0.957c0.022,0.083,0.047,0.165,0.072,0.245c0.062,0.192,0.178,0.555-0.027,0.837
		c-0.154,0.211-0.395,0.297-0.833,0.252c-1.172-0.121-2.127,0.458-2.601,1.553c-0.475,1.099-0.168,2.289,0.8,3.104
		c0.785,0.662,1.641,0.752,2.796,0.3l0.654-0.248l0.138,0.338c0.042,0.089,0.074,0.155,0.084,0.245l0.188,1.801l-0.792,0.063
		c-0.281,0.02-0.563,0.038-0.84,0.081c-1.044,0.16-2.02,1.012-2.177,1.897c-0.239,1.35,0.196,2.447,1.193,3.013
		c0.706,0.401,1.487,0.448,2.294,0.142c0.4-0.151,0.643-0.104,0.813,0.09c0.182,0.21,0.14,0.501,0.126,0.598l0.147,1.728l-0.47-0.07
		c-0.123-0.019-0.247-0.045-0.371-0.071c-0.197-0.042-0.384-0.082-0.55-0.082c-0.979,0.091-1.752,0.494-2.212,1.111
		c-0.43,0.576-0.572,1.319-0.411,2.15c0.241,1.24,1.513,2.072,2.549,2.072c0.106-0.002,0.159-0.002,0.209-0.01l1.425-0.206
		l0.059,0.745c0.031,0.364,0.061,0.73,0.069,1.096l0.003,0.158l-0.132,0.148c-0.097,0.1-0.329,0.239-0.539,0.239l-0.142-0.022
		c-1.183-0.392-2.173-0.058-2.991,0.994c-0.501,0.643-0.496,1.425-0.403,1.969c0.212,1.241,1.161,2.072,2.539,2.225l0.143-0.008
		l1.424-0.221l-0.009,0.758c-0.004,0.396-0.009,0.791-0.031,1.186c-0.021,0.322-0.412,0.497-0.607,0.497l-0.149-0.026
		c-1.045-0.404-2.142-0.163-2.863,0.586c-0.503,0.523-0.764,1.231-0.735,1.995c0.062,1.581,1.619,2.813,3.163,2.442
		c0.429-0.104,0.649,0.025,0.752,0.144c0.163,0.187,0.152,0.435,0.129,0.604c-0.04,0.304-0.093,0.605-0.146,0.91l-0.127,0.746
		l-0.375-0.069c-0.118-0.022-0.237-0.04-0.357-0.058c-0.282-0.041-0.573-0.082-0.86-0.183c-0.088-0.031-0.19-0.047-0.303-0.047
		c-0.933,0-2.297,0.995-2.469,2.052c-0.29,1.792,0.765,2.787,1.755,3.094c0.275,0.088,0.696,0.096,1.121,0.072l0.147-0.003
		c0.142,0,0.473,0,0.667,0.26c0.182,0.244,0.12,0.552,0.058,0.763c-0.067,0.229-0.1,0.473-0.134,0.73
		c-0.016,0.12-0.032,0.241-0.052,0.361l-0.068,0.418l-1.429-0.42c-1.331-0.371-2.866,0.675-3.134,2.106
		c-0.133,0.712,0.025,1.419,0.446,1.991c0.455,0.619,1.178,1.03,1.985,1.127c0.505,0.061,0.81,0.098,0.996,0.352
		c0.186,0.254,0.131,0.541,0.033,1.062l-0.388,0.032l0.369,0.068c-0.08,0.424-0.215,1.151-1.288,0.618
		c-0.362-0.182-0.743-0.272-1.131-0.272c-1.249,0-2.263,0.912-2.466,2.217c-0.133,0.852,0.045,1.626,0.503,2.182
		c0.44,0.535,1.098,0.834,1.902,0.865c0.338,0.014,0.709,0.063,0.899,0.333c0.186,0.265,0.092,0.56,0.01,0.817l-0.037,0.119
		c-0.013,0.045-0.018,0.09-0.024,0.137c-0.076,0.496-0.156,1.013-0.649,1.013c-0.208,0-0.404-0.108-0.68-0.276
		c-0.343-0.209-0.729-0.314-1.147-0.314c-1.204,0-2.354,0.887-2.619,2.02c-0.193,0.825-0.021,1.631,0.483,2.267
		c0.491,0.618,1.247,0.987,2.023,0.987c0.115,0,0.432,0,0.61,0.25c0.179,0.252,0.073,0.554,0.034,0.666
		c-0.04,0.114-0.075,0.231-0.109,0.35c-0.065,0.22-0.131,0.439-0.224,0.646c-0.157,0.342-0.612,0.48-0.936,0.286
		c-1.191-0.707-2.197-0.674-3.228,0.113c-0.54,0.41-0.899,1.178-0.936,2.002c-0.033,0.726,0.193,1.364,0.619,1.755
		c0.637,0.584,1.188,0.852,1.844,0.896c0.208,0.013,0.396,0.121,0.517,0.296c0.122,0.178,0.154,0.396,0.09,0.601
		c-0.111,0.348-0.261,0.684-0.391,0.973l-0.262,0.603l-0.34-0.138c-0.205-0.081-0.407-0.176-0.61-0.27
		c-0.419-0.195-0.816-0.38-1.218-0.447c-1.511-0.254-2.815,0.943-2.861,2.471c-0.044,1.482,0.808,2.492,2.339,2.77
		c0.281,0.053,0.397,0.319,0.481,0.514c0.118,0.262,0.026,0.438-0.018,0.522c-0.3,0.718-0.474,1.136-0.952,1.136
		c-0.263,0-0.521-0.151-0.921-0.398c-0.412-0.256-0.885-0.391-1.367-0.391c-1.238,0-2.274,0.818-2.52,1.989
		c-0.28,1.332,0.194,2.33,1.45,3.054l1.414,0.582l-0.59,1.222c-0.078,0.155-0.161,0.31-0.207,0.394l-0.166,0.307l-0.347-0.088
		c-0.224-0.102-0.441-0.203-0.656-0.307c-0.481-0.229-0.936-0.443-1.405-0.604c-0.563-0.19-1.179-0.051-1.757,0.388
		c-0.793,0.603-1.218,1.479-1.165,2.405c0.05,0.865,0.52,1.625,1.289,2.08c0.067,0.041,0.222,0.104,0.317,0.131
		c0.551,0.162,0.853,0.252,0.966,0.563c0.114,0.314-0.061,0.578-0.409,1.103c-0.286,0.432-0.458,0.69-0.8,0.69
		c-0.272,0-0.466-0.177-0.817-0.497c-0.44-0.402-1.017-0.625-1.622-0.625c-0.841,0-1.616,0.406-2.073,1.086
		c-0.79,1.178-0.789,2.188,0.002,3.182c0.326,0.408,0.921,0.691,1.404,0.894c0.209,0.087,0.433,0.209,0.5,0.451
		c0.072,0.259-0.077,0.462-0.186,0.61l-0.058,0.087c-0.031,0.048-0.063,0.096-0.098,0.142l-0.903,1.197l-0.517-0.475
		c-0.157-0.146-0.314-0.291-0.475-0.433c-0.781-0.688-1.711-0.827-2.713-0.417c-0.875,0.357-1.41,1.053-1.548,2.007
		c-0.194,1.347,0.445,2.37,1.801,2.882c0.306,0.113,0.384,0.52,0.374,0.696c-0.01,0.202-0.137,0.353-0.221,0.45
		c-0.205,0.257-0.376,0.469-0.548,0.68l-0.487,0.604l-0.511-0.559c-0.14-0.16-0.277-0.317-0.436-0.455
		c-1.067-0.916-2.592-0.89-3.583,0.094c-0.994,0.983-1.124,2.537-0.292,3.462c0.274,0.303,0.666,0.583,1.197,0.854
		c0.115,0.06,0.387,0.197,0.436,0.479c0.047,0.271-0.136,0.465-0.246,0.582l-1.136,1.234l-0.525-0.524
		c-0.176-0.175-0.352-0.349-0.524-0.526c-0.486-0.502-1.135-0.777-1.828-0.777c-1.081,0-2.017,0.648-2.384,1.653
		c-0.462,1.265-0.197,2.3,0.813,3.168l0.103,0.088c0.298,0.063,0.7,0.201,0.795,0.567c0.102,0.391-0.219,0.681-0.501,0.938
		l-0.154,0.147c-0.339,0.345-0.525,0.534-0.808,0.534c-0.334,0-0.512-0.26-0.806-0.691c-0.426-0.624-1.188-0.997-2.039-0.997
		c-0.653,0-1.275,0.231-1.706,0.636c-0.733,0.688-1.06,1.541-0.919,2.403c0.138,0.853,0.719,1.591,1.554,1.976l0.168,0.121
		l0.267,0.254l-0.296,0.428c-0.082,0.094-0.162,0.184-0.25,0.266c-0.22,0.204-0.443,0.402-0.667,0.602l-0.555,0.498l-0.468-0.642
		c-0.147-0.202-0.294-0.405-0.446-0.604c-0.729-0.955-2.466-1.199-3.551-0.346c-0.724,0.568-1.117,1.438-1.052,2.322
		c0.063,0.857,0.531,1.598,1.285,2.028c0.263,0.149,0.245,0.466,0.232,0.696c-0.014,0.242-0.168,0.358-0.251,0.422l-1.234,0.994
		l-0.417-0.571c-0.146-0.197-0.292-0.396-0.429-0.597c-0.587-0.86-1.643-1.272-2.705-1.055c-0.928,0.191-1.868,1.212-2.012,2.184
		c-0.175,1.18,0.267,2.053,1.39,2.748l0.458,0.283l-0.711,0.555c-0.345,0.271-0.684,0.535-1.032,0.785l-0.098,0.07l-0.131,0.003
		c-0.208,0-0.542-0.219-0.618-0.464c-0.385-1.243-1.688-1.854-2.713-1.763c-0.72,0.061-1.958,0.762-2.312,1.874
		c-0.264,0.828,0.03,1.996,0.642,2.55c0.424,0.384,0.657,0.595,0.615,0.92c-0.042,0.328-0.312,0.469-0.849,0.748
		c-0.166,0.087-0.315,0.18-0.474,0.276l-0.611,0.369l-0.258-0.576c-0.071-0.15-0.141-0.301-0.193-0.457
		c-0.374-1.104-1.473-1.598-2.396-1.598c-0.301,0-0.592,0.047-0.865,0.143c-0.666,0.229-1.225,0.728-1.534,1.365
		c-0.276,0.567-0.322,1.185-0.131,1.734c0.114,0.326,0.332,0.633,0.563,0.958c0.129,0.183,0.259,0.365,0.373,0.554
		c0.11,0.184,0.201,0.621-0.087,0.81c-0.33,0.224-0.677,0.438-1.048,0.666l-0.773,0.479l-0.106-0.53
		c-0.217-1.084-0.67-1.748-1.47-2.155c-1.132-0.574-2.548-0.205-3.305,0.776c-0.81,1.051-0.709,2.451,0.244,3.407
		c0.119,0.118,0.344,0.341,0.29,0.64c-0.054,0.3-0.354,0.436-0.466,0.485c-0.259,0.116-0.507,0.257-0.756,0.396l-0.727,0.396
		l-0.293-0.746c-0.089-0.231-0.177-0.466-0.28-0.691c-0.426-0.94-1.321-1.524-2.336-1.524c-0.548,0-1.085,0.177-1.554,0.509
		c-0.626,0.446-1.031,1.133-1.108,1.885c-0.075,0.724,0.156,1.416,0.65,1.951c0.156,0.168,0.328,0.398,0.262,0.68
		c-0.073,0.311-0.385,0.43-0.519,0.48c-0.084,0.032-0.165,0.074-0.245,0.115l-0.156,0.078c-0.368,0.178-0.571,0.275-0.777,0.275
		c-0.48,0-0.572-0.439-0.679-0.949c-0.233-1.117-1.314-1.959-2.514-1.959c-0.334,0-0.658,0.064-0.963,0.193
		c-0.863,0.365-1.451,0.977-1.654,1.721c-0.211,0.772,0,1.642,0.595,2.443c0.154,0.207,0.063,0.44,0.009,0.58l-0.06,0.207
		l-0.273,0.143l-1.557,0.569l-0.228-0.729c-0.082-0.27-0.164-0.538-0.261-0.803c-0.338-0.916-0.989-1.451-1.936-1.59
		c-1.465-0.219-2.531,0.398-3.014,1.729c-0.21,0.576-0.323,1.438,0.33,2.27c0.072,0.092,0.292,0.372,0.191,0.686
		s-0.433,0.412-0.575,0.453c-0.269,0.08-0.534,0.172-0.8,0.265l-0.743,0.252l-0.159-0.774c-0.05-0.258-0.1-0.514-0.168-0.766
		c-0.304-1.132-1.296-1.893-2.47-1.893c-0.718,0-1.405,0.293-1.933,0.822c-0.909,0.912-1.044,1.99-0.39,3.117
		c0.079,0.135,0.262,0.45,0.126,0.756c-0.132,0.301-0.473,0.371-0.584,0.396c-0.076,0.016-0.148,0.043-0.221,0.07
		c-0.067,0.023-0.134,0.049-0.202,0.067c-0.065,0.021-0.127,0.043-0.187,0.065c-0.145,0.056-0.294,0.111-0.454,0.111
		c-0.644,0-0.658-0.771-0.663-1.023c-0.027-1.529-1.373-2.477-2.604-2.477c-0.501,0-0.995,0.146-1.429,0.422
		c-1.178,0.75-1.564,2.326-0.861,3.517c0.04,0.063,0.078,0.135,0.126,0.224l0.325,0.586l-0.86,0.166
		c-0.443,0.086-0.865,0.17-1.291,0.229l-0.191,0.026l-0.16-0.156c-0.106-0.11-0.249-0.383-0.239-0.604
		c0.066-1.497-0.654-2.547-1.926-2.808c-1.431-0.295-2.498,0.227-3.102,1.543c-0.332,0.722-0.3,1.46,0.091,2.135
		c0.078,0.135,0.24,0.415,0.1,0.691c-0.139,0.272-0.453,0.307-0.556,0.316c-0.047,0.014-0.081,0.021-0.116,0.027l-1.586,0.216
		l-0.058-0.755c0-0.229,0-0.458-0.029-0.684c-0.141-1.049-0.578-1.75-1.335-2.144c-0.989-0.514-1.948-0.44-2.859,0.214
		c-1.021,0.732-1.343,1.891-0.86,3.094c0.053,0.133,0.175,0.44,0.001,0.697c-0.182,0.27-0.514,0.258-0.63,0.258
		c-0.358,0-0.63,0.024-0.901,0.049l-0.821,0.063l0.035-0.817c0.015-0.289,0.029-0.578,0.03-0.865
		c0.001-0.61-0.238-1.187-0.673-1.621c-0.493-0.493-1.165-0.747-1.865-0.684c-1.382,0.11-2.168,0.646-2.476,1.683
		c-0.137,0.462-0.086,1.028-0.037,1.575l0.035,0.377c0.023,0.203,0.053,0.453-0.126,0.654c-0.144,0.161-0.334,0.232-0.691,0.186
		c-0.253-0.029-0.51-0.036-0.766-0.045l-0.742-0.029l0.053-0.703c0.02-0.234,0.039-0.471,0.048-0.706
		c0.024-0.672-0.229-1.317-0.713-1.821c-0.669-0.693-1.683-1.002-2.603-0.772c-0.671,0.165-1.25,0.606-1.59,1.212
		c-0.389,0.691-0.443,1.538-0.157,2.445l0.154,0.488L169.586,315.599z M168.959,314.84c0.208,0.007,0.417,0.009,0.627,0.009h0.185
		c-0.24-1.156,0.042-2.015,0.345-2.553c0.441-0.785,1.194-1.357,2.065-1.572c1.177-0.289,2.471,0.098,3.322,0.98
		c0.627,0.65,0.955,1.492,0.922,2.37c-0.008,0.222-0.025,0.442-0.043,0.663c0.258,0.008,0.517,0.017,0.773,0.046
		c0-0.003,0-0.005-0.001-0.007l-0.037-0.396c-0.055-0.618-0.112-1.257,0.065-1.855c0.396-1.336,1.45-2.082,3.134-2.219
		c0.916-0.076,1.809,0.254,2.457,0.901c0.576,0.577,0.893,1.342,0.892,2.151c-0.001,0.291-0.015,0.58-0.029,0.871
		c0.28-0.025,0.56-0.049,0.84-0.051c-0.567-1.498-0.131-2.988,1.148-3.906c1.14-0.817,2.403-0.912,3.642-0.271
		c0.977,0.506,1.56,1.418,1.733,2.71c0.03,0.228,0.035,0.456,0.036,0.687l0.772-0.104c-0.475-0.873-0.503-1.819-0.079-2.743
		c0.75-1.633,2.149-2.33,3.935-1.965c1.616,0.331,2.579,1.667,2.527,3.495c0.259-0.044,0.538-0.099,0.828-0.154
		c-0.819-1.521-0.311-3.478,1.167-4.418c0.554-0.354,1.188-0.54,1.832-0.54c1.818,0,3.322,1.441,3.354,3.213
		c0.002,0.118,0.01,0.2,0.019,0.256c0.028-0.011,0.058-0.021,0.083-0.03c0.077-0.028,0.157-0.06,0.24-0.083
		c0.053-0.016,0.105-0.035,0.157-0.055c0.103-0.037,0.206-0.074,0.312-0.098c-0.007-0.013-0.015-0.027-0.024-0.043
		c-0.819-1.411-0.634-2.878,0.507-4.023c0.67-0.672,1.545-1.043,2.464-1.043c1.518,0,2.801,0.983,3.194,2.447
		c0.067,0.246,0.118,0.498,0.167,0.752c0.248-0.087,0.495-0.171,0.745-0.244c-0.651-0.854-0.8-1.9-0.417-2.953
		c0.598-1.644,2.008-2.479,3.828-2.213c1.221,0.179,2.096,0.895,2.53,2.07c0.099,0.27,0.184,0.544,0.267,0.818l0.676-0.247
		c-0.642-0.947-0.853-1.976-0.596-2.919c0.265-0.971,1.005-1.758,2.085-2.215c0.397-0.168,0.82-0.252,1.255-0.252
		c1.572,0,2.938,1.074,3.248,2.555c0.022,0.105,0.046,0.221,0.067,0.309c0.089-0.039,0.211-0.099,0.33-0.156l0.137-0.067
		c0.088-0.046,0.177-0.091,0.269-0.129c-0.625-0.69-0.916-1.581-0.82-2.511c0.1-0.965,0.617-1.846,1.42-2.418
		c0.596-0.424,1.283-0.646,1.988-0.646c1.313,0,2.47,0.753,3.02,1.967c0.101,0.223,0.189,0.451,0.277,0.682
		c0.229-0.129,0.459-0.258,0.696-0.368c-1.186-1.229-1.295-3.009-0.262-4.349c0.979-1.271,2.785-1.729,4.239-0.987
		c0.872,0.442,1.432,1.137,1.739,2.161c0.245-0.15,0.48-0.297,0.708-0.446c-0.089-0.154-0.188-0.294-0.287-0.433
		c-0.251-0.354-0.51-0.721-0.659-1.146c-0.257-0.739-0.199-1.561,0.165-2.311c0.395-0.813,1.111-1.45,1.964-1.746
		c0.353-0.121,0.726-0.184,1.11-0.184c1.432,0,2.68,0.848,3.106,2.107c0.022,0.064,0.049,0.13,0.077,0.193
		c0.132-0.08,0.261-0.156,0.393-0.227c0.135-0.068,0.268-0.139,0.365-0.195c-0.075-0.072-0.176-0.164-0.275-0.255
		c-0.836-0.756-1.211-2.221-0.856-3.336c0.458-1.438,2.016-2.313,2.964-2.394c1.462-0.119,2.928,0.794,3.431,2.111
		c0.218-0.162,0.432-0.328,0.647-0.496c-1.057-0.818-1.495-1.893-1.302-3.194c0.191-1.292,1.358-2.552,2.603-2.81
		c1.343-0.279,2.727,0.27,3.476,1.365c0.119,0.176,0.243,0.346,0.368,0.514l0.589-0.476c-0.886-0.567-1.434-1.481-1.511-2.533
		c-0.083-1.134,0.416-2.243,1.336-2.968c1.408-1.105,3.633-0.801,4.611,0.48c0.148,0.193,0.292,0.392,0.435,0.59
		c0.198-0.178,0.396-0.354,0.592-0.535c-0.878-0.495-1.509-1.372-1.672-2.375c-0.181-1.116,0.226-2.207,1.146-3.071
		c0.577-0.541,1.364-0.838,2.219-0.838c1.099,0,2.093,0.495,2.659,1.325c0.078,0.113,0.157,0.23,0.217,0.309
		c0.049-0.06,0.146-0.158,0.24-0.254l0.187-0.18c0.055-0.051,0.13-0.118,0.19-0.18c-0.047-0.017-0.109-0.033-0.191-0.054
		c-0.163-0.038-0.276-0.142-0.352-0.209c-1.268-1.092-1.623-2.473-1.056-4.021c0.477-1.305,1.688-2.146,3.088-2.146
		c0.898,0,1.738,0.357,2.366,1.008c0.161,0.166,0.325,0.328,0.489,0.49l0.545-0.589c-0.574-0.302-1.01-0.622-1.332-0.979
		c-1.097-1.217-0.954-3.233,0.32-4.496c1.252-1.239,3.255-1.285,4.601-0.129c0.152,0.132,0.29,0.278,0.424,0.431
		c0.149-0.185,0.298-0.367,0.444-0.554c0.029-0.034,0.051-0.061,0.067-0.078c-1.601-0.659-2.378-1.977-2.139-3.635
		c0.176-1.216,0.888-2.137,2.006-2.594c1.27-0.521,2.499-0.326,3.492,0.547c0.134,0.117,0.265,0.237,0.396,0.358l0.517-0.701
		c-0.558-0.233-1.24-0.571-1.662-1.103c-0.997-1.25-1.009-2.617-0.038-4.064c0.597-0.888,1.604-1.418,2.696-1.418
		c0.793,0,1.549,0.292,2.128,0.821c0.102,0.092,0.205,0.187,0.28,0.247c0.057-0.075,0.132-0.189,0.207-0.301
		c0.098-0.148,0.199-0.301,0.26-0.406c-0.104-0.037-0.254-0.081-0.401-0.125c-0.132-0.037-0.351-0.123-0.49-0.206
		c-0.988-0.585-1.591-1.563-1.655-2.683c-0.067-1.162,0.479-2.302,1.46-3.047c0.777-0.589,1.655-0.767,2.451-0.5
		c0.51,0.174,0.983,0.398,1.485,0.637c0.107,0.051,0.215,0.103,0.324,0.152c0.02-0.037,0.04-0.076,0.059-0.115l0.237-0.49
		l-0.741-0.316c-1.574-0.904-2.183-2.202-1.833-3.869c0.314-1.497,1.683-2.585,3.254-2.585c0.622,0,1.231,0.175,1.762,0.501
		c0.156,0.098,0.447,0.277,0.531,0.287c-0.012-0.035,0.117-0.345,0.241-0.645l0.01-0.021c-0.006-0.015-0.012-0.027-0.018-0.039
		c-1.833-0.376-2.893-1.68-2.838-3.509c0.061-1.968,1.769-3.519,3.737-3.187c0.501,0.084,0.963,0.299,1.409,0.506
		c0.08,0.039,0.161,0.076,0.241,0.111c0.103-0.229,0.217-0.486,0.307-0.754c-0.794-0.072-1.482-0.408-2.219-1.085
		c-0.591-0.54-0.905-1.396-0.862-2.342c0.047-1.04,0.519-2.022,1.231-2.565c1.23-0.936,2.566-1.011,3.977-0.212
		c0.057-0.145,0.101-0.296,0.146-0.448c0.03-0.102,0.06-0.203,0.093-0.304c-1.017-0.053-1.922-0.519-2.519-1.271
		c-0.649-0.818-0.872-1.85-0.626-2.903c0.347-1.479,1.787-2.599,3.35-2.599c0.55,0,1.082,0.146,1.537,0.425
		c0.058,0.035,0.107,0.063,0.15,0.089c0.016-0.084,0.029-0.173,0.036-0.217c0.021-0.152,0.034-0.237,0.059-0.318l0.041-0.13
		c0.015-0.047,0.032-0.103,0.045-0.147c-0.053-0.012-0.138-0.021-0.268-0.026c-1.009-0.039-1.88-0.443-2.452-1.14
		c-0.595-0.724-0.832-1.707-0.665-2.772c0.258-1.651,1.606-2.853,3.208-2.853c0.506,0,1,0.119,1.466,0.353
		c0.08,0.04,0.139,0.065,0.182,0.081c0.012-0.053,0.023-0.114,0.033-0.166l0.02-0.102c0.033-0.179,0.068-0.36,0.076-0.463
		c-0.101-0.023-0.288-0.047-0.457-0.066c-1.012-0.121-1.923-0.643-2.5-1.428c-0.544-0.74-0.75-1.654-0.579-2.572
		c0.299-1.598,1.708-2.801,3.278-2.801c0.27,0,0.538,0.037,0.797,0.109l0.612,0.18c0.034-0.25,0.072-0.506,0.148-0.763
		c0.006-0.021,0.012-0.042,0.016-0.059c-0.007,0-0.014,0-0.022,0l-0.112,0.003c-0.51,0.023-1.012,0.008-1.379-0.105
		c-1.277-0.396-2.639-1.662-2.273-3.93c0.271-1.674,2.53-3.021,3.759-2.594c0.218,0.074,0.462,0.111,0.72,0.148
		c0.004,0,0.008,0,0.012,0l0.001-0.009c0.046-0.262,0.092-0.522,0.129-0.787c-0.232,0.054-0.469,0.079-0.704,0.079
		c-1.769,0-3.264-1.449-3.333-3.232c-0.037-0.969,0.298-1.873,0.944-2.543c0.87-0.905,2.189-1.237,3.423-0.854
		c0.009-0.249,0.013-0.5,0.016-0.75l-0.836,0.101c-1.782-0.192-2.977-1.256-3.249-2.846c-0.169-0.994,0.021-1.879,0.551-2.557
		c0.973-1.251,2.22-1.699,3.633-1.303c-0.012-0.246-0.032-0.492-0.053-0.738l-0.63,0.09c-0.074,0.013-0.159,0.016-0.242,0.02
		c-0.001,0-0.001,0-0.002,0c-1.406,0-3.038-1.024-3.36-2.681c-0.202-1.044-0.014-1.992,0.546-2.742
		c0.586-0.785,1.552-1.297,2.649-1.404c0.242-0.025,0.492,0.012,0.725,0.06l-0.06-0.707c-0.002-0.021-0.004-0.045-0.005-0.072
		c-0.995,0.354-1.979,0.278-2.855-0.219c-1.29-0.731-1.858-2.114-1.561-3.796c0.216-1.218,1.42-2.296,2.801-2.508
		c0.297-0.046,0.6-0.067,0.903-0.088l0.018-0.001l-0.075-0.71c-1.368,0.505-2.481,0.345-3.444-0.466
		c-1.232-1.038-1.617-2.562-1.005-3.977c0.6-1.386,1.847-2.161,3.367-2.001c0.038,0.004,0.072,0.007,0.103,0.007
		c-0.008-0.031-0.02-0.072-0.036-0.123c-0.029-0.094-0.058-0.186-0.083-0.278c-0.038-0.145-0.075-0.291-0.106-0.382
		c-0.089,0.024-0.222,0.072-0.353,0.118c-1.401,0.496-2.485,0.202-3.458-0.709c-0.913-0.855-1.26-1.994-0.977-3.204
		c0.383-1.639,1.583-2.656,3.133-2.656l0.252,0.006c0.026,0,0.05-0.001,0.071-0.002c-0.001-0.003-0.003-0.006-0.004-0.009
		c-0.067-0.145-0.143-0.309-0.131-0.494c-0.002-0.021-0.032-0.093-0.052-0.141c-0.021-0.052-0.042-0.104-0.059-0.155
		c-0.506,0.304-1.08,0.465-1.664,0.465c-1.561,0-2.949-1.112-3.3-2.646c-0.228-0.998,0.02-2.075,0.663-2.883
		c0.63-0.79,1.56-1.235,2.577-1.196c-0.089-0.26-0.18-0.529-0.226-0.817c-0.002-0.01-0.003-0.02-0.005-0.029
		c-0.035,0.022-0.072,0.045-0.104,0.065c-0.554,0.348-1.172,0.527-1.797,0.527c-1.21,0-2.334-0.675-2.934-1.761
		c-0.579-1.049-0.55-2.357,0.074-3.414c0.575-0.975,1.551-1.558,2.615-1.564c-0.094-0.251-0.191-0.497-0.289-0.742
		c-0.137,0.083-0.274,0.165-0.414,0.244c-0.158,0.09-0.324,0.159-0.493,0.205c-2.351,0.632-4.362-0.899-4.43-3.247
		c-0.051-1.73,1.162-3.103,2.902-3.313c-0.092-0.261-0.19-0.521-0.293-0.789c-0.697,0.54-1.472,0.823-2.257,0.823
		c-1.365,0-2.503-0.856-3.046-2.291c-0.352-0.931-0.285-1.91,0.188-2.759c0.477-0.855,1.319-1.47,2.323-1.698
		c-0.11-0.241-0.229-0.478-0.343-0.704c-0.04,0.025-0.08,0.05-0.12,0.075c-0.332,0.207-0.674,0.421-1.045,0.58
		c-0.349,0.149-0.725,0.225-1.116,0.225c-1.421,0-2.775-0.973-3.219-2.313c-0.296-0.894-0.156-1.99,0.364-2.861
		c0.463-0.773,1.19-1.303,2.063-1.504c-0.078-0.136-0.165-0.267-0.25-0.398c-0.064-0.098-0.129-0.196-0.19-0.296
		c-1.018,0.996-2.259,1.256-3.631,0.759c-1.26-0.458-2.234-1.941-2.173-3.307c0.062-1.368,1.06-2.621,2.391-3.019
		c-0.146-0.224-0.295-0.444-0.444-0.664l-0.292,0.284c-1.431,1.149-3.363,1.03-4.659-0.261c-0.707-0.705-1.045-1.88-0.862-2.992
		c0.162-0.984,0.704-1.75,1.526-2.154c0.205-0.101,0.401-0.216,0.598-0.332l-0.467-0.665c-0.011-0.014-0.021-0.025-0.029-0.036
		c-0.4,0.613-0.981,1.018-1.729,1.203c-0.335,0.083-0.669,0.126-0.993,0.126c-1.559,0-2.774-0.976-3.172-2.547
		c-0.438-1.73,0.272-3.18,1.901-3.899c-0.162-0.22-0.329-0.437-0.5-0.656c-0.673,0.952-1.582,1.417-2.764,1.417l-0.167-0.003
		c-1.714-0.061-2.896-1.22-3.245-3.18c-0.196-1.104,0.708-2.604,1.888-3.183c-0.19-0.229-0.373-0.433-0.552-0.616
		c-0.426,0.813-1.188,1.353-2.214,1.565c-1.455,0.294-3.074-0.542-3.74-1.907c-0.624-1.282-0.308-2.813,0.806-3.9l0.533-0.512
		c-0.173-0.17-0.347-0.34-0.522-0.508c-0.655,1.289-2.185,2.015-3.588,1.692c-1.589-0.371-2.68-1.638-2.715-3.151
		c-0.031-1.37,0.469-2.35,1.526-2.987c-0.207-0.18-0.418-0.356-0.637-0.538c-0.604,1.258-1.639,1.919-3.02,1.919
		c-0.126-0.005-0.172-0.002-0.261-0.008c-1.439-0.084-2.683-1.087-3.024-2.438c-0.379-1.505,0.049-2.735,1.271-3.664l-0.65-0.523
		c-0.078,0.203-0.159,0.396-0.271,0.581c-0.578,0.94-1.681,1.549-2.81,1.549c-0.626,0-1.233-0.177-1.804-0.524
		c-0.832-0.508-1.409-1.366-1.583-2.354c-0.158-0.894,0.053-1.783,0.578-2.441c0.19-0.237,0.399-0.459,0.61-0.679
		c-0.222-0.155-0.444-0.309-0.673-0.451c-0.076,0.115-0.147,0.254-0.219,0.392c-0.142,0.271-0.288,0.552-0.507,0.793
		c-0.635,0.7-1.494,1.085-2.419,1.085c-0.959,0.001-1.874-0.409-2.575-1.154c-0.613-0.65-0.927-1.67-0.819-2.659
		c0.093-0.854,0.48-1.575,1.094-2.044c-0.216-0.146-0.435-0.285-0.654-0.423l-0.258,0.591c-0.571,1.122-1.703,1.813-2.961,1.813
		c-0.688,0-1.379-0.212-1.998-0.612c-0.695-0.45-1.197-1.244-1.375-2.18c-0.159-0.833-0.03-1.646,0.346-2.174l0.537-0.748
		l-0.012-0.007c-0.239-0.132-0.477-0.264-0.709-0.405c-0.247,1.055-0.836,1.803-1.769,2.292c-1.079,0.565-2.226,0.509-3.273-0.157
		c-0.997-0.631-1.559-1.536-1.625-2.616c-0.057-0.943,0.224-1.768,0.836-2.455c-0.247-0.131-0.484-0.254-0.729-0.357
		c-0.016,0.018-0.046,0.044-0.058,0.062c-0.093,0.174-0.171,0.37-0.25,0.566c-0.149,0.374-0.304,0.762-0.583,1.077
		c-1.23,1.386-3.131,1.495-4.759,0.166c-1.009-0.823-1.503-2.677-0.63-4.124c0.098-0.161,0.205-0.34,0.251-0.442
		c-0.099-0.06-0.298-0.148-0.493-0.235l-0.094-0.047c-0.028-0.015-0.066-0.004-0.098,0.008c-0.396,2.022-1.918,3.203-3.875,2.956
		c-1.361-0.175-2.439-1.091-2.815-2.391c-0.348-1.205,0.089-2.021,0.512-2.81c0.012-0.023,0.025-0.047,0.037-0.07l-0.753-0.237
		c-0.025,0.096-0.049,0.192-0.073,0.288c-0.124,0.5-0.252,1.018-0.554,1.441c-1.084,1.526-2.935,1.889-4.575,0.934
		c-1.516-0.884-1.998-2.566-1.257-4.391c0.038-0.093,0.082-0.184,0.128-0.273c-0.105-0.027-0.211-0.055-0.317-0.08
		c-0.143-0.033-0.286-0.065-0.432-0.098c0.031,0.798-0.276,1.607-0.855,2.242c-0.787,0.862-1.929,1.272-3.096,1.044
		c-1.007-0.199-1.873-0.813-2.376-1.686c-0.477-0.825-0.572-1.773-0.267-2.67c0.065-0.192,0.135-0.384,0.206-0.576l-0.758-0.187
		c0.083,0.896-0.209,1.765-0.826,2.449c-0.723,0.803-1.778,1.221-2.858,1.111c-1.332-0.138-2.517-1.071-2.883-2.27
		c-0.261-0.857-0.203-1.692,0.18-2.54c-0.022-0.004-0.044-0.008-0.067-0.011c-0.224-0.037-0.448-0.067-0.671-0.098
		c-0.013,0.194-0.026,0.389-0.046,0.581c-0.014,0.135-0.042,0.267-0.072,0.397l-0.036,0.169c-0.261,1.326-1.541,2.458-2.915,2.579
		c-1.43,0.123-2.921-0.721-3.459-1.912c-0.396-0.878-0.41-1.765-0.035-2.757c-0.286-0.022-0.56-0.043-0.832-0.056
		c0.107,1.206-0.167,2.121-0.897,2.908c-0.64,0.689-1.511,1.069-2.452,1.069c-1.44,0-2.676-0.863-3.147-2.2
		c-0.262-0.744-0.272-1.495-0.026-2.329h-0.777c0.026,0.232,0.052,0.465,0.076,0.697l-0.003,0.228
		c-0.303,1.918-1.609,3.129-3.332,3.129c-0.493,0-1.001-0.1-1.51-0.297c-1.142-0.442-2.206-1.96-1.908-3.431
		c0.031-0.15,0.005-0.285-0.073-0.38c-0.128-0.157-0.435-0.146-0.641-0.14c0.02,0.076,0.045,0.167,0.069,0.252
		c0.359,1.283-0.563,3.198-1.763,3.658c-1.58,0.607-2.94,0.361-3.972-0.706c-0.815-0.844-1.1-1.894-0.828-3.045
		c-0.182-0.008-0.366-0.01-0.551-0.01l-0.264,0.002c0.094,0.333,0.182,0.648,0.19,0.99c0.024,0.962-0.313,1.852-0.951,2.504
		c-0.884,0.908-2.242,1.217-3.563,0.793c-1.54-0.496-2.317-2.092-2.18-3.35l0.015-0.135c0.01-0.091,0.021-0.188,0.028-0.268
		c-0.1,0.004-0.2,0.015-0.319,0.026c-0.173,0.018-0.351,0.035-0.516,0.068c0.399,0.896,0.364,1.908-0.106,2.815
		c-0.509,0.985-1.461,1.677-2.483,1.807c-1.919,0.24-3.745-1.243-3.821-3.029c-0.009-0.211-0.015-0.422-0.019-0.632l-0.807,0.103
		c-0.006,0-0.011,0.001-0.017,0.002c0.006,0.027,0.015,0.063,0.026,0.106c0.199,0.739,0.367,1.46,0.227,2.139
		c-0.305,1.474-1.69,2.543-3.293,2.543c-0.308,0-0.614-0.041-0.91-0.122c-1.201-0.327-2.315-1.661-2.338-2.797
		c-0.004-0.258-0.009-0.521-0.031-0.653c-0.151,0.015-0.383,0.073-0.666,0.146c-0.064,0.022-0.116,0.041-0.168,0.054
		c0.583,0.982,0.613,2.064,0.088,3.131c-0.534,1.086-1.51,1.722-2.75,1.789c-2.023,0.118-3.391-1.063-3.554-2.998
		c-0.016-0.19-0.042-0.298-0.061-0.355c-0.045,0.016-0.103,0.039-0.146,0.056c-0.11,0.044-0.225,0.089-0.341,0.116
		c-0.122,0.034-0.203,0.059-0.29,0.068c0.001,0.002,0.002,0.004,0.004,0.006c0.523,0.789,0.682,1.712,0.446,2.6
		c-0.242,0.909-0.864,1.691-1.665,2.093c-0.583,0.292-1.165,0.439-1.73,0.439c-1.438,0-2.61-0.957-3.135-2.562
		c-0.036-0.111-0.07-0.251-0.104-0.391c-0.018-0.073-0.042-0.174-0.065-0.258c-0.144,0.027-0.289,0.085-0.44,0.145
		c-0.075,0.03-0.15,0.06-0.225,0.087c-0.006,0.013-0.012,0.026-0.018,0.039c0.368,0.618,0.73,1.449,0.534,2.516
		c-0.253,1.376-1.563,2.609-2.922,2.749c-1.608,0.167-3.264-0.975-3.574-2.395c-0.045-0.208-0.102-0.413-0.16-0.618l-0.697,0.274
		c-0.014,0.041-0.028,0.088-0.03,0.107c0.048,0.076,0.138,0.21,0.226,0.347c0.076,0.116,0.151,0.233,0.216,0.354
		c0.685,1.288,0.037,3.419-1.26,4.146c-0.581,0.327-1.193,0.492-1.819,0.493c-1.444,0-2.755-0.93-3.189-2.261l-0.061-0.198
		c-0.031-0.102-0.08-0.265-0.123-0.377c-0.108,0.029-0.228,0.087-0.345,0.144c-0.124,0.06-0.249,0.118-0.374,0.162
		c-0.009,0.004-0.019,0.007-0.027,0.01c0.008,0.009,0.017,0.019,0.027,0.028c0.83,0.837,1.082,1.884,0.749,3.109
		c-0.355,1.315-1.531,2.311-2.86,2.422c-2.003,0.158-2.858-0.896-3.438-1.939c-0.112-0.2-0.187-0.409-0.255-0.615
		c-0.221,0.118-0.443,0.233-0.675,0.324c-0.007,0.003-0.013,0.006-0.02,0.008c0.009,0.01,0.018,0.021,0.028,0.031
		c1.104,1.199,1.298,2.56,0.563,3.937c-0.496,0.931-1.442,1.556-2.532,1.673c-1.506,0.163-2.665-0.389-3.326-1.633
		c-0.128-0.24-0.249-0.485-0.369-0.73c-0.213,0.128-0.425,0.256-0.631,0.393c1.431,1.527,1.48,3.3,0.122,4.771
		c-0.613,0.665-1.498,1.047-2.428,1.047c-0.975,0-1.868-0.413-2.451-1.135c-0.259-0.321-0.454-0.682-0.643-1.03
		c-0.021-0.04-0.043-0.08-0.065-0.119c-0.222,0.133-0.453,0.272-0.675,0.425c0.736,0.624,1.185,1.521,1.239,2.487
		c0.054,0.961-0.29,1.851-0.968,2.505c-0.664,0.641-1.517,0.993-2.401,0.993c-1.174,0-2.238-0.604-2.845-1.617l-0.084-0.142
		c-0.076-0.127-0.153-0.258-0.208-0.336c-0.077,0.059-0.231,0.182-0.381,0.302l-0.092,0.076c-0.054,0.047-0.109,0.093-0.167,0.135
		c0.447,0.353,0.756,0.678,0.973,1.023c0.853,1.356,0.532,3.067-0.799,4.256c-0.512,0.458-1.36,0.753-2.161,0.753
		c-0.674,0-1.271-0.2-1.724-0.578c-0.396-0.331-0.73-0.704-1.083-1.1c-0.081-0.09-0.161-0.181-0.244-0.271
		c-0.08,0.063-0.167,0.133-0.253,0.204l-0.119,0.096c-0.081,0.063-0.158,0.123-0.211,0.182c0.976,0.656,1.541,1.67,1.556,2.802
		c0.015,1.136-0.537,2.185-1.477,2.806c-0.547,0.361-1.247,0.561-1.971,0.561c-1.052,0-1.955-0.412-2.414-1.104
		c-0.202-0.305-0.41-0.618-0.495-0.666c-0.022,0.037-0.292,0.307-0.552,0.567c-0.003,0.003-0.007,0.007-0.01,0.01
		c0.183,0.112,0.367,0.231,0.534,0.379c0.72,0.638,1.12,1.437,1.158,2.309c0.04,0.928-0.343,1.866-1.08,2.644
		c-0.538,0.569-1.367,0.896-2.275,0.896c-0.895,0-1.738-0.31-2.256-0.828c-0.228-0.229-0.416-0.484-0.596-0.732l-0.573,0.576
		c0.845,0.426,1.469,1.158,1.731,2.039c0.277,0.933,0.119,1.943-0.433,2.772c-0.642,0.963-1.627,1.516-2.703,1.516
		c-0.799,0-1.604-0.297-2.328-0.859c-0.217-0.169-0.418-0.36-0.619-0.552l-0.032-0.03l-0.395,0.303
		c0.016,0.108,0.002,0.21-0.042,0.305c0.892,0.294,1.53,0.978,1.898,2.035c0.438,1.261,0.109,2.493-0.924,3.471
		c-0.992,0.938-2.177,1.201-3.281,0.726c-0.502-0.217-0.953-0.547-1.389-0.866c-0.097-0.071-0.195-0.143-0.295-0.214
		c-0.133,0.192-0.291,0.415-0.465,0.624c-0.004,0.004-0.007,0.008-0.011,0.013c0.008,0.003,0.017,0.006,0.026,0.009
		c1.168,0.396,1.909,1.282,2.144,2.564c0.198,1.088-0.18,2.137-1.093,3.033c-0.563,0.554-1.344,0.859-2.2,0.859
		c-1.021,0-1.981-0.428-2.602-1.15c-0.151,0.217-0.296,0.438-0.442,0.658c0.032,0.013,0.063,0.023,0.096,0.034
		c1.014,0.325,1.783,1.097,2.109,2.114c0.334,1.045,0.141,2.16-0.53,3.06c-0.614,0.824-1.621,1.316-2.694,1.316
		c-0.938,0-1.807-0.385-2.395-1.058c-0.071,0.154-0.155,0.302-0.24,0.45c-0.051,0.088-0.102,0.177-0.148,0.267
		c0.896,0.226,1.713,0.909,2.167,1.83c0.482,0.98,0.475,2.068-0.021,2.984c-0.588,1.087-1.693,1.736-2.957,1.736
		c-0.734,0-1.446-0.224-2.058-0.646l-0.258-0.182l-0.374,0.729c-0.004,0.008-0.009,0.017-0.014,0.025
		c0.013-0.001,0.027-0.002,0.042-0.003c0.26,0,0.442,0.087,0.59,0.156l0.091,0.042c1.185,0.521,1.871,1.453,1.983,2.699
		c0.114,1.277-0.369,2.362-1.36,3.057c-1.333,0.927-2.766,0.887-4.13-0.12c-0.11,0.235-0.219,0.479-0.329,0.727
		c1.095,0.182,1.994,0.737,2.498,1.55c0.512,0.824,0.582,1.847,0.199,2.878c-0.521,1.401-1.686,2.238-3.117,2.238
		c-0.495,0-1-0.102-1.5-0.303c-0.204-0.081-0.402-0.177-0.601-0.274c-0.077,0.229-0.156,0.457-0.246,0.68
		c1.071,0.097,1.917,0.577,2.521,1.428c0.754,1.058,0.721,2.88-0.069,3.898c-0.965,1.249-2.677,1.707-4.09,1.095
		c-0.178-0.078-0.355-0.158-0.531-0.239l-0.207,0.633c-0.011,0.036-0.021,0.067-0.03,0.095h0.033c1.339,0,2.895,1.017,3.179,2.72
		c0.225,1.343-0.184,2.44-1.214,3.263c-0.912,0.728-2.285,0.887-3.419,0.404c-0.149-0.063-0.295-0.125-0.389-0.156
		c-0.041,0.106-0.094,0.295-0.146,0.478l-0.034,0.108c-0.013,0.04-0.033,0.1-0.035,0.122c0.011,0.002,0.043,0.043,0.07,0.074
		c2.249,0.146,3.439,1.421,3.355,3.597c-0.069,1.801-1.456,3.107-3.298,3.107c-0.278,0-0.56-0.031-0.836-0.093
		c-0.248-0.056-0.49-0.139-0.731-0.226l-0.139,0.762c0.005,0.005,0.01,0.009,0.013,0.011c0.125,0.012,0.31,0.026,0.494,0.042
		c0.355,0.029,0.723,0.061,1.076,0.188c1.596,0.571,2.416,2.372,1.865,4.1c-0.531,1.668-2.148,2.622-3.819,2.231
		c-0.257-0.06-0.515-0.115-0.772-0.172l-0.006-0.001c-0.037,0.252-0.072,0.504-0.093,0.757c0.082,0.007,0.209-0.003,0.337-0.003
		c1.271,0,2.503,0.624,2.997,1.518c0.71,1.289,0.668,2.599-0.121,3.788c-0.779,1.176-2.53,1.701-3.89,1.164
		c-0.018,0-0.035,0-0.051,0l0,0c-0.027,0.25-0.046,0.502-0.062,0.754l0.614-0.04l0.231,0.007c2.016,0.247,3.312,1.841,3.082,3.789
		c-0.224,1.903-1.89,3.193-3.858,2.907l-0.119-0.018c-0.145-0.021-0.258-0.039-0.347-0.044c-0.017,0.097-0.032,0.258-0.046,0.415
		c-0.011,0.124-0.022,0.247-0.027,0.37c0.478-0.078,1.287-0.144,1.827,0.014c1.599,0.464,2.63,2.077,2.349,3.675
		c-0.309,1.756-1.6,2.846-3.369,2.846h-0.103c-0.105-0.004-0.227-0.015-0.351-0.025c-0.131-0.012-0.283-0.025-0.377-0.023
		c-0.017,0.109-0.006,0.273,0.003,0.413c0.008,0.12,0.015,0.24,0.013,0.355c1.401-0.427,2.791,0.017,3.667,1.17
		c0.76,1,0.9,2.209,0.395,3.403c-0.528,1.254-1.569,1.944-2.931,1.944c-0.282-0.003-0.536-0.016-0.787-0.028l0.042,0.802
		c1.245-0.478,2.42-0.23,3.456,0.702c1.131,1.02,1.372,2.597,0.629,4.117c-0.534,1.092-2.009,1.816-3.408,1.629
		c0.037,0.268,0.08,0.535,0.123,0.799c0.208-0.07,0.402-0.133,0.6-0.174c1.206-0.238,2.389,0.102,3.168,0.922
		c0.623,0.656,0.938,1.547,0.889,2.507c-0.096,1.845-1.405,3.133-3.186,3.133h-0.001c-0.105,0-0.212-0.004-0.322-0.013
		c-0.103-0.008-0.197-0.008-0.242,0c0.015,0.029,0.031,0.097,0.071,0.199c0.071,0.186,0.117,0.379,0.159,0.575
		c0.167-0.051,0.336-0.102,0.505-0.146c1.317-0.354,2.711,0.047,3.545,1.011c0.633,0.73,0.899,1.701,0.75,2.73
		c-0.192,1.326-1.179,2.436-2.399,2.695c-0.329,0.069-0.663,0.113-0.998,0.158l-0.03,0.004l0.203,0.792
		c1.364-0.796,2.862-0.618,4.014,0.474c0.929,0.886,1.242,2.437,0.743,3.688c-0.493,1.24-1.608,2.011-2.91,2.011l-0.118-0.002
		c-0.04,0-0.072,0.002-0.098,0.004c0.008,0.029,0.021,0.066,0.039,0.113c0.055,0.139,0.098,0.283,0.137,0.428l0.031,0.123
		c0.015,0.063,0.037,0.147,0.059,0.219c0.033-0.027,0.077-0.065,0.13-0.119c0.143-0.141,0.321-0.189,0.465-0.23l0.105-0.031
		c1.303-0.465,2.683-0.16,3.582,0.77c0.648,0.668,0.988,1.58,0.957,2.566c-0.053,1.684-1.343,2.959-3.149,3.131
		c0.083,0.263,0.178,0.523,0.275,0.789c0.042-0.027,0.083-0.056,0.125-0.082c1.086-0.709,2.535-0.75,3.591-0.099
		c1.206,0.747,1.775,1.923,1.604,3.308c-0.166,1.348-0.995,2.322-2.333,2.746c-0.301,0.097-0.59,0.188-0.651,0.242
		c0.038,0.01,0.192,0.313,0.341,0.607c0.01,0.021,0.02,0.04,0.029,0.06c0.629-0.508,1.395-0.786,2.171-0.786
		c1.528,0,2.821,1.028,3.217,2.561c0.229,0.888,0.074,1.843-0.425,2.621c-0.5,0.777-1.286,1.299-2.215,1.467
		c0.108,0.245,0.229,0.488,0.354,0.734c1.09-0.953,2.309-1.164,3.561-0.608c1.326,0.585,2.048,1.666,2.036,3.044
		c-0.015,1.713-0.874,2.819-2.557,3.295c0.145,0.262,0.283,0.514,0.4,0.773l0.351-0.231c0.517-0.346,1.102-0.735,1.735-0.799
		c2.013-0.194,3.539,1.207,3.656,3.288c0.062,1.109-0.773,2.578-1.686,2.966c-0.23,0.097-0.464,0.185-0.699,0.271l0.428,0.687v0.001
		c1.192-1.326,3.21-1.521,4.564-0.43c1.273,1.023,1.929,2.988,0.636,4.607c-0.334,0.418-0.787,0.73-1.225,1.031
		c-0.102,0.07-0.204,0.141-0.307,0.213c0.138,0.192,0.295,0.409,0.461,0.627c0.609-0.844,1.512-1.281,2.729-1.281
		c1.208,0.019,2.11,0.568,2.771,1.638c0.714,1.155,0.718,2.379,0.011,3.356c-0.338,0.467-0.769,0.83-1.225,1.217
		c-0.112,0.095-0.225,0.189-0.338,0.289c0.13,0.172,0.285,0.375,0.454,0.568c0.825-1.188,2.655-1.794,3.927-1.246
		c1.223,0.527,1.945,1.383,2.146,2.545c0.237,1.375-0.211,2.514-1.296,3.295c-0.168,0.121-0.341,0.236-0.515,0.353
		c0.15,0.176,0.298,0.353,0.433,0.537c0.036,0.05,0.065,0.085,0.088,0.11c0.023-0.031,0.052-0.076,0.088-0.14
		c0.524-0.92,1.398-1.446,2.527-1.522c1.388-0.092,2.782,0.756,3.318,2.008c0.588,1.375,0.288,2.771-0.823,3.828
		c-0.186,0.178-0.383,0.344-0.581,0.51c0.184,0.188,0.368,0.374,0.547,0.566c0.779-1.43,2.037-2.029,3.603-1.722
		c1.455,0.292,2.402,1.312,2.668,2.871c0.179,1.052-0.187,2.021-1.087,2.879c-0.146,0.14-0.309,0.263-0.475,0.38l0.444,0.446
		c0.031,0.03,0.069,0.062,0.106,0.093c0.025,0.021,0.05,0.042,0.075,0.063l0.121-0.195c0.271-0.445,0.578-0.95,1.042-1.238
		c1.22-0.758,2.519-0.74,3.715,0.057c0.792,0.524,1.324,1.358,1.461,2.287c0.14,0.946-0.133,1.891-0.767,2.656
		c-0.176,0.213-0.374,0.405-0.574,0.598c0.201,0.162,0.401,0.322,0.603,0.482c0.003-0.008,0.007-0.018,0.01-0.023
		c0.421-1.117,1.283-1.822,2.49-2.039c1.284-0.229,2.412,0.223,3.241,1.268c1.016,1.28,0.91,3.27-0.233,4.343
		c-0.1,0.095-0.267,0.251-0.351,0.351c0.1,0.084,0.295,0.212,0.46,0.32c0.044,0.027,0.087,0.063,0.13,0.096
		c0.022,0.019,0.044,0.037,0.066,0.053c-0.003-0.006,0.006-0.014,0.018-0.02c0.302-0.697,0.79-1.533,1.845-1.973
		c1.501-0.626,2.907-0.25,4.056,1.083c0.833,0.968,0.82,2.866-0.026,3.984c-0.137,0.18-0.279,0.354-0.422,0.53l0.617,0.408
		c0.004,0.002,0.009,0.006,0.013,0.008c0.432-1.467,1.733-2.48,3.202-2.48c0.7,0,1.38,0.232,1.968,0.672
		c0.875,0.655,1.393,1.542,1.455,2.497c0.06,0.924-0.309,1.844-1.041,2.604c0.229,0.139,0.468,0.271,0.714,0.4
		c0.587-1.932,1.957-2.846,3.994-2.521c0.974,0.154,1.832,0.855,2.297,1.881c0.471,1.035,0.432,2.16-0.103,3.01
		c-0.133,0.211-0.281,0.413-0.43,0.615l0.73,0.349c0.225-1.517,1.703-2.769,3.315-2.769c0.211,0,0.421,0.021,0.625,0.065
		c1.215,0.263,2.167,1.113,2.545,2.275c0.35,1.073,0.129,2.227-0.59,3.118c0.269,0.14,0.519,0.252,0.757,0.343
		c0.167-1.449,1.033-2.464,2.447-2.864c1.201-0.341,2.728,0.128,3.405,1.038c1.074,1.438,1.14,2.642,0.184,4.164
		c0.264,0.089,0.522,0.177,0.774,0.278c0.014,0.006,0.027,0.011,0.039,0.015c0-0.013,0.001-0.026,0.001-0.041
		c0.038-1.915,1.734-3.401,3.667-3.128c1.226,0.168,2.202,0.865,2.679,1.914c0.459,1.011,0.368,2.205-0.24,3.229
		c0.272,0.094,0.545,0.178,0.824,0.262c0.043-1.926,1.427-3.377,3.223-3.377c0.261,0,0.529,0.031,0.795,0.091
		c1.028,0.229,1.844,0.852,2.297,1.749c0.452,0.896,0.477,1.939,0.069,2.863l-0.062,0.14c-0.036,0.081-0.074,0.167-0.104,0.239
		c0.089,0.017,0.203,0.033,0.315,0.052l0.061,0.388l0.049-0.371c0.101,0.014,0.225,0.029,0.35,0.082
		c0.033,0.014,0.061,0.024,0.084,0.033c0.002-0.033,0.004-0.074,0.003-0.127c-0.013-0.991,0.322-1.883,0.942-2.512
		c0.75-0.76,1.881-1.078,3.059-0.863c1.671,0.309,2.89,2.021,2.608,3.669c-0.064,0.374-0.188,0.729-0.309,1.074
		c-0.005,0.014-0.01,0.026-0.015,0.041c0.261,0.046,0.53,0.092,0.802,0.13c-0.058-1.35,0.409-2.407,1.411-3.113
		c1.019-0.717,2.821-0.717,3.888-0.01c1.062,0.701,1.622,2.18,1.331,3.516c-0.042,0.195-0.093,0.391-0.145,0.584l0.652,0.082
		c0.042,0.004,0.083,0.008,0.123,0.014c-0.198-0.836,0.05-1.805,0.667-2.596c0.597-0.768,1.443-1.226,2.264-1.226l0,0
		c0.188,0,0.235-0.026,0.237-0.026c-0.007-0.002,0.009-0.063,0.008-0.275c-0.009-5.793-0.008-11.586-0.008-17.377v-6.916
		c0-3.744-0.001-7.489,0.003-11.234c0-0.439-0.111-0.58-0.518-0.65l-0.913-0.162c-2.031-0.355-4.13-0.726-6.18-1.178
		c-5.542-1.223-11.061-3.049-16.875-5.582c-7.202-3.138-14.014-7.229-20.247-12.166c-5.924-4.689-11.228-10.054-15.766-15.938
		c-4.562-5.915-8.343-12.198-11.239-18.677c-3.907-8.741-6.434-17.725-7.512-26.696c-0.166-1.386-0.216-2.624-0.152-3.789
		c0.088-1.591,0.924-2.886,1.731-3.942c0.924-1.212,2.088-2.1,3.461-2.638c1.613-0.631,3.33-0.745,5.151-0.343
		c2.782,0.615,5.536,3.365,6.015,6.006c0.092,0.504,0.149,1.015,0.208,1.525c0.063,0.561,0.129,1.141,0.242,1.691l0.331,1.615
		c0.604,2.958,1.229,6.016,1.95,8.994c1.148,4.75,3.049,9.549,5.985,15.104c2.797,5.292,6.109,10.098,9.845,14.283
		c4.713,5.28,9.411,9.475,14.362,12.818c6.497,4.392,13.496,7.725,20.804,9.908c2.109,0.629,4.297,1.145,6.414,1.642
		c0.666,0.157,1.331,0.313,1.995,0.474c0.157,0.038,0.296,0.057,0.415,0.057c0.259,0,0.491-0.049,0.491-0.653v-8.929
		c0-8.979,0-17.959,0.004-26.938c0-0.358-0.106-0.511-0.475-0.674c-0.517-0.229-1.037-0.454-1.557-0.679
		c-1.645-0.711-3.345-1.444-4.93-2.342c-4.235-2.396-7.922-5.474-10.958-9.146c-4.821-5.831-7.807-12.753-8.875-20.574
		c-0.511-3.744-0.423-7.656,0.26-11.63c0.959-5.576,3.083-10.819,6.309-15.582c3.056-4.508,6.887-8.271,11.386-11.187
		c3.651-2.364,7.842-4.122,12.81-5.373c0.142-0.036,0.27-0.132,0.341-0.255c0.041-0.071,0.082-0.183,0.045-0.313
		c-0.116-0.406-0.347-0.328-0.556-0.271c-3.05,0.843-5.787,1.643-8.395,2.9c-5.908,2.85-10.964,6.928-15.026,12.119
		c-2.673,3.416-4.776,7.459-6.429,12.361c-0.827,2.456-1.37,4.994-1.612,7.544c-0.647,6.791,0.013,12.791,2.018,18.345
		c1.632,4.521,3.911,8.599,6.773,12.118c3.555,4.368,7.97,7.938,13.124,10.605c2.416,1.25,3.905,3.021,4.551,5.414
		c0.669,2.478,0.278,4.825-1.16,6.979c-0.979,1.468-2.434,2.541-4.324,3.189c-1.772,0.609-3.507,0.606-5.112-0.008
		c-2.845-1.092-5.323-2.711-8.037-4.561c-7.637-5.199-13.743-12.039-18.148-20.327c-3.022-5.687-5.073-11.81-6.094-18.197
		c-0.064-0.396-0.276-0.369-0.497-0.326c-0.232,0.046-0.349,0.134-0.303,0.479c0.473,3.517,1.372,7.06,2.747,10.834
		c1.486,4.078,3.466,8.086,5.886,11.91c2.328,3.678,5.184,7.119,8.731,10.521c5.647,5.417,12.447,9.646,20.211,12.571
		c1.953,0.735,4.357,1.938,5.62,4.739c0.772,1.713,0.988,3.442,0.641,5.143c-0.448,2.203-1.62,3.967-3.481,5.241
		c-2.25,1.538-4.619,1.932-6.98,1.153c-1.829-0.603-3.696-1.308-5.549-2.097c-6.026-2.563-11.901-6.147-17.46-10.649
		c-4.667-3.778-8.529-7.676-11.807-11.912c-4.697-6.071-8.378-12.519-10.94-19.158c-2.703-7.004-4.358-14.354-4.921-21.842
		c-0.429-5.728-0.139-11.71,0.863-17.783c0.561-3.396,1.435-6.904,2.671-10.724c2.584-7.975,6.516-15.496,11.686-22.355
		c5.506-7.306,12.415-13.544,20.533-18.541c3.599-2.215,7.561-4.195,11.776-5.885c4.391-1.759,9.004-3.068,13.713-3.893
		c1.708-0.3,3.529-0.597,5.371-0.643l0.172-0.002c2.014,0,3.898,0.899,5.448,2.6c1.907,2.096,2.625,4.526,2.134,7.227
		c-0.202,1.108-0.625,2.18-1.226,3.095c-1.432,2.188-3.579,3.431-6.562,3.802c-4.172,0.516-8.467,1.666-13.132,3.516
		c-5.391,2.137-10.349,5.003-14.738,8.519c-4.26,3.413-7.768,7.016-10.725,11.015c-3.739,5.056-6.619,10.774-8.806,17.481
		c-0.861,2.641-1.49,5.424-1.87,8.273c-0.057,0.428,0.117,0.494,0.316,0.528c0.173,0.027,0.396,0.063,0.478-0.323
		c0.126-0.599,0.246-1.199,0.366-1.801c0.146-0.732,0.292-1.465,0.45-2.194c1.232-5.687,3.5-11.344,6.743-16.815
		c3.83-6.462,8.81-11.986,14.801-16.421c8.043-5.952,17.035-9.65,26.725-10.989c4.018-0.556,8.159-0.665,12.298-0.333
		c3.469,0.281,7.047,0.893,10.637,1.817c3.961,1.021,7.941,2.616,12.169,4.873c4.067,2.174,7.76,4.796,10.978,7.793
		c4.516,4.205,7.745,8.006,10.161,11.962c1.897,3.104,4.024,6.833,5.42,10.959c0.833,2.46,1.474,5.023,2.093,7.502l0.441,1.755
		c0.595,2.335,0.159,4.606-1.26,6.571c-1.956,2.705-4.637,3.897-7.952,3.539c-2.029-0.226-3.773-1.189-5.331-2.948
		c-1.305-1.476-1.717-3.311-2.081-4.929c-1.309-5.833-3.456-10.765-6.563-15.077c-3.558-4.94-8.012-8.973-13.238-11.986
		c-3.026-1.746-6.529-3.102-11.024-4.266c-0.253-0.065-0.518-0.127-0.594,0.334c-0.033,0.193-0.024,0.362,0.416,0.48l0.698,0.189
		c0.936,0.252,1.903,0.513,2.845,0.817c4.453,1.439,8.583,3.649,12.276,6.566c4.602,3.636,8.233,8.041,10.795,13.092
		c2.451,4.83,3.833,9.514,4.226,14.321c0.409,4.982,0.086,9.462-0.988,13.691c-0.933,3.674-2.46,7.297-4.54,10.771
		c-3.048,5.089-7.041,9.291-11.869,12.489c-2.966,1.967-6.026,3.514-9.094,4.599c-0.425,0.149-0.416,0.366-0.342,0.577
		c0.092,0.268,0.245,0.302,0.368,0.302c0.092,0,0.199-0.024,0.309-0.069l0.137-0.058c1.411-0.583,2.869-1.187,4.26-1.856
		c5.298-2.551,9.884-6.179,13.629-10.779c3.473-4.271,5.957-8.964,7.381-13.949c0.213-0.747,0.391-1.523,0.562-2.275
		c0.247-1.08,0.501-2.196,0.871-3.266c1.055-3.048,3.212-4.992,6.238-5.624c2.748-0.571,5.237,0.11,7.303,2.002
		c0.682,0.626,1.241,1.405,1.744,2.155c0.91,1.357,1.255,2.979,0.998,4.688c-0.307,2.053-0.806,4.022-1.378,6.2
		c-1.36,5.168-3.571,10.115-6.758,15.123c-3.445,5.413-7.572,10.062-12.265,13.813c-6.831,5.46-14.568,9.279-22.996,11.352
		c-0.512,0.126-0.462,0.34-0.421,0.512c0.075,0.319,0.29,0.396,0.666,0.309l0.513-0.123c0.91-0.217,1.851-0.439,2.75-0.725
		c3.969-1.25,7.846-2.914,11.522-4.946c3.762-2.08,7.212-4.476,10.255-7.116c2.734-2.374,5.333-5.202,7.945-8.645
		c3.515-4.633,6.34-9.82,8.396-15.418c1.219-3.318,2.551-9.054,2.969-12.783c0.219-1.953,0.476-4.533,0.521-7.155
		c0.07-3.911-0.536-7.858-1.202-11.542c-0.882-4.878-2.633-9.836-5.353-15.155c-3.151-6.163-7.326-11.626-12.408-16.237
		c-3.887-3.525-7.748-6.277-11.803-8.412c-6.196-3.261-12.891-5.411-19.899-6.393c-2.865-0.402-4.986-1.903-6.305-4.459
		c-1.437-2.781-1.3-5.658,0.396-8.319c1.803-2.832,4.915-4.27,8.242-3.791c3.707,0.529,7.518,1.362,11.327,2.476
		c5.155,1.507,9.957,3.459,14.273,5.8c4.751,2.58,9.151,5.62,13.079,9.037c5.656,4.921,10.182,9.994,13.835,15.509
		c3.257,4.917,5.963,10.279,8.042,15.939c2.003,5.452,3.365,11.139,4.049,16.901c0.044,0.378,0.264,0.378,0.347,0.378
		c0.037,0,0.077-0.004,0.118-0.011c0.105-0.019,0.246-0.063,0.314-0.163c0.053-0.076,0.065-0.188,0.038-0.332
		c-0.212-1.093-0.411-2.19-0.61-3.288c-0.455-2.511-0.926-5.106-1.549-7.613c-1.328-5.34-3.402-10.59-6.343-16.05
		c-3.08-5.715-6.803-10.983-11.068-15.657c-4.672-5.123-10.112-9.588-16.168-13.271c-7.134-4.339-14.701-7.438-22.491-9.212
		c-4.589-1.045-8.9-1.649-13.179-1.847c-7.041-0.325-13.807,0.211-20.18,1.604c-4.053,0.886-8.114,2.134-12.07,3.709
		c-6.038,2.404-11.852,5.676-17.282,9.722c-5.897,4.396-10.919,9.356-14.924,14.744c-5.087,6.842-8.775,13.742-11.275,21.095
		c-1.587,4.671-2.752,9.532-3.463,14.446c-0.046,0.318-0.087,0.638-0.127,0.959c-0.138,1.08-0.28,2.196-0.623,3.246
		c-1.018,3.113-3.142,5.034-6.313,5.709c-2.178,0.461-4.263,0.088-6.026-1.084c-3.085-2.052-4.385-4.938-3.864-8.585
		c0.547-3.824,1.167-8.159,2.22-12.34c1.468-5.818,3.497-11.493,6.031-16.864c3.146-6.67,7.012-12.875,11.491-18.442
		c4.983-6.194,10.853-11.829,17.446-16.749c5.612-4.187,11.749-7.719,18.242-10.498c5.751-2.464,11.582-4.32,17.331-5.517
		c1.932-0.402,3.917-0.69,5.835-0.969c0.767-0.11,1.534-0.222,2.299-0.341c0.379-0.058,0.761-0.101,1.142-0.143
		c0.406-0.045,0.813-0.089,1.215-0.155c0.088-0.015,0.167-0.038,0.233-0.069c-0.191-0.253-0.361-0.519-0.508-0.797l-0.822,0.095
		c-1.329,0.151-2.704,0.308-4.03,0.559c-3.038,0.577-6.272,1.205-9.487,1.983c-5.167,1.251-10.249,3.027-15.104,5.28
		c-7.488,3.477-13.789,7.314-19.261,11.735c-6.705,5.414-12.242,11.071-16.926,17.296c-6.975,9.267-12.063,19.481-15.123,30.361
		c-1.045,3.716-1.808,7.081-2.333,10.289c-0.551,3.366-0.937,6.978-1.179,11.04c-0.432,7.203,0.074,14.642,1.505,22.109
		c0.905,4.725,2.218,9.503,4.015,14.61c2.907,8.262,7.214,16.167,13.168,24.17c5.806,7.802,12.949,14.649,21.23,20.354
		c4.466,3.073,8.64,5.54,12.758,7.541c4.321,2.098,8.927,3.864,13.691,5.252c0.044,0.015,4.469,1.299,6.312,1.729
		c3.27,0.762,5.377,2.459,6.443,5.188c0.901,2.31,0.837,4.516-0.195,6.744c-1.081,2.331-3.008,3.868-5.73,4.569
		c-1.388,0.356-2.905,0.28-4.624-0.234c-1.388-0.415-2.787-0.799-4.185-1.182c-1.804-0.494-3.67-1.005-5.485-1.581
		c-5.844-1.854-11.489-4.219-16.777-7.021c-6.406-3.397-12.591-7.51-18.382-12.219c-8.426-6.854-15.747-14.855-21.758-23.785
		c-5.832-8.66-10.332-17.814-13.375-27.21c-1.173-3.62-2.031-7.403-2.86-11.062c-0.236-1.043-0.473-2.086-0.716-3.125
		c-0.445-1.902-0.722-3.869-0.99-5.771c-0.106-0.754-0.213-1.507-0.329-2.256c-0.129-0.834-0.186-1.682-0.24-2.501
		c-0.02-0.305-0.04-0.608-0.064-0.913c-0.036-0.472-0.238-0.472-0.372-0.472c-0.037,0-0.076,0.002-0.117,0.008
		c-0.216,0.027-0.354,0.078-0.308,0.519c0.063,0.611,0.117,1.225,0.171,1.838c0.115,1.304,0.233,2.652,0.447,3.955
		c0.528,3.209,1.159,6.938,1.967,10.598c1.217,5.521,3.035,11.222,5.401,16.939c2.746,6.633,5.815,12.519,9.381,17.989
		c5.189,7.957,10.808,14.706,17.179,20.634c4.394,4.088,9.165,7.905,14.179,11.346c6.998,4.803,14.692,8.736,23.521,12.025
		c4.848,1.807,10.014,3.305,15.794,4.576c0.346,0.076,0.693,0.143,1.041,0.209c1.314,0.252,2.674,0.514,3.913,1.286
		c2.019,1.259,3.32,2.985,3.868,5.136c0.698,2.74,0.14,5.231-1.659,7.404c-1.991,2.402-4.536,3.418-7.452,2.956
		c-4.204-0.659-8.596-1.724-14.241-3.45c-7.188-2.199-14.135-5.011-20.646-8.354c-8.436-4.334-15.557-8.89-21.77-13.928
		c-5.979-4.85-11.099-9.689-15.652-14.798c-5.642-6.333-10.651-13.229-14.888-20.502c-3.98-6.832-7.054-13.211-9.396-19.501
		c-1.908-5.124-3.37-9.824-4.469-14.372c-0.571-2.36-1.033-4.786-1.48-7.132c-0.233-1.225-0.466-2.447-0.715-3.667
		c-0.725-3.56-1.17-7.503-1.403-12.413c-0.276-5.822-0.45-12.684,0.357-19.431l0.235-2.004c0.39-3.361,0.792-6.838,1.488-10.204
		c1.118-5.413,2.418-10.587,3.864-15.377c1.57-5.196,3.767-10.59,6.914-16.974c3.819-7.753,8.149-14.813,12.869-20.983
		c4.826-6.313,10.246-12.21,16.108-17.524c4.067-3.688,7.934-6.816,11.821-9.566c4.103-2.9,8.465-5.612,12.967-8.059
		c4.838-2.632,9.974-5.018,15.264-7.09c4.993-1.956,10.343-3.582,15.901-4.833c2.962-0.666,5.864-1.304,8.8-1.788
		c2.709-0.446,5.48-0.78,8.161-1.104l1.759-0.213c1.12-0.138,8.83-0.508,9.379-0.508c1.075,0.012,2.07-0.004,3.135-0.022
		c0.831-0.015,1.673-0.029,2.516-0.029c2.162,0,3.779,0.1,5.245,0.322c0.544,0.082,1.093,0.127,1.75,0.169
		c2.706,0.175,8.493,0.957,11.908,1.609c3.25,0.62,6.636,1.396,10.353,2.374c5.796,1.521,10.948,3.247,15.75,5.277
		c8.946,3.782,16.717,7.989,23.759,12.861c7.415,5.131,13.738,10.492,19.331,16.392c5.17,5.454,9.784,11.129,13.712,16.869
		c4.9,7.157,8.941,14.553,12.012,21.98c1.981,4.793,3.375,8.53,4.521,12.118c1.887,5.905,3.242,11.803,4.027,17.528l0.057,0.416
		c0.542,3.958,1.104,8.05,1.369,12.102c0.275,4.177,0.236,8.317,0.173,12.2c-0.08,4.92-0.522,9.901-1.315,14.811
		c-0.878,5.434-1.801,9.904-2.904,14.07c-1.305,4.931-2.916,9.778-4.789,14.412c-2.152,5.325-4.386,10.036-6.827,14.401
		c-4.048,7.237-8.689,13.974-13.794,20.024c-6.091,7.215-11.67,12.719-17.561,17.322c-3.116,2.434-6.834,5.285-10.793,7.977
		c-4.151,2.818-8.78,5.41-15.008,8.4c-5.269,2.53-10.796,4.653-16.427,6.313c-3.254,0.959-7.55,2.187-11.914,3.173
		c-2.433,0.55-4.942,0.923-7.368,1.285c-1.015,0.15-2.03,0.302-3.042,0.466c-3.948,0.64-7.884,0.876-12.58,1.037l-0.194,0.003
		c-0.481,0-1.405-0.038-2.489-0.083c-1.893-0.078-4.354-0.179-5.677-0.123v0.567c0,0.058-0.004,0.117-0.009,0.179
		c-0.004,0.052-0.011,0.13-0.004,0.155c0.027,0.063,0.105,0.149,0.186,0.199c0.009,0.004,0.065,0.01,0.102,0.016
		c0.083,0.012,0.186,0.025,0.291,0.066C168.618,311.405,169.402,312.913,168.959,314.84z"/>
</svg>
