<?xml version="1.0" encoding="utf-8"?>
<!-- Generator: Adobe Illustrator 16.0.0, SVG Export Plug-In . SVG Version: 6.00 Build 0)  -->
<!DOCTYPE svg PUBLIC "-//W3C//DTD SVG 1.1//EN" "http://www.w3.org/Graphics/SVG/1.1/DTD/svg11.dtd">
<svg version="1.1" id="Layer_1" xmlns="http://www.w3.org/2000/svg" xmlns:xlink="http://www.w3.org/1999/xlink" x="0px" y="0px"
	 width="154.562px" height="186.73px"
	 xml:space="preserve">
	<path d="M1193.952,311.413l0.001-6.178c0.001-8.077,0.003-16.155-0.007-24.232c-0.003-2.016-1.57-3.773-3.569-4.005
		c-7.2-0.834-14.342-2.56-21.226-5.126c-5.618-2.096-11.22-4.982-16.646-8.582c-7.86-5.214-14.829-11.694-20.71-19.262
		c-3.704-4.767-6.991-10.248-10.053-16.76c-0.093-0.313-0.198-0.535-0.301-0.75c-0.187-0.391-0.377-0.795-0.209-1.224
		c0.155-0.396,0.571-0.703,1.391-1.028l0.343-0.137l0.143,0.34c2.531,6.053,5.869,11.883,9.917,17.331
		c2.343,3.156,5.038,6.025,7.381,8.468c5.524,5.758,12.067,10.67,20.001,15.016c5.014,2.744,10.531,4.959,16.4,6.578
		c2.645,0.73,5.478,1.387,8.66,2.005c2.145,0.416,4.307-0.038,5.876-1.245c1.707-1.313,2.609-3.063,2.609-5.063l-0.003-8.761
		c-0.005-9.618-0.009-19.237,0.019-28.856c0.009-2.207-0.611-3.894-1.954-5.307c-0.952-1.006-2.191-1.511-3.166-1.839
		c-6.688-2.256-12.196-6.503-16.37-12.623c-2.871-4.211-4.636-8.957-5.241-14.106c-0.905-7.681,0.626-14.795,4.551-21.147
		c3.51-5.68,8.354-9.94,14.399-12.664c2.28-1.027,4.633-1.727,6.846-2.355c2.021-0.575,3.565-1.89,4.59-3.909
		c0.921-1.816,1.049-3.742,0.378-5.724c-1.04-3.077-4.018-5.145-7.408-5.145c-0.62,0-1.24,0.072-1.845,0.215
		c-4.489,1.062-8.775,2.714-12.741,4.911c-2.885,1.598-5.683,3.627-8.555,6.203c-4.854,4.354-8.763,9.829-11.948,16.735
		c-1.009,2.188-1.793,4.479-2.329,6.808c-1.229,5.318-1.691,10.064-1.413,14.515c0.347,5.513,1.541,10.822,3.55,15.783
		c1.58,3.903,3.845,7.696,6.924,11.597c4.168,5.28,9.45,9.602,15.7,12.844c0.407,0.211,0.686,0.515,0.785,0.854
		c0.079,0.268,0.046,0.539-0.098,0.788c-0.345,0.604-1.185,0.803-1.823,0.411c-0.653-0.4-1.315-0.791-1.978-1.182
		c-1.62-0.957-3.295-1.945-4.848-3.067c-7.271-5.246-12.834-12.193-16.538-20.647c-1.535-3.505-2.616-7.188-3.307-11.262
		c-0.369-2.191-0.994-3.695-2.027-4.878c-1.149-1.315-2.594-2.136-4.294-2.438c-2.685-0.479-4.933,0.229-6.865,2.157
		c-1.269,1.269-1.967,2.854-2.133,4.853c-0.126,1.479,0.196,2.875,0.537,4.353c0.113,0.496,0.228,0.991,0.323,1.488
		c0.799,4.12,2.215,8.36,4.461,13.348c1.824,4.05,4.332,8.148,7.668,12.536c3.545,4.663,7.889,8.912,12.911,12.628
		c4.821,3.568,10.323,6.547,16.354,8.853l0.426,0.154c0.178,0.063,0.356,0.127,0.532,0.195c0.317,0.123,0.546,0.327,0.659,0.59
		c0.107,0.251,0.104,0.536-0.015,0.824c-0.277,0.682-0.707,0.825-1.018,0.825c-0.125,0-0.255-0.023-0.388-0.069
		c-7.365-2.572-14.2-6.374-20.317-11.296c-5.383-4.335-10.139-9.577-14.137-15.583c-1.916-2.88-3.685-6.212-5.563-10.488
		c-1.916-4.359-3.362-9.115-4.422-14.533c-0.896-4.586-1.241-9.526-1.055-15.106c0.146-4.44,0.835-9.03,2.101-14.032
		c1.887-7.457,5.208-14.711,9.873-21.562c2.982-4.38,6.591-8.481,10.726-12.19c5.695-5.109,12.366-9.234,19.825-12.261
		c4.056-1.646,10.896-3.395,14.907-4.07c0.409-0.068,0.82-0.135,1.231-0.193c0.382-0.052,0.983,0.107,1.275,0.478
		c0.272,0.345,0.193,1.067-0.065,1.376c-0.276,0.327-0.74,0.466-1.158,0.559c-1.097,0.24-2.197,0.464-3.298,0.688
		c-2.187,0.444-4.445,0.903-6.625,1.492c-3.518,0.949-6.768,2.389-9.482,3.672c-5.213,2.464-10.212,5.813-15.279,10.237
		c-3.094,2.7-5.991,5.911-8.861,9.815c-3.924,5.344-7.004,11.117-9.154,17.162c-1.176,3.299-2.104,6.924-2.839,11.082
		c-0.347,1.966-0.115,3.818,0.667,5.359c0.699,1.377,1.717,2.433,3.023,3.135c0.943,0.508,1.965,0.813,3.212,0.964
		c1.452,0.175,2.831-0.151,4.337-0.985c1.648-0.912,2.807-2.328,3.347-4.095c0.194-0.633,0.314-1.31,0.433-1.965
		c0.108-0.615,0.223-1.251,0.397-1.868c0.18-0.631,0.354-1.263,0.528-1.896c0.606-2.2,1.234-4.477,2.093-6.628
		c2.842-7.127,7.065-13.287,12.557-18.31c6.071-5.553,13.321-9.492,21.55-11.711c4.58-1.233,9.531-1.758,14.584-1.565
		c5.513,0.209,10.959,1.372,16.191,3.457c9.021,3.597,16.482,9.329,22.18,17.039c3.738,5.061,6.455,10.686,8.075,16.718
		c0.263,0.979,0.463,1.98,0.657,2.951l0.186,0.916c0.09,0.43,0.043,0.782-0.138,1.053c-0.107,0.162-0.321,0.369-0.725,0.445
		c-0.096,0.018-0.188,0.025-0.271,0.025c-0.335,0-0.93-0.143-1.146-1.093c-0.619-2.734-1.516-6.318-2.967-9.804
		c-1.542-3.708-3.646-7.326-6.248-10.754c-3.893-5.124-8.893-9.357-15.285-12.941c-3.352-1.877-7.109-3.297-11.488-4.34
		c-2.184-0.519-3.966-0.38-5.648,0.432c-1.813,0.875-3.086,2.273-3.779,4.155c-0.692,1.882-0.624,4,0.188,5.812
		c1.019,2.268,2.851,3.728,5.448,4.337c3.254,0.763,6.427,2.063,9.431,3.864c7.721,4.628,12.77,11.421,15.006,20.191
		c1.171,4.597,1.298,9.301,0.378,13.981c-1.452,7.394-5.041,13.625-10.665,18.522c-3.019,2.629-6.631,4.679-11.049,6.268
		c-1.892,0.682-3.26,1.967-4.066,3.818c-0.569,1.308-0.809,2.35-0.776,3.382c0.083,2.723,1.313,4.856,3.649,6.342
		c2.166,1.378,4.518,1.503,7.468,0.382c6.213-2.357,11.752-5.861,16.465-10.412c6.384-6.164,10.771-13.539,13.035-21.918
		c0.248-0.916,0.458-1.861,0.66-2.775c0.087-0.393,0.174-0.784,0.265-1.176c0.164-0.723,0.688-1.094,1.438-0.946
		c0.399,0.075,0.606,0.289,0.711,0.454c0.164,0.258,0.201,0.586,0.107,0.947c-0.186,0.717-0.358,1.438-0.532,2.157
		c-0.432,1.787-0.878,3.636-1.479,5.405c-2.99,8.822-8.301,16.374-15.782,22.441c-5.24,4.252-11.077,7.313-17.351,9.097
		c-0.457,0.13-0.918,0.248-1.379,0.366c-0.771,0.197-1.569,0.4-2.328,0.66c-2.082,0.713-3.635,2.301-4.489,4.594
		c-0.351,0.938-0.502,1.964-0.437,2.961c0.166,2.504,1.307,4.502,3.393,5.939c1.188,0.818,2.496,1.217,4.002,1.217
		c0.827,0,1.735-0.117,2.778-0.361c4.37-1.021,8.932-2.725,13.946-5.209c4.501-2.23,8.806-5.094,12.795-8.51
		c5.008-4.285,9.322-9.273,12.825-14.826c3.494-5.542,6.098-11.419,7.732-17.467c1.135-4.19,1.887-8.323,2.235-12.282
		c0.173-1.956,0.172-3.97,0.17-5.915v-0.508c0.004-4.58-0.629-9.385-1.992-15.121c-0.474-1.996-1.47-5.146-2.221-7.022
		c-2.979-7.438-6.672-13.677-11.294-19.073c-4.854-5.671-10.596-10.439-17.556-14.58c-3.321-1.975-6.854-3.422-11.138-4.986
		c-3.438-1.255-7.072-2.147-11.115-2.729l-0.125-0.018c-0.433-0.062-0.879-0.125-1.317-0.236c-1.157-0.291-1.118-1.094-1.048-1.426
		c0.158-0.745,0.757-1.065,1.593-0.905c0.595,0.113,1.19,0.223,1.786,0.333c1.276,0.235,2.554,0.471,3.823,0.739
		c3.804,0.808,7.178,1.833,10.315,3.134c5.015,2.078,9.677,4.594,13.858,7.476c3.743,2.578,7.362,5.817,11.391,10.194
		c4.14,4.499,7.696,9.864,10.873,16.402c2.233,4.594,3.888,9.492,5.056,14.977c0.298,1.401,0.535,2.836,0.765,4.226
		c0.147,0.891,0.295,1.782,0.459,2.67c0.331,1.79,1.319,3.294,2.938,4.469c1.324,0.961,2.783,1.448,4.335,1.448l0.689-0.02
		l-0.079,0.455c-0.081,0.467-0.066,0.976,0.04,1.467l0.101,0.457l-0.468-0.002c-0.001,0-0.001,0-0.002,0
		c-0.627,0-1.12,0.045-1.6,0.141c-3.303,0.654-5.626,3.087-6.063,6.347c-0.619,4.597-1.47,8.655-2.598,12.41
		c-1.173,3.902-2.906,7.64-4.447,10.779c-2.082,4.243-4.824,8.354-8.633,12.934c-4.109,4.946-9.147,9.396-14.975,13.224
		c-3.438,2.26-7.202,4.226-11.191,5.846c-4.889,1.984-9.293,3.264-13.465,3.911c-1.816,0.282-3.67,0.495-5.463,0.7l-1.828,0.213
		c-0.722,0.089-1.154-0.035-1.422-0.396c-0.187-0.251-0.27-0.603-0.268-1.139l0.006-9.271c0.01-13.395,0.019-26.789,0.02-40.183
		c0-0.804,0.436-1.363,1.161-1.498c0.764-0.133,1.359,0.283,1.599,1.06c0.008,0.004,0.066,0.056,0.106,0.09
		c0.053,0.045,0.104,0.09,0.149,0.137c0.071,0.074,0.156,0.146,0.24,0.22c0.252,0.216,0.538,0.461,0.604,0.812
		c0.063,0.328-0.177,0.589-0.388,0.818c-0.093,0.102-0.188,0.205-0.234,0.288c-0.109,0.197-0.135,0.343-0.129,0.378
		c0.874,2.34,2.354,3.963,4.519,4.95c1.179,0.536,2.415,0.81,3.679,0.81c2.568,0,4.99-1.125,6.646-3.086
		c1.725-2.045,2.402-4.768,1.907-7.666c-0.431-2.516-2.111-4.656-4.498-5.726l-0.239-0.113c-0.173-0.085-0.337-0.165-0.437-0.165
		c-0.024,0-0.1,0-0.237,0.196c-0.286,0.404-1.019,0.51-1.427,0.39c-0.332-0.101-0.489-0.447-0.629-0.754
		c-0.037-0.084-0.074-0.166-0.114-0.238c-0.123-0.223-0.265-0.476-0.358-0.75c-0.027-0.078-0.063-0.162-0.097-0.248
		c-0.137-0.33-0.289-0.705-0.182-1.066c0.108-0.359,0.485-0.549,0.817-0.716c0.075-0.038,0.148-0.075,0.216-0.112
		c0.313-0.177,0.624-0.313,0.923-0.402l0.193-0.064c0.342-0.117,0.77-0.234,1.089-0.119c0.426,0.156,0.651,0.824,0.646,1.227
		c-0.006,0.33,0.049,0.373,0.306,0.437c2.151,0.521,4.057,0.371,5.857-0.455c2.563-1.177,4.181-3.058,4.938-5.747
		c0.631-2.234,0.311-4.688-0.879-6.729c-1.188-2.037-3.068-3.461-5.301-4.01c-2.332-0.574-4.484-0.293-6.657,0.879
		c-0.241,0.129-0.273,0.186-0.277,0.198c-0.004,0.017,0.002,0.091,0.084,0.236c0.2,0.356,0.079,1.13-0.3,1.376
		c-0.369,0.242-0.791,0.197-1.141,0.182l-0.13-0.006c-0.308-0.012-0.643-0.072-1.024-0.188c-0.076-0.021-0.159-0.043-0.243-0.063
		c-0.369-0.091-0.788-0.193-1.001-0.52c-0.202-0.312-0.127-0.709-0.062-1.062c0.021-0.102,0.039-0.2,0.05-0.294l0.012-0.104
		c0.031-0.288,0.063-0.586,0.162-0.881l0.032-0.099c0.113-0.345,0.255-0.774,0.598-0.97c0.348-0.198,1.01-0.1,1.337,0.165
		c0.138,0.112,0.204,0.124,0.227,0.124c0.053,0,0.146-0.057,0.28-0.169c2.324-1.933,3.443-4.747,3.071-7.722
		c-0.382-3.045-2.307-5.671-5.146-7.025c-1.728-0.822-3.813-0.967-5.796-0.405c-3.237,0.916-5.305,3.031-6.144,6.288
		c-0.094,0.359-0.165,0.727-0.221,1.094l-0.021,0.138c-0.035,0.221-0.074,0.471-0.006,0.565c0.044,0.061,0.171,0.111,0.347,0.139
		c0.444,0.069,0.799,0.73,0.813,1.126c0.012,0.33-0.24,0.574-0.461,0.789c-0.057,0.055-0.111,0.107-0.157,0.159
		c-0.077,0.087-0.167,0.167-0.257,0.245c-0.107,0.095-0.209,0.184-0.249,0.264c-0.296,0.593-0.755,0.894-1.365,0.894l-0.127-0.004
		c-0.793-0.046-1.069-0.628-1.209-1.062c-0.003,0.01-0.07-0.043-0.117-0.075c-0.09-0.064-0.179-0.132-0.249-0.208
		c-0.061-0.063-0.132-0.13-0.204-0.196c-0.263-0.243-0.561-0.519-0.545-0.881c0.022-0.483,0.543-1.01,0.96-1.123
		c0.292-0.079,0.31-0.138,0.272-0.43c-0.509-4.098-3.018-6.953-6.886-7.834c-2.938-0.665-6.104,0.359-8.225,2.628
		c-1.659,1.774-2.487,4.041-2.33,6.381c0.18,2.68,1.315,4.858,3.381,6.476c0.533-0.528,1.117-0.651,1.672-0.354
		c0.398,0.217,0.819,0.67,0.559,1.611c0.009-0.039,0.041,0.033,0.06,0.076c0.054,0.113,0.117,0.254,0.13,0.415l0.021,0.229
		c0.038,0.377,0.081,0.805-0.103,1.164c-0.166,0.324-0.575,0.397-0.938,0.461c-0.092,0.018-0.182,0.033-0.261,0.053
		c-0.353,0.087-0.707,0.175-1.078,0.193c-0.188,0.012-0.301,0.019-0.411,0.019c-0.221,0-0.54-0.022-0.771-0.212
		c-0.317-0.262-0.553-0.936-0.361-1.321c0.143-0.286,0.135-0.342-0.284-0.562c-1.935-1.004-3.886-1.301-6.004-0.918
		c-3.796,0.69-7.517,4.6-6.909,9.709c0.507,4.272,4.215,7.619,8.442,7.619c0.77-0.002,1.56-0.155,2.322-0.305l0.356-0.068
		c-0.004-0.016,0.081-0.151,0.089-0.211l0.005-0.117c0.018-0.432,0.047-1.15,0.805-1.284c0.354-0.063,0.707,0.071,1.037,0.204
		c0.102,0.039,0.2,0.08,0.299,0.111c0.293,0.094,0.572,0.183,0.818,0.338l0.164,0.099c0.323,0.19,0.689,0.409,0.854,0.772
		c0.149,0.324-0.016,0.688-0.16,1.012c-0.035,0.076-0.069,0.154-0.098,0.226c-0.107,0.279-0.244,0.563-0.415,0.868
		c-0.03,0.056-0.063,0.121-0.095,0.188c-0.15,0.311-0.321,0.661-0.665,0.707c-0.078,0.01-0.163,0.016-0.251,0.016
		c-0.179,0-0.788-0.028-1.141-0.391c-0.2-0.207-0.271-0.207-0.297-0.207c-0.196,0-0.656,0.34-1.293,0.809l-0.171,0.124
		c-2.247,1.651-3.653,4.161-3.763,6.714c-0.178,4.136,2.438,7.759,6.356,8.811c0.805,0.215,1.615,0.323,2.413,0.323
		c3.631,0,6.834-2.286,8.16-5.825c-0.003-0.016-0.043-0.16-0.148-0.328c-0.053-0.084-0.147-0.18-0.239-0.271
		c-0.201-0.203-0.43-0.432-0.445-0.751c-0.016-0.353,0.264-0.616,0.509-0.851c0.072-0.07,0.146-0.14,0.206-0.207
		c0.064-0.075,0.139-0.146,0.212-0.217c0.1-0.096,0.193-0.186,0.232-0.268c0.357-0.743,0.914-0.898,1.317-0.898l0.115,0.004
		c0.694,0.049,1.146,0.508,1.21,1.229c0.029,0.348,0.049,0.7,0.049,1.051l0.007,3.536c0.008,3.537,0.016,7.075,0.008,10.612
		c-0.017,7.531-0.038,15.063-0.06,22.594l-0.042,15.621c-0.003,1.216,0.48,2.4,1.328,3.25c0.844,0.846,1.959,1.271,3.128,1.226
		c3.109-0.159,6.724-0.374,10.246-0.89c4.854-0.71,9.516-1.895,13.852-3.52c3.795-1.42,7.638-3.22,11.75-5.5
		c3.533-1.959,7.029-4.408,11.004-7.713c3.313-2.756,6.507-6.021,9.492-9.707c4.044-4.992,7.369-10.352,9.882-15.927
		c2.672-5.926,4.349-10.985,5.274-15.927c0.245-1.309,0.463-2.623,0.68-3.938c0.143-0.852,0.282-1.701,0.432-2.552
		c0.119-0.692,0.65-1.063,1.377-0.937c0.666,0.117,1.026,0.64,0.918,1.326l-0.189,1.231c-0.23,1.491-0.469,3.033-0.754,4.544
		c-0.824,4.36-2.154,8.901-4.068,13.885c-0.865,2.248-2.497,5.745-3.637,7.795c-5.142,9.236-11.747,17.131-19.632,23.465
		c-4.452,3.576-9.596,6.736-15.726,9.662c-4.3,2.053-8.729,3.638-13.166,4.709c-5.558,1.345-10.737,2.104-15.838,2.32
		c-1.874,0.079-3.51,0.914-4.729,2.414c-1.057,1.299-1.637,3.057-1.634,4.95c0.013,8.056,0.012,16.112,0.011,24.169v10.124
		l-0.212,0.28c-0.082,0.104-0.164,0.209-0.232,0.322l-0.087,0.145l-0.166,0.029c-0.412,0.078-0.825,0.178-1.238,0.277
		L1193.952,311.413z M1122.564,225.108c-0.474,0.224-0.601,0.381-0.633,0.461c-0.047,0.121,0.041,0.316,0.188,0.628
		c0.11,0.23,0.233,0.493,0.324,0.811c3.015,6.403,6.273,11.839,9.942,16.56c5.832,7.505,12.74,13.93,20.532,19.099
		c5.379,3.567,10.928,6.429,16.492,8.504c6.827,2.546,13.91,4.257,21.05,5.085c2.371,0.271,4.23,2.359,4.233,4.748
		c0.01,8.078,0.008,16.155,0.007,24.232l-0.001,5.227c0.219-0.051,0.438-0.1,0.655-0.143c0.061-0.088,0.125-0.17,0.189-0.254
		l0.053-0.067v-9.874c0.001-8.057,0.002-16.111-0.011-24.167c-0.003-2.067,0.637-3.994,1.802-5.425
		c1.359-1.672,3.187-2.604,5.28-2.691c5.05-0.215,10.183-0.968,15.693-2.3c4.386-1.06,8.766-2.627,13.019-4.657
		c6.076-2.898,11.172-6.029,15.579-9.568c7.809-6.272,14.351-14.094,19.444-23.246c1.127-2.023,2.737-5.479,3.594-7.699
		c1.896-4.939,3.215-9.438,4.031-13.753c0.281-1.499,0.52-3.034,0.749-4.521l0.19-1.233c0.057-0.357-0.125-0.438-0.31-0.472
		c-0.212-0.037-0.438-0.063-0.509,0.326c-0.146,0.848-0.287,1.696-0.429,2.545c-0.218,1.319-0.437,2.639-0.684,3.953
		c-0.938,5-2.63,10.115-5.327,16.098c-2.539,5.634-5.896,11.047-9.983,16.09c-3.016,3.724-6.243,7.023-9.595,9.812
		c-4.012,3.335-7.545,5.812-11.12,7.793c-4.145,2.298-8.021,4.111-11.85,5.546c-4.386,1.645-9.099,2.842-14.006,3.559
		c-3.557,0.521-7.189,0.736-10.316,0.896c-1.381,0.084-2.704-0.447-3.698-1.443c-0.985-0.989-1.551-2.367-1.547-3.781l0.042-15.621
		c0.021-7.531,0.043-15.063,0.061-22.594c0.007-3.536,0-7.072-0.009-10.608l-0.007-3.537c0-0.33-0.017-0.659-0.046-0.985
		c-0.04-0.461-0.313-0.531-0.516-0.547c-0.228,0.029-0.499,0.047-0.704,0.474c-0.099,0.204-0.255,0.354-0.392,0.483
		c-0.058,0.055-0.113,0.107-0.163,0.166c-0.073,0.084-0.163,0.17-0.255,0.258c-0.097,0.092-0.256,0.244-0.279,0.31
		c0.019,0.007,0.15,0.142,0.229,0.22c0.115,0.116,0.246,0.247,0.343,0.4c0.109,0.174,0.354,0.623,0.219,0.99
		c-1.438,3.836-4.918,6.313-8.863,6.313c-0.863,0-1.74-0.116-2.607-0.351c-4.263-1.143-7.104-5.075-6.912-9.564
		c0.119-2.818,1.604-5.475,4.068-7.286l0.169-0.125c0.89-0.653,1.295-0.952,1.738-0.952c0.365,0,0.626,0.219,0.834,0.435
		c0.084,0.086,0.38,0.185,0.687,0.159c0.048-0.068,0.114-0.207,0.157-0.297c0.039-0.08,0.077-0.157,0.114-0.226
		c0.154-0.276,0.275-0.528,0.37-0.772c0.031-0.082,0.072-0.174,0.114-0.267c0.059-0.13,0.155-0.347,0.151-0.422
		c-0.059-0.119-0.329-0.278-0.545-0.407l-0.181-0.107c-0.167-0.105-0.378-0.174-0.603-0.243c-0.162-0.054-0.277-0.099-0.395-0.146
		c-0.207-0.082-0.42-0.166-0.574-0.166c-0.174,0.024-0.221,0.08-0.241,0.58l-0.006,0.131c-0.018,0.312-0.305,0.828-0.695,0.902
		l-0.354,0.068c-0.798,0.156-1.624,0.316-2.455,0.318c-4.612,0-8.646-3.637-9.198-8.281c-0.589-4.946,2.784-9.674,7.52-10.535
		c2.286-0.414,4.399-0.092,6.485,0.992c0.328,0.172,1.1,0.572,0.608,1.559c-0.01,0.074,0.088,0.346,0.166,0.408
		c0.002,0.002,0.06,0.042,0.295,0.042c0.097,0,0.194-0.007,0.287-0.013c0.384-0.021,0.69-0.097,1.015-0.176
		c0.103-0.025,0.209-0.045,0.317-0.063c0.14-0.024,0.374-0.066,0.437-0.109c0.048-0.116,0.017-0.429-0.013-0.702l-0.021-0.25
		c-0.003-0.029-0.038-0.106-0.063-0.158c-0.068-0.15-0.164-0.358-0.101-0.59c0.146-0.519-0.016-0.654-0.191-0.75
		c-0.265-0.142-0.487-0.07-0.775,0.225c-0.248,0.251-0.718,0.281-1,0.062c-2.241-1.756-3.476-4.116-3.668-7.017
		c-0.171-2.55,0.728-5.016,2.53-6.943c2.301-2.461,5.746-3.577,8.938-2.847c4.194,0.955,6.914,4.043,7.463,8.473
		c0.053,0.425,0.024,1.016-0.818,1.245c-0.148,0.04-0.396,0.319-0.408,0.435c0.021,0.034,0.199,0.197,0.306,0.295
		c0.086,0.08,0.172,0.159,0.243,0.237c0.038,0.04,0.089,0.074,0.138,0.108c0.146,0.104,0.323,0.232,0.396,0.457
		c0.142,0.441,0.287,0.526,0.539,0.541c0.006,0,0.012,0,0.017,0c0.346,0,0.563-0.085,0.76-0.477
		c0.106-0.213,0.276-0.361,0.427-0.492c0.065-0.058,0.134-0.116,0.189-0.18c0.058-0.063,0.126-0.132,0.194-0.198
		c0.081-0.079,0.218-0.211,0.238-0.268c-0.009-0.081-0.152-0.335-0.231-0.386c-0.344-0.045-0.616-0.188-0.787-0.422
		c-0.252-0.347-0.188-0.76-0.129-1.124l0.021-0.131c0.063-0.412,0.142-0.807,0.235-1.172c0.897-3.482,3.203-5.842,6.666-6.82
		c2.156-0.611,4.431-0.452,6.322,0.448c3.072,1.466,5.154,4.311,5.567,7.609c0.398,3.187-0.849,6.323-3.335,8.392
		c-0.354,0.297-0.889,0.515-1.459,0.053c-0.063-0.053-0.238-0.108-0.394-0.108c-0.062,0-0.095,0.011-0.104,0.013
		c-0.088,0.052-0.2,0.391-0.254,0.553l-0.034,0.104c-0.072,0.215-0.1,0.461-0.127,0.721l-0.012,0.106
		c-0.013,0.11-0.035,0.229-0.058,0.351c-0.029,0.153-0.083,0.438-0.048,0.514c0.051,0.076,0.389,0.158,0.551,0.199
		c0.096,0.022,0.189,0.047,0.277,0.072c0.321,0.096,0.597,0.146,0.84,0.155l0.136,0.006c0.293,0.011,0.594,0.007,0.696-0.06
		c0.028-0.049,0.076-0.311,0.05-0.395c-0.165-0.293-0.214-0.559-0.145-0.801c0.093-0.316,0.363-0.499,0.642-0.648
		c2.338-1.261,4.676-1.564,7.192-0.947c2.431,0.598,4.479,2.146,5.771,4.361c1.291,2.217,1.638,4.881,0.953,7.309
		c-0.813,2.875-2.611,4.97-5.35,6.226c-1.938,0.892-4.048,1.062-6.347,0.503c-0.611-0.147-0.892-0.521-0.879-1.179
		c0.003-0.187-0.114-0.467-0.185-0.522c-0.17,0.006-0.376,0.076-0.559,0.14l-0.216,0.071c-0.248,0.074-0.509,0.188-0.774,0.34
		c-0.076,0.043-0.161,0.086-0.248,0.129c-0.138,0.068-0.396,0.199-0.438,0.273c-0.027,0.096,0.081,0.361,0.161,0.557
		c0.039,0.097,0.078,0.193,0.11,0.285c0.073,0.214,0.191,0.427,0.306,0.633c0.05,0.088,0.096,0.189,0.143,0.292
		c0.053,0.114,0.139,0.307,0.191,0.356c0-0.007,0.043,0.002,0.109,0.002c0.223,0,0.422-0.08,0.461-0.121
		c0.439-0.627,1.058-0.543,1.613-0.269l0.216,0.103c2.616,1.172,4.459,3.521,4.933,6.283c0.531,3.12-0.204,6.061-2.074,8.275
		c-1.797,2.13-4.428,3.352-7.219,3.352c-1.371,0-2.714-0.295-3.988-0.877c-2.323-1.06-3.978-2.869-4.915-5.382
		c-0.128-0.349,0.059-0.772,0.182-0.993c0.091-0.16,0.222-0.304,0.337-0.43c0.074-0.081,0.187-0.203,0.206-0.253
		c-0.021-0.013-0.224-0.187-0.357-0.302c-0.104-0.088-0.206-0.178-0.294-0.27c-0.029-0.029-0.063-0.059-0.097-0.087
		c-0.122-0.104-0.272-0.233-0.336-0.438c-0.088-0.283-0.323-0.623-0.746-0.541c-0.368,0.067-0.547,0.316-0.547,0.761
		c-0.001,13.396-0.01,26.788-0.02,40.183l-0.006,9.271c0,0.351,0.04,0.584,0.12,0.692c0.024,0.032,0.09,0.119,0.406,0.119
		c0.098,0,0.204-0.008,0.322-0.021l1.832-0.213c1.786-0.205,3.633-0.418,5.434-0.696c4.114-0.64,8.465-1.904,13.299-3.866
		c3.943-1.602,7.664-3.545,11.062-5.775c5.765-3.787,10.748-8.188,14.812-13.076c3.769-4.533,6.479-8.596,8.534-12.784
		c1.528-3.113,3.246-6.814,4.402-10.665c1.117-3.717,1.958-7.738,2.571-12.294c0.482-3.589,3.036-6.265,6.662-6.983
		c0.414-0.082,0.837-0.13,1.307-0.146c-0.036-0.291-0.044-0.58-0.023-0.866c-1.645-0.036-3.188-0.57-4.595-1.589
		c-1.778-1.292-2.868-2.954-3.234-4.939c-0.164-0.893-0.313-1.789-0.46-2.685c-0.229-1.38-0.465-2.808-0.761-4.191
		c-1.153-5.423-2.788-10.266-4.993-14.804c-3.146-6.472-6.662-11.778-10.752-16.223c-3.988-4.334-7.567-7.539-11.265-10.085
		c-4.139-2.852-8.755-5.342-13.72-7.399c-3.096-1.283-6.428-2.295-10.186-3.093c-1.264-0.268-2.533-0.502-3.804-0.736
		c-0.598-0.11-1.194-0.221-1.791-0.334c-0.392-0.072-0.644-0.029-0.718,0.324c-0.034,0.158-0.085,0.397,0.497,0.544
		c0.399,0.101,0.827,0.161,1.239,0.22l0.127,0.019c4.094,0.589,7.778,1.494,11.267,2.767c4.322,1.579,7.891,3.042,11.262,5.047
		c7.032,4.183,12.836,9.003,17.743,14.736c4.676,5.46,8.411,11.768,11.42,19.282c0.762,1.905,1.773,5.103,2.255,7.128
		c1.377,5.795,2.018,10.655,2.013,15.295v0.508c0.002,1.963,0.003,3.992-0.173,5.98c-0.354,4.004-1.112,8.18-2.259,12.412
		c-1.656,6.12-4.288,12.065-7.823,17.672c-3.543,5.615-7.906,10.66-12.972,14.996c-4.037,3.455-8.395,6.354-12.951,8.61
		c-5.064,2.511-9.681,4.233-14.107,5.269c-1.1,0.256-2.063,0.381-2.948,0.381c-1.663,0-3.111-0.44-4.429-1.351
		c-2.283-1.573-3.533-3.763-3.715-6.508c-0.071-1.103,0.095-2.233,0.481-3.271c0.937-2.512,2.646-4.254,4.95-5.041
		c0.785-0.27,1.599-0.478,2.385-0.679c0.454-0.116,0.909-0.231,1.359-0.36c6.174-1.756,11.921-4.771,17.082-8.957
		c7.369-5.979,12.601-13.414,15.545-22.101c0.59-1.739,1.031-3.569,1.46-5.341c0.176-0.725,0.351-1.448,0.534-2.169
		c0.039-0.152,0.034-0.283-0.014-0.36c-0.037-0.058-0.109-0.098-0.219-0.117c-0.238-0.047-0.461-0.076-0.566,0.377
		c-0.09,0.391-0.176,0.78-0.263,1.172c-0.205,0.923-0.416,1.877-0.668,2.808c-2.303,8.513-6.756,16.003-13.238,22.263
		c-4.786,4.621-10.412,8.18-16.721,10.574c-3.156,1.198-5.787,1.045-8.136-0.449c-2.562-1.628-3.905-3.967-3.997-6.951
		c-0.035-1.148,0.223-2.291,0.839-3.705c0.893-2.049,2.407-3.471,4.5-4.225c4.328-1.557,7.864-3.563,10.811-6.129
		c5.495-4.785,9.002-10.875,10.422-18.102c0.898-4.57,0.774-9.164-0.368-13.651c-2.187-8.572-7.119-15.211-14.663-19.734
		c-2.938-1.761-6.039-3.031-9.218-3.776c-2.837-0.666-4.844-2.268-5.96-4.761c-0.893-1.988-0.968-4.313-0.207-6.378
		c0.764-2.07,2.162-3.608,4.156-4.571c1.842-0.889,3.79-1.043,6.148-0.486c4.447,1.061,8.269,2.505,11.682,4.416
		c6.484,3.636,11.562,7.935,15.517,13.143c2.642,3.479,4.775,7.152,6.344,10.918c1.473,3.538,2.38,7.164,3.006,9.927
		c0.114,0.509,0.309,0.509,0.413,0.509c0.042,0,0.086-0.005,0.134-0.015c0.178-0.032,0.226-0.103,0.239-0.125
		c0.063-0.092,0.072-0.264,0.025-0.481l-0.187-0.921c-0.192-0.959-0.391-1.95-0.646-2.904c-1.596-5.94-4.271-11.481-7.954-16.468
		c-5.613-7.596-12.966-13.244-21.854-16.787c-5.152-2.054-10.517-3.199-15.941-3.404c-4.979-0.195-9.854,0.325-14.36,1.54
		c-8.111,2.187-15.257,6.069-21.239,11.539c-5.406,4.946-9.566,11.014-12.365,18.034c-0.843,2.114-1.465,4.37-2.065,6.552
		c-0.177,0.635-0.352,1.27-0.531,1.9c-0.165,0.58-0.274,1.197-0.381,1.794c-0.121,0.679-0.245,1.378-0.453,2.054
		c-0.598,1.955-1.877,3.522-3.7,4.531c-1.646,0.911-3.175,1.271-4.79,1.073c-1.343-0.161-2.446-0.494-3.478-1.048
		c-1.444-0.775-2.566-1.938-3.336-3.455c-0.857-1.688-1.112-3.702-0.737-5.83c0.741-4.199,1.681-7.864,2.87-11.203
		c2.176-6.113,5.29-11.952,9.258-17.354c2.902-3.95,5.837-7.2,8.971-9.937c5.123-4.471,10.178-7.856,15.454-10.351
		c2.584-1.222,6.012-2.748,9.607-3.719c2.203-0.595,4.475-1.057,6.671-1.503c1.097-0.223,2.193-0.445,3.286-0.685
		c0.146-0.032,0.597-0.132,0.745-0.309c0.058-0.077,0.084-0.355,0.043-0.443c-0.063-0.077-0.315-0.188-0.521-0.188
		c-0.457,0.063-0.862,0.126-1.266,0.194c-3.975,0.669-10.742,2.398-14.751,4.025c-7.378,2.993-13.976,7.072-19.607,12.124
		c-4.088,3.669-7.656,7.725-10.604,12.054c-4.614,6.778-7.9,13.952-9.767,21.323c-1.252,4.949-1.932,9.488-2.077,13.875
		c-0.186,5.521,0.155,10.408,1.041,14.937c1.048,5.364,2.479,10.067,4.373,14.377c1.859,4.235,3.607,7.532,5.499,10.374
		c3.955,5.941,8.659,11.128,13.982,15.415c6.05,4.868,12.811,8.627,20.094,11.171c0.053,0.02,0.102,0.028,0.142,0.028
		c0.044,0,0.177,0,0.321-0.358c0.041-0.1,0.049-0.182,0.021-0.244c-0.031-0.072-0.117-0.139-0.242-0.188
		c-0.17-0.066-0.342-0.127-0.513-0.188c-0.147-0.052-0.295-0.104-0.44-0.159c-6.096-2.33-11.656-5.342-16.531-8.949
		c-5.081-3.76-9.478-8.059-13.064-12.778c-3.369-4.433-5.905-8.58-7.753-12.681c-2.271-5.043-3.704-9.336-4.514-13.515
		c-0.096-0.489-0.207-0.976-0.319-1.462c-0.338-1.47-0.688-2.988-0.554-4.584c0.182-2.182,0.951-3.922,2.352-5.32
		c2.087-2.082,4.623-2.884,7.525-2.363c1.872,0.333,3.463,1.234,4.728,2.682c1.448,1.656,1.938,3.674,2.204,5.247
		c0.679,4.013,1.742,7.64,3.253,11.085c3.649,8.33,9.131,15.174,16.29,20.342c1.524,1.102,3.186,2.081,4.79,3.029
		c0.664,0.393,1.329,0.785,1.986,1.188c0.287,0.177,0.641,0.104,0.782-0.145c0.039-0.068,0.049-0.134,0.027-0.203
		c-0.041-0.14-0.19-0.285-0.411-0.398c-6.346-3.291-11.709-7.681-15.942-13.045c-3.124-3.957-5.424-7.811-7.031-11.779
		c-2.039-5.036-3.251-10.426-3.603-16.018c-0.283-4.522,0.185-9.342,1.431-14.729c0.549-2.379,1.35-4.719,2.379-6.954
		c3.229-7.001,7.197-12.555,12.13-16.979c2.913-2.614,5.757-4.676,8.691-6.301c4.023-2.229,8.375-3.907,12.933-4.985
		c0.659-0.155,1.337-0.234,2.018-0.234c3.712,0,6.975,2.272,8.118,5.654c0.737,2.18,0.597,4.301-0.421,6.304
		c-1.122,2.213-2.821,3.656-5.053,4.29c-2.187,0.622-4.509,1.313-6.742,2.318c-5.906,2.661-10.641,6.824-14.068,12.375
		c-3.834,6.205-5.329,13.158-4.445,20.666c0.593,5.028,2.314,9.662,5.116,13.772c4.081,5.981,9.461,10.131,15.992,12.334
		c1.055,0.354,2.402,0.908,3.471,2.034c1.461,1.54,2.168,3.445,2.159,5.822c-0.027,9.619-0.023,19.236-0.02,28.854l0.003,8.761
		c0,2.243-1.004,4.199-2.901,5.658c-1.74,1.338-4.122,1.848-6.477,1.387c-3.202-0.621-6.055-1.28-8.718-2.018
		c-5.926-1.635-11.497-3.87-16.561-6.645c-8.004-4.383-14.604-9.34-20.184-15.153c-2.357-2.458-5.072-5.349-7.44-8.539
		C1128.417,236.856,1125.102,231.092,1122.564,225.108z"/>
</svg>
