<?xml version="1.0" encoding="utf-8"?>
<!-- Generator: Adobe Illustrator 16.0.0, SVG Export Plug-In . SVG Version: 6.00 Build 0)  -->
<!DOCTYPE svg PUBLIC "-//W3C//DTD SVG 1.1//EN" "http://www.w3.org/Graphics/SVG/1.1/DTD/svg11.dtd">
<svg version="1.1" id="Layer_1" xmlns="http://www.w3.org/2000/svg" xmlns:xlink="http://www.w3.org/1999/xlink" x="0px" y="0px"
	 width="223.368px" height="238.99px"
	 xml:space="preserve">

	<path d="M516.196,294.787C516.196,294.787,516.195,294.787,516.196,294.787c-0.384,0-0.74-0.142-0.981-0.388
		c-0.21-0.215-0.322-0.496-0.315-0.795c0.008-0.396,0.175-1.078,1.208-1.209c6.627-0.824,13.075-2.209,19.168-4.113
		c10.313-3.229,20.125-7.963,29.158-14.072c5.457-3.689,10.642-7.98,15.85-13.114c4.629-4.563,8.938-9.786,13.172-15.97
		c5.279-7.707,9.426-15.789,12.326-24.021c1.264-3.588,2.284-7.338,3.271-10.965l0.268-0.979c1.269-4.652,1.889-9.398,2.461-14.258
		c0.173-1.467,0.209-2.644,0.112-3.698c-0.13-1.431-0.798-2.78-1.983-4.015c-1.253-1.301-2.803-2.054-4.739-2.301
		c-1.448-0.188-2.795,0.045-3.917,0.674c-0.953,0.535-1.895,1.269-2.722,2.119c-1.33,1.369-1.658,3.156-1.803,4.726
		c-0.641,6.903-2.038,13.724-4.155,20.268c-2.998,9.263-7.489,18.105-13.35,26.282c-2.771,3.868-6.104,7.738-10.188,11.832
		c-5.295,5.311-11.499,10.025-18.964,14.42c-6.226,3.663-12.905,6.555-19.856,8.591c-2.665,0.779-5.463,1.513-8.556,2.239
		c-1.464,0.345-2.976,0.568-4.437,0.786l-0.881,0.132c-0.568,0.081-1.043-0.12-1.288-0.51c-0.198-0.313-0.211-0.703-0.036-1.069
		c0.15-0.313,0.534-0.604,0.873-0.657c4.729-0.748,9.554-1.877,14.751-3.451c6.786-2.056,13.539-5.168,20.645-9.519
		c3.463-2.12,6.725-4.612,9.459-6.772c7.151-5.646,13.438-12.533,18.681-20.468c4.162-6.294,7.455-12.845,9.789-19.47
		c1.606-4.559,2.781-8.684,3.593-12.611c1.787-8.646,2.363-16.615,1.764-24.363c-0.3-3.857-0.887-7.696-1.565-11.954
		c-0.848-5.301-2.478-10.785-5.285-17.785c-2.501-6.236-5.976-12.414-10.623-18.887c-2.601-3.621-5.747-7.219-10.198-11.665
		c-4.68-4.674-10.249-8.956-17.027-13.091c-4.821-2.941-10.096-5.44-15.679-7.428c-3.77-1.342-7.225-2.356-10.563-3.101
		c-2.772-0.62-5.646-1.043-8.426-1.452c-1.113-0.164-2.227-0.328-3.337-0.505c-0.63-0.1-1.084-0.366-1.28-0.748
		c-0.139-0.271-0.133-0.584,0.017-0.88c0.186-0.367,0.718-0.777,1.15-0.777c4.864,0.437,9.763,1.296,14.625,2.557
		c7.862,2.038,15.64,5.195,23.118,9.385c5.925,3.319,11.576,7.434,16.796,12.228c6.491,5.963,11.706,12.108,15.943,18.788
		c4.839,7.632,8.469,15.554,10.788,23.545c0.749,2.582,1.522,5.252,2.095,7.971c0.411,1.954,0.702,3.963,0.982,5.904
		c0.114,0.788,0.229,1.576,0.351,2.362c0.083,0.531,0.152,1.065,0.223,1.6c0.136,1.034,0.277,2.104,0.51,3.126
		c0.232,1.018,0.827,1.987,1.819,2.965c1.371,1.349,2.996,2.094,4.83,2.215c1.751,0.112,3.357-0.289,4.734-1.215
		c1.843-1.238,2.942-2.839,3.271-4.756c0.203-1.188,0.123-2.452,0.015-3.751c-0.32-3.857-0.939-7.718-1.841-11.473l-0.121-0.505
		c-0.883-3.684-1.796-7.492-2.971-11.143c-2.835-8.813-6.84-17.268-11.902-25.132c-3.104-4.822-6.794-9.627-10.969-14.28
		c-6.158-6.866-13.44-13.076-21.646-18.457c-4.828-3.167-10.236-6.047-16.533-8.805c-4.682-2.051-9.49-3.547-13.99-4.857
		c-4.083-1.19-8.443-2.114-12.958-2.744c-5.962-0.829-10.938-1.216-15.663-1.216c-0.945,0-1.894,0.016-2.841,0.05
		c-3.179,0.112-6.41,0.407-9.535,0.691l-0.408,0.037c-4.81,0.438-9.836,1.372-15.817,2.938c-3.979,1.04-7.894,2.449-10.859,3.562
		c-8.656,3.245-17.032,7.761-24.896,13.42c-4.938,3.552-8.768,6.748-12.051,10.057l-0.615,0.621
		c-2.357,2.372-4.795,4.826-6.952,7.427c-2.45,2.956-4.934,6.275-7.591,10.146c-3.598,5.239-6.716,11.016-9.532,17.66
		c-2.274,5.363-3.923,10.172-5.042,14.7c-1.01,4.088-1.81,8.307-2.54,12.278c-0.281,1.524-0.447,3.104-0.608,4.633
		c-0.075,0.718-0.15,1.437-0.238,2.152c-0.028,0.247-0.048,0.414-0.084,0.575c-0.149,0.665-0.607,1.022-1.281,0.951
		c-0.658-0.072-1.044-0.543-0.985-1.199c0.151-1.647,0.313-3.296,0.481-4.942c0.516-5.006,1.517-10.183,2.977-15.387
		c1.104-3.93,2.503-7.806,3.853-11.409c3.922-10.476,9.65-20.409,17.025-29.525c6.045-7.472,12.851-14.035,20.227-19.508
		c7.681-5.701,15.852-10.351,24.285-13.82c4.821-1.983,8.9-3.366,12.838-4.352c4.462-1.115,8.57-2.005,12.562-2.718
		c1.808-0.323,3.662-0.519,5.455-0.707c1.444-0.152,2.938-0.31,4.392-0.533c2.257-0.346,4.001-1.581,5.188-3.673
		c1.116-1.97,1.323-4.042,0.616-6.162c-0.127-0.382-0.263-0.723-0.412-1.041c-0.628-1.336-2.737-2.82-3.614-3.396l-0.519-0.341
		l0.543-0.301c1.368-0.759,3.425-1.194,5.64-1.194c2.019,0,3.887,0.355,5.262,1.001l0.755,0.355l-0.767,0.329
		c-1.547,0.663-2.521,2.246-2.531,2.262c-0.488,0.734-0.865,1.513-1.127,2.327c-0.718,2.228-0.458,4.48,0.753,6.516
		c0.994,1.668,2.478,2.753,4.29,3.136c1.068,0.227,2.186,0.351,3.266,0.472c0.604,0.067,1.212,0.135,1.813,0.22
		c0.796,0.112,1.594,0.219,2.393,0.325c2.133,0.286,4.339,0.581,6.491,0.981c7.028,1.308,14.018,3.344,20.771,6.054
		c8.216,3.296,15.371,7.09,21.872,11.599c7.78,5.397,14.912,11.777,21.196,18.965c4.129,4.723,7.979,10.077,11.769,16.369
		c3.491,5.793,6.524,12.21,9.013,19.07c1.403,3.864,2.614,8.018,3.812,13.071c1.095,4.62,1.674,9.347,2.232,13.917
		c0.703,5.752,0.622,11.49,0.43,16.834c-0.101,2.799-0.468,5.627-0.822,8.36l-0.104,0.8c-0.617,4.783-1.633,9.814-3.02,14.954
		c-1.348,4.995-3.302,10.269-6.151,16.593c-3.754,8.33-8.627,16.17-14.897,23.967c-5.689,7.074-12.478,13.56-20.175,19.274
		c-7.313,5.431-15.372,10-23.952,13.584c-4.279,1.788-8.991,3.353-14.407,4.779c-4.182,1.103-8.585,1.981-13.091,2.612
		c-0.221,0.031-0.439,0.069-0.658,0.107c-0.321,0.057-0.643,0.109-0.964,0.146C516.313,294.783,516.254,294.787,516.196,294.787z
		 M604.211,184.077c0.345,0,0.7,0.023,1.056,0.068c2.083,0.268,3.826,1.116,5.184,2.525c1.308,1.357,2.045,2.861,2.19,4.465
		c0.101,1.109,0.063,2.334-0.114,3.854c-0.577,4.889-1.201,9.665-2.483,14.366l-0.267,0.979c-0.99,3.64-2.015,7.404-3.288,11.019
		c-2.922,8.293-7.1,16.435-12.414,24.194c-4.263,6.224-8.603,11.483-13.266,16.079c-5.24,5.167-10.459,9.484-15.955,13.202
		c-9.094,6.151-18.971,10.918-29.354,14.167c-6.134,1.918-12.627,3.313-19.298,4.143c-0.501,0.063-0.547,0.28-0.551,0.48
		c-0.002,0.098,0.031,0.183,0.102,0.254c0.101,0.104,0.263,0.162,0.444,0.162h0.001c0.03,0,0.063-0.002,0.096-0.006
		c0.307-0.032,0.612-0.086,0.917-0.139c0.227-0.039,0.454-0.08,0.682-0.111c4.478-0.627,8.853-1.502,13.004-2.596
		c5.383-1.42,10.063-2.972,14.31-4.746c8.525-3.562,16.531-8.102,23.795-13.494c7.646-5.678,14.388-12.118,20.038-19.144
		c6.229-7.746,11.07-15.532,14.798-23.805c2.833-6.287,4.774-11.522,6.11-16.479c1.378-5.106,2.387-10.104,3-14.854l0.104-0.801
		c0.354-2.717,0.717-5.527,0.816-8.293c0.191-5.313,0.272-11.014-0.423-16.714c-0.559-4.551-1.135-9.257-2.22-13.835
		c-1.189-5.025-2.394-9.152-3.786-12.989c-2.473-6.815-5.483-13.188-8.95-18.939c-3.769-6.254-7.593-11.573-11.691-16.262
		c-6.244-7.142-13.33-13.48-21.06-18.842c-6.454-4.478-13.561-8.245-21.725-11.521c-6.708-2.691-13.647-4.714-20.628-6.011
		c-2.135-0.397-4.331-0.691-6.455-0.976c-0.799-0.107-1.599-0.215-2.396-0.327c-0.597-0.083-1.194-0.15-1.793-0.217
		c-1.099-0.123-2.233-0.249-3.337-0.482c-2.022-0.428-3.676-1.634-4.779-3.486c-1.325-2.227-1.609-4.691-0.823-7.13
		c0.283-0.88,0.689-1.721,1.208-2.499c0.03-0.051,0.805-1.314,2.131-2.157c-1.18-0.409-2.671-0.638-4.217-0.638
		c-1.771,0-3.477,0.304-4.71,0.826c1.168,0.816,2.752,2.09,3.339,3.338c0.162,0.346,0.308,0.713,0.444,1.122
		c0.777,2.33,0.55,4.607-0.675,6.769c-1.286,2.27-3.266,3.668-5.727,4.046c-1.471,0.226-2.973,0.384-4.426,0.536
		c-1.78,0.188-3.62,0.382-5.401,0.7c-3.974,0.71-8.065,1.596-12.512,2.708c-3.9,0.976-7.947,2.348-12.734,4.316
		c-8.376,3.446-16.492,8.065-24.123,13.729c-7.325,5.437-14.086,11.956-20.091,19.379c-7.324,9.053-13.013,18.916-16.906,29.316
		c-1.344,3.587-2.736,7.445-3.832,11.349c-1.447,5.162-2.441,10.297-2.952,15.26c-0.169,1.645-0.33,3.288-0.48,4.935
		c-0.021,0.249,0.067,0.357,0.32,0.385c0.236,0.016,0.395-0.04,0.468-0.369c0.03-0.136,0.045-0.275,0.062-0.415
		c0.097-0.799,0.172-1.513,0.247-2.228c0.161-1.542,0.329-3.137,0.616-4.69c0.733-3.98,1.533-8.213,2.549-12.321
		c1.129-4.567,2.79-9.413,5.079-14.813c2.836-6.69,5.979-12.511,9.604-17.791c2.671-3.891,5.167-7.228,7.632-10.201
		c2.178-2.627,4.628-5.093,6.997-7.477l0.616-0.62c3.313-3.34,7.172-6.562,12.145-10.139c7.917-5.697,16.353-10.244,25.07-13.514
		c2.983-1.117,6.922-2.535,10.933-3.584c6.022-1.576,11.087-2.517,15.939-2.958l0.408-0.037c3.135-0.286,6.377-0.581,9.576-0.695
		c5.722-0.198,11.434,0.172,18.635,1.174c4.551,0.635,8.945,1.565,13.064,2.766c4.523,1.318,9.36,2.823,14.081,4.891
		c6.336,2.775,11.78,5.675,16.644,8.865c8.26,5.417,15.592,11.669,21.794,18.584c4.2,4.682,7.916,9.519,11.041,14.374
		c5.098,7.919,9.13,16.435,11.984,25.308c1.185,3.678,2.101,7.501,2.986,11.198l0.121,0.504c0.91,3.793,1.535,7.691,1.858,11.586
		c0.112,1.349,0.194,2.665-0.022,3.94c-0.363,2.127-1.571,3.894-3.592,5.251c-1.516,1.021-3.273,1.473-5.202,1.342
		c-2.02-0.135-3.804-0.951-5.307-2.43c-1.098-1.081-1.761-2.171-2.024-3.333c-0.24-1.056-0.383-2.143-0.522-3.194
		c-0.068-0.528-0.139-1.057-0.221-1.582c-0.123-0.789-0.237-1.579-0.352-2.37c-0.279-1.93-0.568-3.926-0.976-5.857
		c-0.564-2.691-1.335-5.348-2.081-7.916c-2.299-7.923-5.898-15.78-10.7-23.352c-4.202-6.624-9.375-12.72-15.818-18.638
		c-5.177-4.756-10.78-8.835-16.654-12.126c-7.422-4.157-15.141-7.291-22.939-9.313c-4.822-1.251-9.682-2.104-14.44-2.534
		c-0.098,0.003-0.394,0.201-0.478,0.366c-0.061,0.119-0.031,0.176-0.019,0.2c0.061,0.117,0.287,0.279,0.73,0.35
		c1.106,0.176,2.218,0.339,3.328,0.503c2.792,0.411,5.679,0.836,8.479,1.462c3.369,0.752,6.854,1.774,10.651,3.126
		c5.631,2.005,10.953,4.526,15.816,7.494c6.83,4.167,12.445,8.484,17.167,13.2c4.482,4.477,7.652,8.104,10.278,11.759
		c4.683,6.522,8.187,12.752,10.709,19.045c2.829,7.054,4.472,12.588,5.329,17.945c0.682,4.274,1.271,8.129,1.573,12.015
		c0.604,7.82,0.023,15.857-1.777,24.574c-0.819,3.96-2.003,8.117-3.621,12.709c-2.354,6.684-5.674,13.288-9.87,19.634
		c-5.288,8-11.627,14.945-18.842,20.642c-2.752,2.175-6.037,4.685-9.533,6.824c-7.161,4.383-13.97,7.522-20.817,9.598
		c-5.232,1.585-10.091,2.721-14.853,3.473c-0.096,0.016-0.27,0.148-0.313,0.241s-0.081,0.228-0.006,0.346
		c0.086,0.14,0.296,0.207,0.542,0.168l0.883-0.132c1.444-0.215,2.939-0.438,4.374-0.773c3.079-0.725,5.864-1.453,8.517-2.229
		c6.892-2.019,13.516-4.886,19.687-8.517c7.411-4.361,13.563-9.039,18.813-14.304c4.055-4.065,7.362-7.905,10.111-11.739
		c5.813-8.113,10.271-16.888,13.245-26.076c2.1-6.491,3.486-13.256,4.123-20.104c0.147-1.6,0.51-3.634,2.011-5.18
		c0.877-0.901,1.877-1.681,2.893-2.251C601.872,184.356,602.99,184.077,604.211,184.077z"/>
</svg>
